<?xml version="1.0" encoding="utf-8" standalone="no"?>
<!DOCTYPE svg PUBLIC "-//W3C//DTD SVG 1.1//EN"
  "http://www.w3.org/Graphics/SVG/1.1/DTD/svg11.dtd">
<svg xmlns:xlink="http://www.w3.org/1999/xlink" width="720pt" height="360pt" viewBox="0 0 720 360" xmlns="http://www.w3.org/2000/svg" version="1.1">
 <metadata>
  <rdf:RDF xmlns:dc="http://purl.org/dc/elements/1.1/" xmlns:cc="http://creativecommons.org/ns#" xmlns:rdf="http://www.w3.org/1999/02/22-rdf-syntax-ns#">
   <cc:Work>
    <dc:type rdf:resource="http://purl.org/dc/dcmitype/StillImage"/>
    <dc:date>2026-01-29T14:35:04.199439</dc:date>
    <dc:format>image/svg+xml</dc:format>
    <dc:creator>
     <cc:Agent>
      <dc:title>Matplotlib v3.9.4, https://matplotlib.org/</dc:title>
     </cc:Agent>
    </dc:creator>
   </cc:Work>
  </rdf:RDF>
 </metadata>
 <defs>
  <style type="text/css">*{stroke-linejoin: round; stroke-linecap: butt}</style>
 </defs>
 <g id="figure_1">
  <g id="patch_1">
   <path d="M 0 360 
L 720 360 
L 720 0 
L 0 0 
z
" style="fill: #ffffff"/>
  </g>
  <g id="axes_1">
   <g id="patch_2">
    <path d="M 44.57 318.04 
L 709.2 318.04 
L 709.2 26.88 
L 44.57 26.88 
z
" style="fill: #ffffff"/>
   </g>
   <g id="patch_3">
    <path d="M 74.780455 318.04 
L 78.011519 318.04 
L 78.011519 47.50806 
L 74.780455 47.50806 
z
" clip-path="url(#p176a56440b)" style="fill: #87ceeb; stroke: #000000; stroke-linejoin: miter"/>
   </g>
   <g id="patch_4">
    <path d="M 78.011519 318.04 
L 81.242584 318.04 
L 81.242584 40.744762 
L 78.011519 40.744762 
z
" clip-path="url(#p176a56440b)" style="fill: #87ceeb; stroke: #000000; stroke-linejoin: miter"/>
   </g>
   <g id="patch_5">
    <path d="M 81.242584 318.04 
L 84.473649 318.04 
L 84.473649 189.537329 
L 81.242584 189.537329 
z
" clip-path="url(#p176a56440b)" style="fill: #87ceeb; stroke: #000000; stroke-linejoin: miter"/>
   </g>
   <g id="patch_6">
    <path d="M 84.473649 318.04 
L 87.704713 318.04 
L 87.704713 230.11712 
L 84.473649 230.11712 
z
" clip-path="url(#p176a56440b)" style="fill: #87ceeb; stroke: #000000; stroke-linejoin: miter"/>
   </g>
   <g id="patch_7">
    <path d="M 87.704713 318.04 
L 90.935778 318.04 
L 90.935778 250.407015 
L 87.704713 250.407015 
z
" clip-path="url(#p176a56440b)" style="fill: #87ceeb; stroke: #000000; stroke-linejoin: miter"/>
   </g>
   <g id="patch_8">
    <path d="M 90.935778 318.04 
L 94.166842 318.04 
L 94.166842 236.880418 
L 90.935778 236.880418 
z
" clip-path="url(#p176a56440b)" style="fill: #87ceeb; stroke: #000000; stroke-linejoin: miter"/>
   </g>
   <g id="patch_9">
    <path d="M 94.166842 318.04 
L 97.397907 318.04 
L 97.397907 243.643717 
L 94.166842 243.643717 
z
" clip-path="url(#p176a56440b)" style="fill: #87ceeb; stroke: #000000; stroke-linejoin: miter"/>
   </g>
   <g id="patch_10">
    <path d="M 97.397907 318.04 
L 100.628972 318.04 
L 100.628972 304.513403 
L 97.397907 304.513403 
z
" clip-path="url(#p176a56440b)" style="fill: #87ceeb; stroke: #000000; stroke-linejoin: miter"/>
   </g>
   <g id="patch_11">
    <path d="M 100.628972 318.04 
L 103.860036 318.04 
L 103.860036 311.276702 
L 100.628972 311.276702 
z
" clip-path="url(#p176a56440b)" style="fill: #87ceeb; stroke: #000000; stroke-linejoin: miter"/>
   </g>
   <g id="patch_12">
    <path d="M 103.860036 318.04 
L 107.091101 318.04 
L 107.091101 290.986806 
L 103.860036 290.986806 
z
" clip-path="url(#p176a56440b)" style="fill: #87ceeb; stroke: #000000; stroke-linejoin: miter"/>
   </g>
   <g id="patch_13">
    <path d="M 107.091101 318.04 
L 110.322166 318.04 
L 110.322166 304.513403 
L 107.091101 304.513403 
z
" clip-path="url(#p176a56440b)" style="fill: #87ceeb; stroke: #000000; stroke-linejoin: miter"/>
   </g>
   <g id="patch_14">
    <path d="M 110.322166 318.04 
L 113.55323 318.04 
L 113.55323 290.986806 
L 110.322166 290.986806 
z
" clip-path="url(#p176a56440b)" style="fill: #87ceeb; stroke: #000000; stroke-linejoin: miter"/>
   </g>
   <g id="patch_15">
    <path d="M 113.55323 318.04 
L 116.784295 318.04 
L 116.784295 311.276702 
L 113.55323 311.276702 
z
" clip-path="url(#p176a56440b)" style="fill: #87ceeb; stroke: #000000; stroke-linejoin: miter"/>
   </g>
   <g id="patch_16">
    <path d="M 116.784295 318.04 
L 120.01536 318.04 
L 120.01536 311.276702 
L 116.784295 311.276702 
z
" clip-path="url(#p176a56440b)" style="fill: #87ceeb; stroke: #000000; stroke-linejoin: miter"/>
   </g>
   <g id="patch_17">
    <path d="M 120.01536 318.04 
L 123.246424 318.04 
L 123.246424 297.750105 
L 120.01536 297.750105 
z
" clip-path="url(#p176a56440b)" style="fill: #87ceeb; stroke: #000000; stroke-linejoin: miter"/>
   </g>
   <g id="patch_18">
    <path d="M 123.246424 318.04 
L 126.477489 318.04 
L 126.477489 304.513403 
L 123.246424 304.513403 
z
" clip-path="url(#p176a56440b)" style="fill: #87ceeb; stroke: #000000; stroke-linejoin: miter"/>
   </g>
   <g id="patch_19">
    <path d="M 126.477489 318.04 
L 129.708554 318.04 
L 129.708554 318.04 
L 126.477489 318.04 
z
" clip-path="url(#p176a56440b)" style="fill: #87ceeb; stroke: #000000; stroke-linejoin: miter"/>
   </g>
   <g id="patch_20">
    <path d="M 129.708554 318.04 
L 132.939618 318.04 
L 132.939618 318.04 
L 129.708554 318.04 
z
" clip-path="url(#p176a56440b)" style="fill: #87ceeb; stroke: #000000; stroke-linejoin: miter"/>
   </g>
   <g id="patch_21">
    <path d="M 132.939618 318.04 
L 136.170683 318.04 
L 136.170683 304.513403 
L 132.939618 304.513403 
z
" clip-path="url(#p176a56440b)" style="fill: #87ceeb; stroke: #000000; stroke-linejoin: miter"/>
   </g>
   <g id="patch_22">
    <path d="M 136.170683 318.04 
L 139.401748 318.04 
L 139.401748 311.276702 
L 136.170683 311.276702 
z
" clip-path="url(#p176a56440b)" style="fill: #87ceeb; stroke: #000000; stroke-linejoin: miter"/>
   </g>
   <g id="patch_23">
    <path d="M 139.401748 318.04 
L 142.632812 318.04 
L 142.632812 318.04 
L 139.401748 318.04 
z
" clip-path="url(#p176a56440b)" style="fill: #87ceeb; stroke: #000000; stroke-linejoin: miter"/>
   </g>
   <g id="patch_24">
    <path d="M 142.632812 318.04 
L 145.863877 318.04 
L 145.863877 311.276702 
L 142.632812 311.276702 
z
" clip-path="url(#p176a56440b)" style="fill: #87ceeb; stroke: #000000; stroke-linejoin: miter"/>
   </g>
   <g id="patch_25">
    <path d="M 145.863877 318.04 
L 149.094942 318.04 
L 149.094942 318.04 
L 145.863877 318.04 
z
" clip-path="url(#p176a56440b)" style="fill: #87ceeb; stroke: #000000; stroke-linejoin: miter"/>
   </g>
   <g id="patch_26">
    <path d="M 149.094942 318.04 
L 152.326006 318.04 
L 152.326006 311.276702 
L 149.094942 311.276702 
z
" clip-path="url(#p176a56440b)" style="fill: #87ceeb; stroke: #000000; stroke-linejoin: miter"/>
   </g>
   <g id="patch_27">
    <path d="M 152.326006 318.04 
L 155.557071 318.04 
L 155.557071 318.04 
L 152.326006 318.04 
z
" clip-path="url(#p176a56440b)" style="fill: #87ceeb; stroke: #000000; stroke-linejoin: miter"/>
   </g>
   <g id="patch_28">
    <path d="M 155.557071 318.04 
L 158.788136 318.04 
L 158.788136 318.04 
L 155.557071 318.04 
z
" clip-path="url(#p176a56440b)" style="fill: #87ceeb; stroke: #000000; stroke-linejoin: miter"/>
   </g>
   <g id="patch_29">
    <path d="M 158.788136 318.04 
L 162.0192 318.04 
L 162.0192 318.04 
L 158.788136 318.04 
z
" clip-path="url(#p176a56440b)" style="fill: #87ceeb; stroke: #000000; stroke-linejoin: miter"/>
   </g>
   <g id="patch_30">
    <path d="M 162.0192 318.04 
L 165.250265 318.04 
L 165.250265 318.04 
L 162.0192 318.04 
z
" clip-path="url(#p176a56440b)" style="fill: #87ceeb; stroke: #000000; stroke-linejoin: miter"/>
   </g>
   <g id="patch_31">
    <path d="M 165.250265 318.04 
L 168.48133 318.04 
L 168.48133 318.04 
L 165.250265 318.04 
z
" clip-path="url(#p176a56440b)" style="fill: #87ceeb; stroke: #000000; stroke-linejoin: miter"/>
   </g>
   <g id="patch_32">
    <path d="M 168.48133 318.04 
L 171.712394 318.04 
L 171.712394 318.04 
L 168.48133 318.04 
z
" clip-path="url(#p176a56440b)" style="fill: #87ceeb; stroke: #000000; stroke-linejoin: miter"/>
   </g>
   <g id="patch_33">
    <path d="M 171.712394 318.04 
L 174.943459 318.04 
L 174.943459 318.04 
L 171.712394 318.04 
z
" clip-path="url(#p176a56440b)" style="fill: #87ceeb; stroke: #000000; stroke-linejoin: miter"/>
   </g>
   <g id="patch_34">
    <path d="M 174.943459 318.04 
L 178.174524 318.04 
L 178.174524 318.04 
L 174.943459 318.04 
z
" clip-path="url(#p176a56440b)" style="fill: #87ceeb; stroke: #000000; stroke-linejoin: miter"/>
   </g>
   <g id="patch_35">
    <path d="M 178.174524 318.04 
L 181.405588 318.04 
L 181.405588 318.04 
L 178.174524 318.04 
z
" clip-path="url(#p176a56440b)" style="fill: #87ceeb; stroke: #000000; stroke-linejoin: miter"/>
   </g>
   <g id="patch_36">
    <path d="M 181.405588 318.04 
L 184.636653 318.04 
L 184.636653 318.04 
L 181.405588 318.04 
z
" clip-path="url(#p176a56440b)" style="fill: #87ceeb; stroke: #000000; stroke-linejoin: miter"/>
   </g>
   <g id="patch_37">
    <path d="M 184.636653 318.04 
L 187.867718 318.04 
L 187.867718 318.04 
L 184.636653 318.04 
z
" clip-path="url(#p176a56440b)" style="fill: #87ceeb; stroke: #000000; stroke-linejoin: miter"/>
   </g>
   <g id="patch_38">
    <path d="M 187.867718 318.04 
L 191.098782 318.04 
L 191.098782 311.276702 
L 187.867718 311.276702 
z
" clip-path="url(#p176a56440b)" style="fill: #87ceeb; stroke: #000000; stroke-linejoin: miter"/>
   </g>
   <g id="patch_39">
    <path d="M 191.098782 318.04 
L 194.329847 318.04 
L 194.329847 311.276702 
L 191.098782 311.276702 
z
" clip-path="url(#p176a56440b)" style="fill: #87ceeb; stroke: #000000; stroke-linejoin: miter"/>
   </g>
   <g id="patch_40">
    <path d="M 194.329847 318.04 
L 197.560912 318.04 
L 197.560912 318.04 
L 194.329847 318.04 
z
" clip-path="url(#p176a56440b)" style="fill: #87ceeb; stroke: #000000; stroke-linejoin: miter"/>
   </g>
   <g id="patch_41">
    <path d="M 197.560912 318.04 
L 200.791976 318.04 
L 200.791976 318.04 
L 197.560912 318.04 
z
" clip-path="url(#p176a56440b)" style="fill: #87ceeb; stroke: #000000; stroke-linejoin: miter"/>
   </g>
   <g id="patch_42">
    <path d="M 200.791976 318.04 
L 204.023041 318.04 
L 204.023041 318.04 
L 200.791976 318.04 
z
" clip-path="url(#p176a56440b)" style="fill: #87ceeb; stroke: #000000; stroke-linejoin: miter"/>
   </g>
   <g id="patch_43">
    <path d="M 204.023041 318.04 
L 207.254105 318.04 
L 207.254105 318.04 
L 204.023041 318.04 
z
" clip-path="url(#p176a56440b)" style="fill: #87ceeb; stroke: #000000; stroke-linejoin: miter"/>
   </g>
   <g id="patch_44">
    <path d="M 207.254105 318.04 
L 210.48517 318.04 
L 210.48517 318.04 
L 207.254105 318.04 
z
" clip-path="url(#p176a56440b)" style="fill: #87ceeb; stroke: #000000; stroke-linejoin: miter"/>
   </g>
   <g id="patch_45">
    <path d="M 210.48517 318.04 
L 213.716235 318.04 
L 213.716235 318.04 
L 210.48517 318.04 
z
" clip-path="url(#p176a56440b)" style="fill: #87ceeb; stroke: #000000; stroke-linejoin: miter"/>
   </g>
   <g id="patch_46">
    <path d="M 213.716235 318.04 
L 216.947299 318.04 
L 216.947299 318.04 
L 213.716235 318.04 
z
" clip-path="url(#p176a56440b)" style="fill: #87ceeb; stroke: #000000; stroke-linejoin: miter"/>
   </g>
   <g id="patch_47">
    <path d="M 216.947299 318.04 
L 220.178364 318.04 
L 220.178364 311.276702 
L 216.947299 311.276702 
z
" clip-path="url(#p176a56440b)" style="fill: #87ceeb; stroke: #000000; stroke-linejoin: miter"/>
   </g>
   <g id="patch_48">
    <path d="M 220.178364 318.04 
L 223.409429 318.04 
L 223.409429 318.04 
L 220.178364 318.04 
z
" clip-path="url(#p176a56440b)" style="fill: #87ceeb; stroke: #000000; stroke-linejoin: miter"/>
   </g>
   <g id="patch_49">
    <path d="M 223.409429 318.04 
L 226.640493 318.04 
L 226.640493 311.276702 
L 223.409429 311.276702 
z
" clip-path="url(#p176a56440b)" style="fill: #87ceeb; stroke: #000000; stroke-linejoin: miter"/>
   </g>
   <g id="patch_50">
    <path d="M 226.640493 318.04 
L 229.871558 318.04 
L 229.871558 311.276702 
L 226.640493 311.276702 
z
" clip-path="url(#p176a56440b)" style="fill: #87ceeb; stroke: #000000; stroke-linejoin: miter"/>
   </g>
   <g id="patch_51">
    <path d="M 229.871558 318.04 
L 233.102623 318.04 
L 233.102623 318.04 
L 229.871558 318.04 
z
" clip-path="url(#p176a56440b)" style="fill: #87ceeb; stroke: #000000; stroke-linejoin: miter"/>
   </g>
   <g id="patch_52">
    <path d="M 233.102623 318.04 
L 236.333687 318.04 
L 236.333687 318.04 
L 233.102623 318.04 
z
" clip-path="url(#p176a56440b)" style="fill: #87ceeb; stroke: #000000; stroke-linejoin: miter"/>
   </g>
   <g id="patch_53">
    <path d="M 236.333687 318.04 
L 239.564752 318.04 
L 239.564752 318.04 
L 236.333687 318.04 
z
" clip-path="url(#p176a56440b)" style="fill: #87ceeb; stroke: #000000; stroke-linejoin: miter"/>
   </g>
   <g id="patch_54">
    <path d="M 239.564752 318.04 
L 242.795817 318.04 
L 242.795817 318.04 
L 239.564752 318.04 
z
" clip-path="url(#p176a56440b)" style="fill: #87ceeb; stroke: #000000; stroke-linejoin: miter"/>
   </g>
   <g id="patch_55">
    <path d="M 242.795817 318.04 
L 246.026881 318.04 
L 246.026881 311.276702 
L 242.795817 311.276702 
z
" clip-path="url(#p176a56440b)" style="fill: #87ceeb; stroke: #000000; stroke-linejoin: miter"/>
   </g>
   <g id="patch_56">
    <path d="M 246.026881 318.04 
L 249.257946 318.04 
L 249.257946 318.04 
L 246.026881 318.04 
z
" clip-path="url(#p176a56440b)" style="fill: #87ceeb; stroke: #000000; stroke-linejoin: miter"/>
   </g>
   <g id="patch_57">
    <path d="M 249.257946 318.04 
L 252.489011 318.04 
L 252.489011 318.04 
L 249.257946 318.04 
z
" clip-path="url(#p176a56440b)" style="fill: #87ceeb; stroke: #000000; stroke-linejoin: miter"/>
   </g>
   <g id="patch_58">
    <path d="M 252.489011 318.04 
L 255.720075 318.04 
L 255.720075 318.04 
L 252.489011 318.04 
z
" clip-path="url(#p176a56440b)" style="fill: #87ceeb; stroke: #000000; stroke-linejoin: miter"/>
   </g>
   <g id="patch_59">
    <path d="M 255.720075 318.04 
L 258.95114 318.04 
L 258.95114 318.04 
L 255.720075 318.04 
z
" clip-path="url(#p176a56440b)" style="fill: #87ceeb; stroke: #000000; stroke-linejoin: miter"/>
   </g>
   <g id="patch_60">
    <path d="M 258.95114 318.04 
L 262.182205 318.04 
L 262.182205 311.276702 
L 258.95114 311.276702 
z
" clip-path="url(#p176a56440b)" style="fill: #87ceeb; stroke: #000000; stroke-linejoin: miter"/>
   </g>
   <g id="patch_61">
    <path d="M 262.182205 318.04 
L 265.413269 318.04 
L 265.413269 318.04 
L 262.182205 318.04 
z
" clip-path="url(#p176a56440b)" style="fill: #87ceeb; stroke: #000000; stroke-linejoin: miter"/>
   </g>
   <g id="patch_62">
    <path d="M 265.413269 318.04 
L 268.644334 318.04 
L 268.644334 318.04 
L 265.413269 318.04 
z
" clip-path="url(#p176a56440b)" style="fill: #87ceeb; stroke: #000000; stroke-linejoin: miter"/>
   </g>
   <g id="patch_63">
    <path d="M 268.644334 318.04 
L 271.875399 318.04 
L 271.875399 318.04 
L 268.644334 318.04 
z
" clip-path="url(#p176a56440b)" style="fill: #87ceeb; stroke: #000000; stroke-linejoin: miter"/>
   </g>
   <g id="patch_64">
    <path d="M 271.875399 318.04 
L 275.106463 318.04 
L 275.106463 318.04 
L 271.875399 318.04 
z
" clip-path="url(#p176a56440b)" style="fill: #87ceeb; stroke: #000000; stroke-linejoin: miter"/>
   </g>
   <g id="patch_65">
    <path d="M 275.106463 318.04 
L 278.337528 318.04 
L 278.337528 318.04 
L 275.106463 318.04 
z
" clip-path="url(#p176a56440b)" style="fill: #87ceeb; stroke: #000000; stroke-linejoin: miter"/>
   </g>
   <g id="patch_66">
    <path d="M 278.337528 318.04 
L 281.568593 318.04 
L 281.568593 311.276702 
L 278.337528 311.276702 
z
" clip-path="url(#p176a56440b)" style="fill: #87ceeb; stroke: #000000; stroke-linejoin: miter"/>
   </g>
   <g id="patch_67">
    <path d="M 281.568593 318.04 
L 284.799657 318.04 
L 284.799657 318.04 
L 281.568593 318.04 
z
" clip-path="url(#p176a56440b)" style="fill: #87ceeb; stroke: #000000; stroke-linejoin: miter"/>
   </g>
   <g id="patch_68">
    <path d="M 284.799657 318.04 
L 288.030722 318.04 
L 288.030722 318.04 
L 284.799657 318.04 
z
" clip-path="url(#p176a56440b)" style="fill: #87ceeb; stroke: #000000; stroke-linejoin: miter"/>
   </g>
   <g id="patch_69">
    <path d="M 288.030722 318.04 
L 291.261787 318.04 
L 291.261787 318.04 
L 288.030722 318.04 
z
" clip-path="url(#p176a56440b)" style="fill: #87ceeb; stroke: #000000; stroke-linejoin: miter"/>
   </g>
   <g id="patch_70">
    <path d="M 291.261787 318.04 
L 294.492851 318.04 
L 294.492851 318.04 
L 291.261787 318.04 
z
" clip-path="url(#p176a56440b)" style="fill: #87ceeb; stroke: #000000; stroke-linejoin: miter"/>
   </g>
   <g id="patch_71">
    <path d="M 294.492851 318.04 
L 297.723916 318.04 
L 297.723916 318.04 
L 294.492851 318.04 
z
" clip-path="url(#p176a56440b)" style="fill: #87ceeb; stroke: #000000; stroke-linejoin: miter"/>
   </g>
   <g id="patch_72">
    <path d="M 297.723916 318.04 
L 300.954981 318.04 
L 300.954981 311.276702 
L 297.723916 311.276702 
z
" clip-path="url(#p176a56440b)" style="fill: #87ceeb; stroke: #000000; stroke-linejoin: miter"/>
   </g>
   <g id="patch_73">
    <path d="M 300.954981 318.04 
L 304.186045 318.04 
L 304.186045 318.04 
L 300.954981 318.04 
z
" clip-path="url(#p176a56440b)" style="fill: #87ceeb; stroke: #000000; stroke-linejoin: miter"/>
   </g>
   <g id="patch_74">
    <path d="M 304.186045 318.04 
L 307.41711 318.04 
L 307.41711 318.04 
L 304.186045 318.04 
z
" clip-path="url(#p176a56440b)" style="fill: #87ceeb; stroke: #000000; stroke-linejoin: miter"/>
   </g>
   <g id="patch_75">
    <path d="M 307.41711 318.04 
L 310.648175 318.04 
L 310.648175 311.276702 
L 307.41711 311.276702 
z
" clip-path="url(#p176a56440b)" style="fill: #87ceeb; stroke: #000000; stroke-linejoin: miter"/>
   </g>
   <g id="patch_76">
    <path d="M 310.648175 318.04 
L 313.879239 318.04 
L 313.879239 318.04 
L 310.648175 318.04 
z
" clip-path="url(#p176a56440b)" style="fill: #87ceeb; stroke: #000000; stroke-linejoin: miter"/>
   </g>
   <g id="patch_77">
    <path d="M 313.879239 318.04 
L 317.110304 318.04 
L 317.110304 318.04 
L 313.879239 318.04 
z
" clip-path="url(#p176a56440b)" style="fill: #87ceeb; stroke: #000000; stroke-linejoin: miter"/>
   </g>
   <g id="patch_78">
    <path d="M 317.110304 318.04 
L 320.341368 318.04 
L 320.341368 318.04 
L 317.110304 318.04 
z
" clip-path="url(#p176a56440b)" style="fill: #87ceeb; stroke: #000000; stroke-linejoin: miter"/>
   </g>
   <g id="patch_79">
    <path d="M 320.341368 318.04 
L 323.572433 318.04 
L 323.572433 318.04 
L 320.341368 318.04 
z
" clip-path="url(#p176a56440b)" style="fill: #87ceeb; stroke: #000000; stroke-linejoin: miter"/>
   </g>
   <g id="patch_80">
    <path d="M 323.572433 318.04 
L 326.803498 318.04 
L 326.803498 318.04 
L 323.572433 318.04 
z
" clip-path="url(#p176a56440b)" style="fill: #87ceeb; stroke: #000000; stroke-linejoin: miter"/>
   </g>
   <g id="patch_81">
    <path d="M 326.803498 318.04 
L 330.034562 318.04 
L 330.034562 318.04 
L 326.803498 318.04 
z
" clip-path="url(#p176a56440b)" style="fill: #87ceeb; stroke: #000000; stroke-linejoin: miter"/>
   </g>
   <g id="patch_82">
    <path d="M 330.034562 318.04 
L 333.265627 318.04 
L 333.265627 318.04 
L 330.034562 318.04 
z
" clip-path="url(#p176a56440b)" style="fill: #87ceeb; stroke: #000000; stroke-linejoin: miter"/>
   </g>
   <g id="patch_83">
    <path d="M 333.265627 318.04 
L 336.496692 318.04 
L 336.496692 318.04 
L 333.265627 318.04 
z
" clip-path="url(#p176a56440b)" style="fill: #87ceeb; stroke: #000000; stroke-linejoin: miter"/>
   </g>
   <g id="patch_84">
    <path d="M 336.496692 318.04 
L 339.727756 318.04 
L 339.727756 318.04 
L 336.496692 318.04 
z
" clip-path="url(#p176a56440b)" style="fill: #87ceeb; stroke: #000000; stroke-linejoin: miter"/>
   </g>
   <g id="patch_85">
    <path d="M 339.727756 318.04 
L 342.958821 318.04 
L 342.958821 318.04 
L 339.727756 318.04 
z
" clip-path="url(#p176a56440b)" style="fill: #87ceeb; stroke: #000000; stroke-linejoin: miter"/>
   </g>
   <g id="patch_86">
    <path d="M 342.958821 318.04 
L 346.189886 318.04 
L 346.189886 318.04 
L 342.958821 318.04 
z
" clip-path="url(#p176a56440b)" style="fill: #87ceeb; stroke: #000000; stroke-linejoin: miter"/>
   </g>
   <g id="patch_87">
    <path d="M 346.189886 318.04 
L 349.42095 318.04 
L 349.42095 318.04 
L 346.189886 318.04 
z
" clip-path="url(#p176a56440b)" style="fill: #87ceeb; stroke: #000000; stroke-linejoin: miter"/>
   </g>
   <g id="patch_88">
    <path d="M 349.42095 318.04 
L 352.652015 318.04 
L 352.652015 318.04 
L 349.42095 318.04 
z
" clip-path="url(#p176a56440b)" style="fill: #87ceeb; stroke: #000000; stroke-linejoin: miter"/>
   </g>
   <g id="patch_89">
    <path d="M 352.652015 318.04 
L 355.88308 318.04 
L 355.88308 318.04 
L 352.652015 318.04 
z
" clip-path="url(#p176a56440b)" style="fill: #87ceeb; stroke: #000000; stroke-linejoin: miter"/>
   </g>
   <g id="patch_90">
    <path d="M 355.88308 318.04 
L 359.114144 318.04 
L 359.114144 318.04 
L 355.88308 318.04 
z
" clip-path="url(#p176a56440b)" style="fill: #87ceeb; stroke: #000000; stroke-linejoin: miter"/>
   </g>
   <g id="patch_91">
    <path d="M 359.114144 318.04 
L 362.345209 318.04 
L 362.345209 318.04 
L 359.114144 318.04 
z
" clip-path="url(#p176a56440b)" style="fill: #87ceeb; stroke: #000000; stroke-linejoin: miter"/>
   </g>
   <g id="patch_92">
    <path d="M 362.345209 318.04 
L 365.576274 318.04 
L 365.576274 318.04 
L 362.345209 318.04 
z
" clip-path="url(#p176a56440b)" style="fill: #87ceeb; stroke: #000000; stroke-linejoin: miter"/>
   </g>
   <g id="patch_93">
    <path d="M 365.576274 318.04 
L 368.807338 318.04 
L 368.807338 318.04 
L 365.576274 318.04 
z
" clip-path="url(#p176a56440b)" style="fill: #87ceeb; stroke: #000000; stroke-linejoin: miter"/>
   </g>
   <g id="patch_94">
    <path d="M 368.807338 318.04 
L 372.038403 318.04 
L 372.038403 318.04 
L 368.807338 318.04 
z
" clip-path="url(#p176a56440b)" style="fill: #87ceeb; stroke: #000000; stroke-linejoin: miter"/>
   </g>
   <g id="patch_95">
    <path d="M 372.038403 318.04 
L 375.269468 318.04 
L 375.269468 318.04 
L 372.038403 318.04 
z
" clip-path="url(#p176a56440b)" style="fill: #87ceeb; stroke: #000000; stroke-linejoin: miter"/>
   </g>
   <g id="patch_96">
    <path d="M 375.269468 318.04 
L 378.500532 318.04 
L 378.500532 318.04 
L 375.269468 318.04 
z
" clip-path="url(#p176a56440b)" style="fill: #87ceeb; stroke: #000000; stroke-linejoin: miter"/>
   </g>
   <g id="patch_97">
    <path d="M 378.500532 318.04 
L 381.731597 318.04 
L 381.731597 318.04 
L 378.500532 318.04 
z
" clip-path="url(#p176a56440b)" style="fill: #87ceeb; stroke: #000000; stroke-linejoin: miter"/>
   </g>
   <g id="patch_98">
    <path d="M 381.731597 318.04 
L 384.962662 318.04 
L 384.962662 318.04 
L 381.731597 318.04 
z
" clip-path="url(#p176a56440b)" style="fill: #87ceeb; stroke: #000000; stroke-linejoin: miter"/>
   </g>
   <g id="patch_99">
    <path d="M 384.962662 318.04 
L 388.193726 318.04 
L 388.193726 318.04 
L 384.962662 318.04 
z
" clip-path="url(#p176a56440b)" style="fill: #87ceeb; stroke: #000000; stroke-linejoin: miter"/>
   </g>
   <g id="patch_100">
    <path d="M 388.193726 318.04 
L 391.424791 318.04 
L 391.424791 318.04 
L 388.193726 318.04 
z
" clip-path="url(#p176a56440b)" style="fill: #87ceeb; stroke: #000000; stroke-linejoin: miter"/>
   </g>
   <g id="patch_101">
    <path d="M 391.424791 318.04 
L 394.655856 318.04 
L 394.655856 318.04 
L 391.424791 318.04 
z
" clip-path="url(#p176a56440b)" style="fill: #87ceeb; stroke: #000000; stroke-linejoin: miter"/>
   </g>
   <g id="patch_102">
    <path d="M 394.655856 318.04 
L 397.88692 318.04 
L 397.88692 318.04 
L 394.655856 318.04 
z
" clip-path="url(#p176a56440b)" style="fill: #87ceeb; stroke: #000000; stroke-linejoin: miter"/>
   </g>
   <g id="patch_103">
    <path d="M 397.88692 318.04 
L 401.117985 318.04 
L 401.117985 318.04 
L 397.88692 318.04 
z
" clip-path="url(#p176a56440b)" style="fill: #87ceeb; stroke: #000000; stroke-linejoin: miter"/>
   </g>
   <g id="patch_104">
    <path d="M 401.117985 318.04 
L 404.34905 318.04 
L 404.34905 318.04 
L 401.117985 318.04 
z
" clip-path="url(#p176a56440b)" style="fill: #87ceeb; stroke: #000000; stroke-linejoin: miter"/>
   </g>
   <g id="patch_105">
    <path d="M 404.34905 318.04 
L 407.580114 318.04 
L 407.580114 318.04 
L 404.34905 318.04 
z
" clip-path="url(#p176a56440b)" style="fill: #87ceeb; stroke: #000000; stroke-linejoin: miter"/>
   </g>
   <g id="patch_106">
    <path d="M 407.580114 318.04 
L 410.811179 318.04 
L 410.811179 318.04 
L 407.580114 318.04 
z
" clip-path="url(#p176a56440b)" style="fill: #87ceeb; stroke: #000000; stroke-linejoin: miter"/>
   </g>
   <g id="patch_107">
    <path d="M 410.811179 318.04 
L 414.042244 318.04 
L 414.042244 318.04 
L 410.811179 318.04 
z
" clip-path="url(#p176a56440b)" style="fill: #87ceeb; stroke: #000000; stroke-linejoin: miter"/>
   </g>
   <g id="patch_108">
    <path d="M 414.042244 318.04 
L 417.273308 318.04 
L 417.273308 318.04 
L 414.042244 318.04 
z
" clip-path="url(#p176a56440b)" style="fill: #87ceeb; stroke: #000000; stroke-linejoin: miter"/>
   </g>
   <g id="patch_109">
    <path d="M 417.273308 318.04 
L 420.504373 318.04 
L 420.504373 318.04 
L 417.273308 318.04 
z
" clip-path="url(#p176a56440b)" style="fill: #87ceeb; stroke: #000000; stroke-linejoin: miter"/>
   </g>
   <g id="patch_110">
    <path d="M 420.504373 318.04 
L 423.735438 318.04 
L 423.735438 311.276702 
L 420.504373 311.276702 
z
" clip-path="url(#p176a56440b)" style="fill: #87ceeb; stroke: #000000; stroke-linejoin: miter"/>
   </g>
   <g id="patch_111">
    <path d="M 423.735438 318.04 
L 426.966502 318.04 
L 426.966502 318.04 
L 423.735438 318.04 
z
" clip-path="url(#p176a56440b)" style="fill: #87ceeb; stroke: #000000; stroke-linejoin: miter"/>
   </g>
   <g id="patch_112">
    <path d="M 426.966502 318.04 
L 430.197567 318.04 
L 430.197567 318.04 
L 426.966502 318.04 
z
" clip-path="url(#p176a56440b)" style="fill: #87ceeb; stroke: #000000; stroke-linejoin: miter"/>
   </g>
   <g id="patch_113">
    <path d="M 430.197567 318.04 
L 433.428632 318.04 
L 433.428632 318.04 
L 430.197567 318.04 
z
" clip-path="url(#p176a56440b)" style="fill: #87ceeb; stroke: #000000; stroke-linejoin: miter"/>
   </g>
   <g id="patch_114">
    <path d="M 433.428632 318.04 
L 436.659696 318.04 
L 436.659696 318.04 
L 433.428632 318.04 
z
" clip-path="url(#p176a56440b)" style="fill: #87ceeb; stroke: #000000; stroke-linejoin: miter"/>
   </g>
   <g id="patch_115">
    <path d="M 436.659696 318.04 
L 439.890761 318.04 
L 439.890761 318.04 
L 436.659696 318.04 
z
" clip-path="url(#p176a56440b)" style="fill: #87ceeb; stroke: #000000; stroke-linejoin: miter"/>
   </g>
   <g id="patch_116">
    <path d="M 439.890761 318.04 
L 443.121825 318.04 
L 443.121825 318.04 
L 439.890761 318.04 
z
" clip-path="url(#p176a56440b)" style="fill: #87ceeb; stroke: #000000; stroke-linejoin: miter"/>
   </g>
   <g id="patch_117">
    <path d="M 443.121825 318.04 
L 446.35289 318.04 
L 446.35289 318.04 
L 443.121825 318.04 
z
" clip-path="url(#p176a56440b)" style="fill: #87ceeb; stroke: #000000; stroke-linejoin: miter"/>
   </g>
   <g id="patch_118">
    <path d="M 446.35289 318.04 
L 449.583955 318.04 
L 449.583955 318.04 
L 446.35289 318.04 
z
" clip-path="url(#p176a56440b)" style="fill: #87ceeb; stroke: #000000; stroke-linejoin: miter"/>
   </g>
   <g id="patch_119">
    <path d="M 449.583955 318.04 
L 452.815019 318.04 
L 452.815019 318.04 
L 449.583955 318.04 
z
" clip-path="url(#p176a56440b)" style="fill: #87ceeb; stroke: #000000; stroke-linejoin: miter"/>
   </g>
   <g id="patch_120">
    <path d="M 452.815019 318.04 
L 456.046084 318.04 
L 456.046084 318.04 
L 452.815019 318.04 
z
" clip-path="url(#p176a56440b)" style="fill: #87ceeb; stroke: #000000; stroke-linejoin: miter"/>
   </g>
   <g id="patch_121">
    <path d="M 456.046084 318.04 
L 459.277149 318.04 
L 459.277149 318.04 
L 456.046084 318.04 
z
" clip-path="url(#p176a56440b)" style="fill: #87ceeb; stroke: #000000; stroke-linejoin: miter"/>
   </g>
   <g id="patch_122">
    <path d="M 459.277149 318.04 
L 462.508213 318.04 
L 462.508213 318.04 
L 459.277149 318.04 
z
" clip-path="url(#p176a56440b)" style="fill: #87ceeb; stroke: #000000; stroke-linejoin: miter"/>
   </g>
   <g id="patch_123">
    <path d="M 462.508213 318.04 
L 465.739278 318.04 
L 465.739278 318.04 
L 462.508213 318.04 
z
" clip-path="url(#p176a56440b)" style="fill: #87ceeb; stroke: #000000; stroke-linejoin: miter"/>
   </g>
   <g id="patch_124">
    <path d="M 465.739278 318.04 
L 468.970343 318.04 
L 468.970343 318.04 
L 465.739278 318.04 
z
" clip-path="url(#p176a56440b)" style="fill: #87ceeb; stroke: #000000; stroke-linejoin: miter"/>
   </g>
   <g id="patch_125">
    <path d="M 468.970343 318.04 
L 472.201407 318.04 
L 472.201407 318.04 
L 468.970343 318.04 
z
" clip-path="url(#p176a56440b)" style="fill: #87ceeb; stroke: #000000; stroke-linejoin: miter"/>
   </g>
   <g id="patch_126">
    <path d="M 472.201407 318.04 
L 475.432472 318.04 
L 475.432472 318.04 
L 472.201407 318.04 
z
" clip-path="url(#p176a56440b)" style="fill: #87ceeb; stroke: #000000; stroke-linejoin: miter"/>
   </g>
   <g id="patch_127">
    <path d="M 475.432472 318.04 
L 478.663537 318.04 
L 478.663537 318.04 
L 475.432472 318.04 
z
" clip-path="url(#p176a56440b)" style="fill: #87ceeb; stroke: #000000; stroke-linejoin: miter"/>
   </g>
   <g id="patch_128">
    <path d="M 478.663537 318.04 
L 481.894601 318.04 
L 481.894601 318.04 
L 478.663537 318.04 
z
" clip-path="url(#p176a56440b)" style="fill: #87ceeb; stroke: #000000; stroke-linejoin: miter"/>
   </g>
   <g id="patch_129">
    <path d="M 481.894601 318.04 
L 485.125666 318.04 
L 485.125666 318.04 
L 481.894601 318.04 
z
" clip-path="url(#p176a56440b)" style="fill: #87ceeb; stroke: #000000; stroke-linejoin: miter"/>
   </g>
   <g id="patch_130">
    <path d="M 485.125666 318.04 
L 488.356731 318.04 
L 488.356731 318.04 
L 485.125666 318.04 
z
" clip-path="url(#p176a56440b)" style="fill: #87ceeb; stroke: #000000; stroke-linejoin: miter"/>
   </g>
   <g id="patch_131">
    <path d="M 488.356731 318.04 
L 491.587795 318.04 
L 491.587795 318.04 
L 488.356731 318.04 
z
" clip-path="url(#p176a56440b)" style="fill: #87ceeb; stroke: #000000; stroke-linejoin: miter"/>
   </g>
   <g id="patch_132">
    <path d="M 491.587795 318.04 
L 494.81886 318.04 
L 494.81886 318.04 
L 491.587795 318.04 
z
" clip-path="url(#p176a56440b)" style="fill: #87ceeb; stroke: #000000; stroke-linejoin: miter"/>
   </g>
   <g id="patch_133">
    <path d="M 494.81886 318.04 
L 498.049925 318.04 
L 498.049925 318.04 
L 494.81886 318.04 
z
" clip-path="url(#p176a56440b)" style="fill: #87ceeb; stroke: #000000; stroke-linejoin: miter"/>
   </g>
   <g id="patch_134">
    <path d="M 498.049925 318.04 
L 501.280989 318.04 
L 501.280989 318.04 
L 498.049925 318.04 
z
" clip-path="url(#p176a56440b)" style="fill: #87ceeb; stroke: #000000; stroke-linejoin: miter"/>
   </g>
   <g id="patch_135">
    <path d="M 501.280989 318.04 
L 504.512054 318.04 
L 504.512054 318.04 
L 501.280989 318.04 
z
" clip-path="url(#p176a56440b)" style="fill: #87ceeb; stroke: #000000; stroke-linejoin: miter"/>
   </g>
   <g id="patch_136">
    <path d="M 504.512054 318.04 
L 507.743119 318.04 
L 507.743119 318.04 
L 504.512054 318.04 
z
" clip-path="url(#p176a56440b)" style="fill: #87ceeb; stroke: #000000; stroke-linejoin: miter"/>
   </g>
   <g id="patch_137">
    <path d="M 507.743119 318.04 
L 510.974183 318.04 
L 510.974183 318.04 
L 507.743119 318.04 
z
" clip-path="url(#p176a56440b)" style="fill: #87ceeb; stroke: #000000; stroke-linejoin: miter"/>
   </g>
   <g id="patch_138">
    <path d="M 510.974183 318.04 
L 514.205248 318.04 
L 514.205248 318.04 
L 510.974183 318.04 
z
" clip-path="url(#p176a56440b)" style="fill: #87ceeb; stroke: #000000; stroke-linejoin: miter"/>
   </g>
   <g id="patch_139">
    <path d="M 514.205248 318.04 
L 517.436313 318.04 
L 517.436313 318.04 
L 514.205248 318.04 
z
" clip-path="url(#p176a56440b)" style="fill: #87ceeb; stroke: #000000; stroke-linejoin: miter"/>
   </g>
   <g id="patch_140">
    <path d="M 517.436313 318.04 
L 520.667377 318.04 
L 520.667377 318.04 
L 517.436313 318.04 
z
" clip-path="url(#p176a56440b)" style="fill: #87ceeb; stroke: #000000; stroke-linejoin: miter"/>
   </g>
   <g id="patch_141">
    <path d="M 520.667377 318.04 
L 523.898442 318.04 
L 523.898442 318.04 
L 520.667377 318.04 
z
" clip-path="url(#p176a56440b)" style="fill: #87ceeb; stroke: #000000; stroke-linejoin: miter"/>
   </g>
   <g id="patch_142">
    <path d="M 523.898442 318.04 
L 527.129507 318.04 
L 527.129507 318.04 
L 523.898442 318.04 
z
" clip-path="url(#p176a56440b)" style="fill: #87ceeb; stroke: #000000; stroke-linejoin: miter"/>
   </g>
   <g id="patch_143">
    <path d="M 527.129507 318.04 
L 530.360571 318.04 
L 530.360571 318.04 
L 527.129507 318.04 
z
" clip-path="url(#p176a56440b)" style="fill: #87ceeb; stroke: #000000; stroke-linejoin: miter"/>
   </g>
   <g id="patch_144">
    <path d="M 530.360571 318.04 
L 533.591636 318.04 
L 533.591636 318.04 
L 530.360571 318.04 
z
" clip-path="url(#p176a56440b)" style="fill: #87ceeb; stroke: #000000; stroke-linejoin: miter"/>
   </g>
   <g id="patch_145">
    <path d="M 533.591636 318.04 
L 536.822701 318.04 
L 536.822701 318.04 
L 533.591636 318.04 
z
" clip-path="url(#p176a56440b)" style="fill: #87ceeb; stroke: #000000; stroke-linejoin: miter"/>
   </g>
   <g id="patch_146">
    <path d="M 536.822701 318.04 
L 540.053765 318.04 
L 540.053765 318.04 
L 536.822701 318.04 
z
" clip-path="url(#p176a56440b)" style="fill: #87ceeb; stroke: #000000; stroke-linejoin: miter"/>
   </g>
   <g id="patch_147">
    <path d="M 540.053765 318.04 
L 543.28483 318.04 
L 543.28483 318.04 
L 540.053765 318.04 
z
" clip-path="url(#p176a56440b)" style="fill: #87ceeb; stroke: #000000; stroke-linejoin: miter"/>
   </g>
   <g id="patch_148">
    <path d="M 543.28483 318.04 
L 546.515895 318.04 
L 546.515895 318.04 
L 543.28483 318.04 
z
" clip-path="url(#p176a56440b)" style="fill: #87ceeb; stroke: #000000; stroke-linejoin: miter"/>
   </g>
   <g id="patch_149">
    <path d="M 546.515895 318.04 
L 549.746959 318.04 
L 549.746959 318.04 
L 546.515895 318.04 
z
" clip-path="url(#p176a56440b)" style="fill: #87ceeb; stroke: #000000; stroke-linejoin: miter"/>
   </g>
   <g id="patch_150">
    <path d="M 549.746959 318.04 
L 552.978024 318.04 
L 552.978024 318.04 
L 549.746959 318.04 
z
" clip-path="url(#p176a56440b)" style="fill: #87ceeb; stroke: #000000; stroke-linejoin: miter"/>
   </g>
   <g id="patch_151">
    <path d="M 552.978024 318.04 
L 556.209088 318.04 
L 556.209088 318.04 
L 552.978024 318.04 
z
" clip-path="url(#p176a56440b)" style="fill: #87ceeb; stroke: #000000; stroke-linejoin: miter"/>
   </g>
   <g id="patch_152">
    <path d="M 556.209088 318.04 
L 559.440153 318.04 
L 559.440153 318.04 
L 556.209088 318.04 
z
" clip-path="url(#p176a56440b)" style="fill: #87ceeb; stroke: #000000; stroke-linejoin: miter"/>
   </g>
   <g id="patch_153">
    <path d="M 559.440153 318.04 
L 562.671218 318.04 
L 562.671218 318.04 
L 559.440153 318.04 
z
" clip-path="url(#p176a56440b)" style="fill: #87ceeb; stroke: #000000; stroke-linejoin: miter"/>
   </g>
   <g id="patch_154">
    <path d="M 562.671218 318.04 
L 565.902282 318.04 
L 565.902282 318.04 
L 562.671218 318.04 
z
" clip-path="url(#p176a56440b)" style="fill: #87ceeb; stroke: #000000; stroke-linejoin: miter"/>
   </g>
   <g id="patch_155">
    <path d="M 565.902282 318.04 
L 569.133347 318.04 
L 569.133347 318.04 
L 565.902282 318.04 
z
" clip-path="url(#p176a56440b)" style="fill: #87ceeb; stroke: #000000; stroke-linejoin: miter"/>
   </g>
   <g id="patch_156">
    <path d="M 569.133347 318.04 
L 572.364412 318.04 
L 572.364412 318.04 
L 569.133347 318.04 
z
" clip-path="url(#p176a56440b)" style="fill: #87ceeb; stroke: #000000; stroke-linejoin: miter"/>
   </g>
   <g id="patch_157">
    <path d="M 572.364412 318.04 
L 575.595476 318.04 
L 575.595476 318.04 
L 572.364412 318.04 
z
" clip-path="url(#p176a56440b)" style="fill: #87ceeb; stroke: #000000; stroke-linejoin: miter"/>
   </g>
   <g id="patch_158">
    <path d="M 575.595476 318.04 
L 578.826541 318.04 
L 578.826541 318.04 
L 575.595476 318.04 
z
" clip-path="url(#p176a56440b)" style="fill: #87ceeb; stroke: #000000; stroke-linejoin: miter"/>
   </g>
   <g id="patch_159">
    <path d="M 578.826541 318.04 
L 582.057606 318.04 
L 582.057606 318.04 
L 578.826541 318.04 
z
" clip-path="url(#p176a56440b)" style="fill: #87ceeb; stroke: #000000; stroke-linejoin: miter"/>
   </g>
   <g id="patch_160">
    <path d="M 582.057606 318.04 
L 585.28867 318.04 
L 585.28867 318.04 
L 582.057606 318.04 
z
" clip-path="url(#p176a56440b)" style="fill: #87ceeb; stroke: #000000; stroke-linejoin: miter"/>
   </g>
   <g id="patch_161">
    <path d="M 585.28867 318.04 
L 588.519735 318.04 
L 588.519735 318.04 
L 585.28867 318.04 
z
" clip-path="url(#p176a56440b)" style="fill: #87ceeb; stroke: #000000; stroke-linejoin: miter"/>
   </g>
   <g id="patch_162">
    <path d="M 588.519735 318.04 
L 591.7508 318.04 
L 591.7508 318.04 
L 588.519735 318.04 
z
" clip-path="url(#p176a56440b)" style="fill: #87ceeb; stroke: #000000; stroke-linejoin: miter"/>
   </g>
   <g id="patch_163">
    <path d="M 591.7508 318.04 
L 594.981864 318.04 
L 594.981864 318.04 
L 591.7508 318.04 
z
" clip-path="url(#p176a56440b)" style="fill: #87ceeb; stroke: #000000; stroke-linejoin: miter"/>
   </g>
   <g id="patch_164">
    <path d="M 594.981864 318.04 
L 598.212929 318.04 
L 598.212929 318.04 
L 594.981864 318.04 
z
" clip-path="url(#p176a56440b)" style="fill: #87ceeb; stroke: #000000; stroke-linejoin: miter"/>
   </g>
   <g id="patch_165">
    <path d="M 598.212929 318.04 
L 601.443994 318.04 
L 601.443994 311.276702 
L 598.212929 311.276702 
z
" clip-path="url(#p176a56440b)" style="fill: #87ceeb; stroke: #000000; stroke-linejoin: miter"/>
   </g>
   <g id="patch_166">
    <path d="M 601.443994 318.04 
L 604.675058 318.04 
L 604.675058 318.04 
L 601.443994 318.04 
z
" clip-path="url(#p176a56440b)" style="fill: #87ceeb; stroke: #000000; stroke-linejoin: miter"/>
   </g>
   <g id="patch_167">
    <path d="M 604.675058 318.04 
L 607.906123 318.04 
L 607.906123 318.04 
L 604.675058 318.04 
z
" clip-path="url(#p176a56440b)" style="fill: #87ceeb; stroke: #000000; stroke-linejoin: miter"/>
   </g>
   <g id="patch_168">
    <path d="M 607.906123 318.04 
L 611.137188 318.04 
L 611.137188 318.04 
L 607.906123 318.04 
z
" clip-path="url(#p176a56440b)" style="fill: #87ceeb; stroke: #000000; stroke-linejoin: miter"/>
   </g>
   <g id="patch_169">
    <path d="M 611.137188 318.04 
L 614.368252 318.04 
L 614.368252 318.04 
L 611.137188 318.04 
z
" clip-path="url(#p176a56440b)" style="fill: #87ceeb; stroke: #000000; stroke-linejoin: miter"/>
   </g>
   <g id="patch_170">
    <path d="M 614.368252 318.04 
L 617.599317 318.04 
L 617.599317 318.04 
L 614.368252 318.04 
z
" clip-path="url(#p176a56440b)" style="fill: #87ceeb; stroke: #000000; stroke-linejoin: miter"/>
   </g>
   <g id="patch_171">
    <path d="M 617.599317 318.04 
L 620.830382 318.04 
L 620.830382 318.04 
L 617.599317 318.04 
z
" clip-path="url(#p176a56440b)" style="fill: #87ceeb; stroke: #000000; stroke-linejoin: miter"/>
   </g>
   <g id="patch_172">
    <path d="M 620.830382 318.04 
L 624.061446 318.04 
L 624.061446 318.04 
L 620.830382 318.04 
z
" clip-path="url(#p176a56440b)" style="fill: #87ceeb; stroke: #000000; stroke-linejoin: miter"/>
   </g>
   <g id="patch_173">
    <path d="M 624.061446 318.04 
L 627.292511 318.04 
L 627.292511 318.04 
L 624.061446 318.04 
z
" clip-path="url(#p176a56440b)" style="fill: #87ceeb; stroke: #000000; stroke-linejoin: miter"/>
   </g>
   <g id="patch_174">
    <path d="M 627.292511 318.04 
L 630.523576 318.04 
L 630.523576 318.04 
L 627.292511 318.04 
z
" clip-path="url(#p176a56440b)" style="fill: #87ceeb; stroke: #000000; stroke-linejoin: miter"/>
   </g>
   <g id="patch_175">
    <path d="M 630.523576 318.04 
L 633.75464 318.04 
L 633.75464 318.04 
L 630.523576 318.04 
z
" clip-path="url(#p176a56440b)" style="fill: #87ceeb; stroke: #000000; stroke-linejoin: miter"/>
   </g>
   <g id="patch_176">
    <path d="M 633.75464 318.04 
L 636.985705 318.04 
L 636.985705 318.04 
L 633.75464 318.04 
z
" clip-path="url(#p176a56440b)" style="fill: #87ceeb; stroke: #000000; stroke-linejoin: miter"/>
   </g>
   <g id="patch_177">
    <path d="M 636.985705 318.04 
L 640.21677 318.04 
L 640.21677 318.04 
L 636.985705 318.04 
z
" clip-path="url(#p176a56440b)" style="fill: #87ceeb; stroke: #000000; stroke-linejoin: miter"/>
   </g>
   <g id="patch_178">
    <path d="M 640.21677 318.04 
L 643.447834 318.04 
L 643.447834 318.04 
L 640.21677 318.04 
z
" clip-path="url(#p176a56440b)" style="fill: #87ceeb; stroke: #000000; stroke-linejoin: miter"/>
   </g>
   <g id="patch_179">
    <path d="M 643.447834 318.04 
L 646.678899 318.04 
L 646.678899 318.04 
L 643.447834 318.04 
z
" clip-path="url(#p176a56440b)" style="fill: #87ceeb; stroke: #000000; stroke-linejoin: miter"/>
   </g>
   <g id="patch_180">
    <path d="M 646.678899 318.04 
L 649.909964 318.04 
L 649.909964 318.04 
L 646.678899 318.04 
z
" clip-path="url(#p176a56440b)" style="fill: #87ceeb; stroke: #000000; stroke-linejoin: miter"/>
   </g>
   <g id="patch_181">
    <path d="M 649.909964 318.04 
L 653.141028 318.04 
L 653.141028 318.04 
L 649.909964 318.04 
z
" clip-path="url(#p176a56440b)" style="fill: #87ceeb; stroke: #000000; stroke-linejoin: miter"/>
   </g>
   <g id="patch_182">
    <path d="M 653.141028 318.04 
L 656.372093 318.04 
L 656.372093 318.04 
L 653.141028 318.04 
z
" clip-path="url(#p176a56440b)" style="fill: #87ceeb; stroke: #000000; stroke-linejoin: miter"/>
   </g>
   <g id="patch_183">
    <path d="M 656.372093 318.04 
L 659.603158 318.04 
L 659.603158 318.04 
L 656.372093 318.04 
z
" clip-path="url(#p176a56440b)" style="fill: #87ceeb; stroke: #000000; stroke-linejoin: miter"/>
   </g>
   <g id="patch_184">
    <path d="M 659.603158 318.04 
L 662.834222 318.04 
L 662.834222 318.04 
L 659.603158 318.04 
z
" clip-path="url(#p176a56440b)" style="fill: #87ceeb; stroke: #000000; stroke-linejoin: miter"/>
   </g>
   <g id="patch_185">
    <path d="M 662.834222 318.04 
L 666.065287 318.04 
L 666.065287 318.04 
L 662.834222 318.04 
z
" clip-path="url(#p176a56440b)" style="fill: #87ceeb; stroke: #000000; stroke-linejoin: miter"/>
   </g>
   <g id="patch_186">
    <path d="M 666.065287 318.04 
L 669.296351 318.04 
L 669.296351 318.04 
L 666.065287 318.04 
z
" clip-path="url(#p176a56440b)" style="fill: #87ceeb; stroke: #000000; stroke-linejoin: miter"/>
   </g>
   <g id="patch_187">
    <path d="M 669.296351 318.04 
L 672.527416 318.04 
L 672.527416 318.04 
L 669.296351 318.04 
z
" clip-path="url(#p176a56440b)" style="fill: #87ceeb; stroke: #000000; stroke-linejoin: miter"/>
   </g>
   <g id="patch_188">
    <path d="M 672.527416 318.04 
L 675.758481 318.04 
L 675.758481 318.04 
L 672.527416 318.04 
z
" clip-path="url(#p176a56440b)" style="fill: #87ceeb; stroke: #000000; stroke-linejoin: miter"/>
   </g>
   <g id="patch_189">
    <path d="M 675.758481 318.04 
L 678.989545 318.04 
L 678.989545 311.276702 
L 675.758481 311.276702 
z
" clip-path="url(#p176a56440b)" style="fill: #87ceeb; stroke: #000000; stroke-linejoin: miter"/>
   </g>
   <g id="matplotlib.axis_1">
    <g id="xtick_1">
     <g id="line2d_1">
      <defs>
       <path id="mcedc1dfc7d" d="M 0 0 
L 0 3.5 
" style="stroke: #000000; stroke-width: 0.8"/>
      </defs>
      <g>
       <use xlink:href="#mcedc1dfc7d" x="74.780455" y="318.04" style="stroke: #000000; stroke-width: 0.8"/>
      </g>
     </g>
     <g id="text_1">
      <!-- 0 -->
      <g transform="translate(71.599205 332.638438) scale(0.1 -0.1)">
       <defs>
        <path id="DejaVuSans-30" d="M 2034 4250 
Q 1547 4250 1301 3770 
Q 1056 3291 1056 2328 
Q 1056 1369 1301 889 
Q 1547 409 2034 409 
Q 2525 409 2770 889 
Q 3016 1369 3016 2328 
Q 3016 3291 2770 3770 
Q 2525 4250 2034 4250 
z
M 2034 4750 
Q 2819 4750 3233 4129 
Q 3647 3509 3647 2328 
Q 3647 1150 3233 529 
Q 2819 -91 2034 -91 
Q 1250 -91 836 529 
Q 422 1150 422 2328 
Q 422 3509 836 4129 
Q 1250 4750 2034 4750 
z
" transform="scale(0.015625)"/>
       </defs>
       <use xlink:href="#DejaVuSans-30"/>
      </g>
     </g>
    </g>
    <g id="xtick_2">
     <g id="line2d_2">
      <g>
       <use xlink:href="#mcedc1dfc7d" x="155.557071" y="318.04" style="stroke: #000000; stroke-width: 0.8"/>
      </g>
     </g>
     <g id="text_2">
      <!-- 2500 -->
      <g transform="translate(142.832071 332.638438) scale(0.1 -0.1)">
       <defs>
        <path id="DejaVuSans-32" d="M 1228 531 
L 3431 531 
L 3431 0 
L 469 0 
L 469 531 
Q 828 903 1448 1529 
Q 2069 2156 2228 2338 
Q 2531 2678 2651 2914 
Q 2772 3150 2772 3378 
Q 2772 3750 2511 3984 
Q 2250 4219 1831 4219 
Q 1534 4219 1204 4116 
Q 875 4013 500 3803 
L 500 4441 
Q 881 4594 1212 4672 
Q 1544 4750 1819 4750 
Q 2544 4750 2975 4387 
Q 3406 4025 3406 3419 
Q 3406 3131 3298 2873 
Q 3191 2616 2906 2266 
Q 2828 2175 2409 1742 
Q 1991 1309 1228 531 
z
" transform="scale(0.015625)"/>
        <path id="DejaVuSans-35" d="M 691 4666 
L 3169 4666 
L 3169 4134 
L 1269 4134 
L 1269 2991 
Q 1406 3038 1543 3061 
Q 1681 3084 1819 3084 
Q 2600 3084 3056 2656 
Q 3513 2228 3513 1497 
Q 3513 744 3044 326 
Q 2575 -91 1722 -91 
Q 1428 -91 1123 -41 
Q 819 9 494 109 
L 494 744 
Q 775 591 1075 516 
Q 1375 441 1709 441 
Q 2250 441 2565 725 
Q 2881 1009 2881 1497 
Q 2881 1984 2565 2268 
Q 2250 2553 1709 2553 
Q 1456 2553 1204 2497 
Q 953 2441 691 2322 
L 691 4666 
z
" transform="scale(0.015625)"/>
       </defs>
       <use xlink:href="#DejaVuSans-32"/>
       <use xlink:href="#DejaVuSans-35" x="63.623047"/>
       <use xlink:href="#DejaVuSans-30" x="127.246094"/>
       <use xlink:href="#DejaVuSans-30" x="190.869141"/>
      </g>
     </g>
    </g>
    <g id="xtick_3">
     <g id="line2d_3">
      <g>
       <use xlink:href="#mcedc1dfc7d" x="236.333687" y="318.04" style="stroke: #000000; stroke-width: 0.8"/>
      </g>
     </g>
     <g id="text_3">
      <!-- 5000 -->
      <g transform="translate(223.608687 332.638438) scale(0.1 -0.1)">
       <use xlink:href="#DejaVuSans-35"/>
       <use xlink:href="#DejaVuSans-30" x="63.623047"/>
       <use xlink:href="#DejaVuSans-30" x="127.246094"/>
       <use xlink:href="#DejaVuSans-30" x="190.869141"/>
      </g>
     </g>
    </g>
    <g id="xtick_4">
     <g id="line2d_4">
      <g>
       <use xlink:href="#mcedc1dfc7d" x="317.110304" y="318.04" style="stroke: #000000; stroke-width: 0.8"/>
      </g>
     </g>
     <g id="text_4">
      <!-- 7500 -->
      <g transform="translate(304.385304 332.638438) scale(0.1 -0.1)">
       <defs>
        <path id="DejaVuSans-37" d="M 525 4666 
L 3525 4666 
L 3525 4397 
L 1831 0 
L 1172 0 
L 2766 4134 
L 525 4134 
L 525 4666 
z
" transform="scale(0.015625)"/>
       </defs>
       <use xlink:href="#DejaVuSans-37"/>
       <use xlink:href="#DejaVuSans-35" x="63.623047"/>
       <use xlink:href="#DejaVuSans-30" x="127.246094"/>
       <use xlink:href="#DejaVuSans-30" x="190.869141"/>
      </g>
     </g>
    </g>
    <g id="xtick_5">
     <g id="line2d_5">
      <g>
       <use xlink:href="#mcedc1dfc7d" x="397.88692" y="318.04" style="stroke: #000000; stroke-width: 0.8"/>
      </g>
     </g>
     <g id="text_5">
      <!-- 10000 -->
      <g transform="translate(381.98067 332.638438) scale(0.1 -0.1)">
       <defs>
        <path id="DejaVuSans-31" d="M 794 531 
L 1825 531 
L 1825 4091 
L 703 3866 
L 703 4441 
L 1819 4666 
L 2450 4666 
L 2450 531 
L 3481 531 
L 3481 0 
L 794 0 
L 794 531 
z
" transform="scale(0.015625)"/>
       </defs>
       <use xlink:href="#DejaVuSans-31"/>
       <use xlink:href="#DejaVuSans-30" x="63.623047"/>
       <use xlink:href="#DejaVuSans-30" x="127.246094"/>
       <use xlink:href="#DejaVuSans-30" x="190.869141"/>
       <use xlink:href="#DejaVuSans-30" x="254.492188"/>
      </g>
     </g>
    </g>
    <g id="xtick_6">
     <g id="line2d_6">
      <g>
       <use xlink:href="#mcedc1dfc7d" x="478.663537" y="318.04" style="stroke: #000000; stroke-width: 0.8"/>
      </g>
     </g>
     <g id="text_6">
      <!-- 12500 -->
      <g transform="translate(462.757287 332.638438) scale(0.1 -0.1)">
       <use xlink:href="#DejaVuSans-31"/>
       <use xlink:href="#DejaVuSans-32" x="63.623047"/>
       <use xlink:href="#DejaVuSans-35" x="127.246094"/>
       <use xlink:href="#DejaVuSans-30" x="190.869141"/>
       <use xlink:href="#DejaVuSans-30" x="254.492188"/>
      </g>
     </g>
    </g>
    <g id="xtick_7">
     <g id="line2d_7">
      <g>
       <use xlink:href="#mcedc1dfc7d" x="559.440153" y="318.04" style="stroke: #000000; stroke-width: 0.8"/>
      </g>
     </g>
     <g id="text_7">
      <!-- 15000 -->
      <g transform="translate(543.533903 332.638438) scale(0.1 -0.1)">
       <use xlink:href="#DejaVuSans-31"/>
       <use xlink:href="#DejaVuSans-35" x="63.623047"/>
       <use xlink:href="#DejaVuSans-30" x="127.246094"/>
       <use xlink:href="#DejaVuSans-30" x="190.869141"/>
       <use xlink:href="#DejaVuSans-30" x="254.492188"/>
      </g>
     </g>
    </g>
    <g id="xtick_8">
     <g id="line2d_8">
      <g>
       <use xlink:href="#mcedc1dfc7d" x="640.21677" y="318.04" style="stroke: #000000; stroke-width: 0.8"/>
      </g>
     </g>
     <g id="text_8">
      <!-- 17500 -->
      <g transform="translate(624.31052 332.638438) scale(0.1 -0.1)">
       <use xlink:href="#DejaVuSans-31"/>
       <use xlink:href="#DejaVuSans-37" x="63.623047"/>
       <use xlink:href="#DejaVuSans-35" x="127.246094"/>
       <use xlink:href="#DejaVuSans-30" x="190.869141"/>
       <use xlink:href="#DejaVuSans-30" x="254.492188"/>
      </g>
     </g>
    </g>
    <g id="text_9">
     <!-- Assets (in millions) -->
     <g transform="translate(329.717031 346.316563) scale(0.1 -0.1)">
      <defs>
       <path id="DejaVuSans-41" d="M 2188 4044 
L 1331 1722 
L 3047 1722 
L 2188 4044 
z
M 1831 4666 
L 2547 4666 
L 4325 0 
L 3669 0 
L 3244 1197 
L 1141 1197 
L 716 0 
L 50 0 
L 1831 4666 
z
" transform="scale(0.015625)"/>
       <path id="DejaVuSans-73" d="M 2834 3397 
L 2834 2853 
Q 2591 2978 2328 3040 
Q 2066 3103 1784 3103 
Q 1356 3103 1142 2972 
Q 928 2841 928 2578 
Q 928 2378 1081 2264 
Q 1234 2150 1697 2047 
L 1894 2003 
Q 2506 1872 2764 1633 
Q 3022 1394 3022 966 
Q 3022 478 2636 193 
Q 2250 -91 1575 -91 
Q 1294 -91 989 -36 
Q 684 19 347 128 
L 347 722 
Q 666 556 975 473 
Q 1284 391 1588 391 
Q 1994 391 2212 530 
Q 2431 669 2431 922 
Q 2431 1156 2273 1281 
Q 2116 1406 1581 1522 
L 1381 1569 
Q 847 1681 609 1914 
Q 372 2147 372 2553 
Q 372 3047 722 3315 
Q 1072 3584 1716 3584 
Q 2034 3584 2315 3537 
Q 2597 3491 2834 3397 
z
" transform="scale(0.015625)"/>
       <path id="DejaVuSans-65" d="M 3597 1894 
L 3597 1613 
L 953 1613 
Q 991 1019 1311 708 
Q 1631 397 2203 397 
Q 2534 397 2845 478 
Q 3156 559 3463 722 
L 3463 178 
Q 3153 47 2828 -22 
Q 2503 -91 2169 -91 
Q 1331 -91 842 396 
Q 353 884 353 1716 
Q 353 2575 817 3079 
Q 1281 3584 2069 3584 
Q 2775 3584 3186 3129 
Q 3597 2675 3597 1894 
z
M 3022 2063 
Q 3016 2534 2758 2815 
Q 2500 3097 2075 3097 
Q 1594 3097 1305 2825 
Q 1016 2553 972 2059 
L 3022 2063 
z
" transform="scale(0.015625)"/>
       <path id="DejaVuSans-74" d="M 1172 4494 
L 1172 3500 
L 2356 3500 
L 2356 3053 
L 1172 3053 
L 1172 1153 
Q 1172 725 1289 603 
Q 1406 481 1766 481 
L 2356 481 
L 2356 0 
L 1766 0 
Q 1100 0 847 248 
Q 594 497 594 1153 
L 594 3053 
L 172 3053 
L 172 3500 
L 594 3500 
L 594 4494 
L 1172 4494 
z
" transform="scale(0.015625)"/>
       <path id="DejaVuSans-20" transform="scale(0.015625)"/>
       <path id="DejaVuSans-28" d="M 1984 4856 
Q 1566 4138 1362 3434 
Q 1159 2731 1159 2009 
Q 1159 1288 1364 580 
Q 1569 -128 1984 -844 
L 1484 -844 
Q 1016 -109 783 600 
Q 550 1309 550 2009 
Q 550 2706 781 3412 
Q 1013 4119 1484 4856 
L 1984 4856 
z
" transform="scale(0.015625)"/>
       <path id="DejaVuSans-69" d="M 603 3500 
L 1178 3500 
L 1178 0 
L 603 0 
L 603 3500 
z
M 603 4863 
L 1178 4863 
L 1178 4134 
L 603 4134 
L 603 4863 
z
" transform="scale(0.015625)"/>
       <path id="DejaVuSans-6e" d="M 3513 2113 
L 3513 0 
L 2938 0 
L 2938 2094 
Q 2938 2591 2744 2837 
Q 2550 3084 2163 3084 
Q 1697 3084 1428 2787 
Q 1159 2491 1159 1978 
L 1159 0 
L 581 0 
L 581 3500 
L 1159 3500 
L 1159 2956 
Q 1366 3272 1645 3428 
Q 1925 3584 2291 3584 
Q 2894 3584 3203 3211 
Q 3513 2838 3513 2113 
z
" transform="scale(0.015625)"/>
       <path id="DejaVuSans-6d" d="M 3328 2828 
Q 3544 3216 3844 3400 
Q 4144 3584 4550 3584 
Q 5097 3584 5394 3201 
Q 5691 2819 5691 2113 
L 5691 0 
L 5113 0 
L 5113 2094 
Q 5113 2597 4934 2840 
Q 4756 3084 4391 3084 
Q 3944 3084 3684 2787 
Q 3425 2491 3425 1978 
L 3425 0 
L 2847 0 
L 2847 2094 
Q 2847 2600 2669 2842 
Q 2491 3084 2119 3084 
Q 1678 3084 1418 2786 
Q 1159 2488 1159 1978 
L 1159 0 
L 581 0 
L 581 3500 
L 1159 3500 
L 1159 2956 
Q 1356 3278 1631 3431 
Q 1906 3584 2284 3584 
Q 2666 3584 2933 3390 
Q 3200 3197 3328 2828 
z
" transform="scale(0.015625)"/>
       <path id="DejaVuSans-6c" d="M 603 4863 
L 1178 4863 
L 1178 0 
L 603 0 
L 603 4863 
z
" transform="scale(0.015625)"/>
       <path id="DejaVuSans-6f" d="M 1959 3097 
Q 1497 3097 1228 2736 
Q 959 2375 959 1747 
Q 959 1119 1226 758 
Q 1494 397 1959 397 
Q 2419 397 2687 759 
Q 2956 1122 2956 1747 
Q 2956 2369 2687 2733 
Q 2419 3097 1959 3097 
z
M 1959 3584 
Q 2709 3584 3137 3096 
Q 3566 2609 3566 1747 
Q 3566 888 3137 398 
Q 2709 -91 1959 -91 
Q 1206 -91 779 398 
Q 353 888 353 1747 
Q 353 2609 779 3096 
Q 1206 3584 1959 3584 
z
" transform="scale(0.015625)"/>
       <path id="DejaVuSans-29" d="M 513 4856 
L 1013 4856 
Q 1481 4119 1714 3412 
Q 1947 2706 1947 2009 
Q 1947 1309 1714 600 
Q 1481 -109 1013 -844 
L 513 -844 
Q 928 -128 1133 580 
Q 1338 1288 1338 2009 
Q 1338 2731 1133 3434 
Q 928 4138 513 4856 
z
" transform="scale(0.015625)"/>
      </defs>
      <use xlink:href="#DejaVuSans-41"/>
      <use xlink:href="#DejaVuSans-73" x="68.408203"/>
      <use xlink:href="#DejaVuSans-73" x="120.507812"/>
      <use xlink:href="#DejaVuSans-65" x="172.607422"/>
      <use xlink:href="#DejaVuSans-74" x="234.130859"/>
      <use xlink:href="#DejaVuSans-73" x="273.339844"/>
      <use xlink:href="#DejaVuSans-20" x="325.439453"/>
      <use xlink:href="#DejaVuSans-28" x="357.226562"/>
      <use xlink:href="#DejaVuSans-69" x="396.240234"/>
      <use xlink:href="#DejaVuSans-6e" x="424.023438"/>
      <use xlink:href="#DejaVuSans-20" x="487.402344"/>
      <use xlink:href="#DejaVuSans-6d" x="519.189453"/>
      <use xlink:href="#DejaVuSans-69" x="616.601562"/>
      <use xlink:href="#DejaVuSans-6c" x="644.384766"/>
      <use xlink:href="#DejaVuSans-6c" x="672.167969"/>
      <use xlink:href="#DejaVuSans-69" x="699.951172"/>
      <use xlink:href="#DejaVuSans-6f" x="727.734375"/>
      <use xlink:href="#DejaVuSans-6e" x="788.916016"/>
      <use xlink:href="#DejaVuSans-73" x="852.294922"/>
      <use xlink:href="#DejaVuSans-29" x="904.394531"/>
     </g>
    </g>
   </g>
   <g id="matplotlib.axis_2">
    <g id="ytick_1">
     <g id="line2d_9">
      <path d="M 44.57 318.04 
L 709.2 318.04 
" clip-path="url(#p176a56440b)" style="fill: none; stroke-dasharray: 2.96,1.28; stroke-dashoffset: 0; stroke: #b0b0b0; stroke-opacity: 0.7; stroke-width: 0.8"/>
     </g>
     <g id="line2d_10">
      <defs>
       <path id="m82892bd638" d="M 0 0 
L -3.5 0 
" style="stroke: #000000; stroke-width: 0.8"/>
      </defs>
      <g>
       <use xlink:href="#m82892bd638" x="44.57" y="318.04" style="stroke: #000000; stroke-width: 0.8"/>
      </g>
     </g>
     <g id="text_10">
      <!-- 0 -->
      <g transform="translate(31.2075 321.839219) scale(0.1 -0.1)">
       <use xlink:href="#DejaVuSans-30"/>
      </g>
     </g>
    </g>
    <g id="ytick_2">
     <g id="line2d_11">
      <path d="M 44.57 284.223508 
L 709.2 284.223508 
" clip-path="url(#p176a56440b)" style="fill: none; stroke-dasharray: 2.96,1.28; stroke-dashoffset: 0; stroke: #b0b0b0; stroke-opacity: 0.7; stroke-width: 0.8"/>
     </g>
     <g id="line2d_12">
      <g>
       <use xlink:href="#m82892bd638" x="44.57" y="284.223508" style="stroke: #000000; stroke-width: 0.8"/>
      </g>
     </g>
     <g id="text_11">
      <!-- 5 -->
      <g transform="translate(31.2075 288.022726) scale(0.1 -0.1)">
       <use xlink:href="#DejaVuSans-35"/>
      </g>
     </g>
    </g>
    <g id="ytick_3">
     <g id="line2d_13">
      <path d="M 44.57 250.407015 
L 709.2 250.407015 
" clip-path="url(#p176a56440b)" style="fill: none; stroke-dasharray: 2.96,1.28; stroke-dashoffset: 0; stroke: #b0b0b0; stroke-opacity: 0.7; stroke-width: 0.8"/>
     </g>
     <g id="line2d_14">
      <g>
       <use xlink:href="#m82892bd638" x="44.57" y="250.407015" style="stroke: #000000; stroke-width: 0.8"/>
      </g>
     </g>
     <g id="text_12">
      <!-- 10 -->
      <g transform="translate(24.845 254.206234) scale(0.1 -0.1)">
       <use xlink:href="#DejaVuSans-31"/>
       <use xlink:href="#DejaVuSans-30" x="63.623047"/>
      </g>
     </g>
    </g>
    <g id="ytick_4">
     <g id="line2d_15">
      <path d="M 44.57 216.590523 
L 709.2 216.590523 
" clip-path="url(#p176a56440b)" style="fill: none; stroke-dasharray: 2.96,1.28; stroke-dashoffset: 0; stroke: #b0b0b0; stroke-opacity: 0.7; stroke-width: 0.8"/>
     </g>
     <g id="line2d_16">
      <g>
       <use xlink:href="#m82892bd638" x="44.57" y="216.590523" style="stroke: #000000; stroke-width: 0.8"/>
      </g>
     </g>
     <g id="text_13">
      <!-- 15 -->
      <g transform="translate(24.845 220.389741) scale(0.1 -0.1)">
       <use xlink:href="#DejaVuSans-31"/>
       <use xlink:href="#DejaVuSans-35" x="63.623047"/>
      </g>
     </g>
    </g>
    <g id="ytick_5">
     <g id="line2d_17">
      <path d="M 44.57 182.77403 
L 709.2 182.77403 
" clip-path="url(#p176a56440b)" style="fill: none; stroke-dasharray: 2.96,1.28; stroke-dashoffset: 0; stroke: #b0b0b0; stroke-opacity: 0.7; stroke-width: 0.8"/>
     </g>
     <g id="line2d_18">
      <g>
       <use xlink:href="#m82892bd638" x="44.57" y="182.77403" style="stroke: #000000; stroke-width: 0.8"/>
      </g>
     </g>
     <g id="text_14">
      <!-- 20 -->
      <g transform="translate(24.845 186.573249) scale(0.1 -0.1)">
       <use xlink:href="#DejaVuSans-32"/>
       <use xlink:href="#DejaVuSans-30" x="63.623047"/>
      </g>
     </g>
    </g>
    <g id="ytick_6">
     <g id="line2d_19">
      <path d="M 44.57 148.957538 
L 709.2 148.957538 
" clip-path="url(#p176a56440b)" style="fill: none; stroke-dasharray: 2.96,1.28; stroke-dashoffset: 0; stroke: #b0b0b0; stroke-opacity: 0.7; stroke-width: 0.8"/>
     </g>
     <g id="line2d_20">
      <g>
       <use xlink:href="#m82892bd638" x="44.57" y="148.957538" style="stroke: #000000; stroke-width: 0.8"/>
      </g>
     </g>
     <g id="text_15">
      <!-- 25 -->
      <g transform="translate(24.845 152.756756) scale(0.1 -0.1)">
       <use xlink:href="#DejaVuSans-32"/>
       <use xlink:href="#DejaVuSans-35" x="63.623047"/>
      </g>
     </g>
    </g>
    <g id="ytick_7">
     <g id="line2d_21">
      <path d="M 44.57 115.141045 
L 709.2 115.141045 
" clip-path="url(#p176a56440b)" style="fill: none; stroke-dasharray: 2.96,1.28; stroke-dashoffset: 0; stroke: #b0b0b0; stroke-opacity: 0.7; stroke-width: 0.8"/>
     </g>
     <g id="line2d_22">
      <g>
       <use xlink:href="#m82892bd638" x="44.57" y="115.141045" style="stroke: #000000; stroke-width: 0.8"/>
      </g>
     </g>
     <g id="text_16">
      <!-- 30 -->
      <g transform="translate(24.845 118.940264) scale(0.1 -0.1)">
       <defs>
        <path id="DejaVuSans-33" d="M 2597 2516 
Q 3050 2419 3304 2112 
Q 3559 1806 3559 1356 
Q 3559 666 3084 287 
Q 2609 -91 1734 -91 
Q 1441 -91 1130 -33 
Q 819 25 488 141 
L 488 750 
Q 750 597 1062 519 
Q 1375 441 1716 441 
Q 2309 441 2620 675 
Q 2931 909 2931 1356 
Q 2931 1769 2642 2001 
Q 2353 2234 1838 2234 
L 1294 2234 
L 1294 2753 
L 1863 2753 
Q 2328 2753 2575 2939 
Q 2822 3125 2822 3475 
Q 2822 3834 2567 4026 
Q 2313 4219 1838 4219 
Q 1578 4219 1281 4162 
Q 984 4106 628 3988 
L 628 4550 
Q 988 4650 1302 4700 
Q 1616 4750 1894 4750 
Q 2613 4750 3031 4423 
Q 3450 4097 3450 3541 
Q 3450 3153 3228 2886 
Q 3006 2619 2597 2516 
z
" transform="scale(0.015625)"/>
       </defs>
       <use xlink:href="#DejaVuSans-33"/>
       <use xlink:href="#DejaVuSans-30" x="63.623047"/>
      </g>
     </g>
    </g>
    <g id="ytick_8">
     <g id="line2d_23">
      <path d="M 44.57 81.324553 
L 709.2 81.324553 
" clip-path="url(#p176a56440b)" style="fill: none; stroke-dasharray: 2.96,1.28; stroke-dashoffset: 0; stroke: #b0b0b0; stroke-opacity: 0.7; stroke-width: 0.8"/>
     </g>
     <g id="line2d_24">
      <g>
       <use xlink:href="#m82892bd638" x="44.57" y="81.324553" style="stroke: #000000; stroke-width: 0.8"/>
      </g>
     </g>
     <g id="text_17">
      <!-- 35 -->
      <g transform="translate(24.845 85.123772) scale(0.1 -0.1)">
       <use xlink:href="#DejaVuSans-33"/>
       <use xlink:href="#DejaVuSans-35" x="63.623047"/>
      </g>
     </g>
    </g>
    <g id="ytick_9">
     <g id="line2d_25">
      <path d="M 44.57 47.50806 
L 709.2 47.50806 
" clip-path="url(#p176a56440b)" style="fill: none; stroke-dasharray: 2.96,1.28; stroke-dashoffset: 0; stroke: #b0b0b0; stroke-opacity: 0.7; stroke-width: 0.8"/>
     </g>
     <g id="line2d_26">
      <g>
       <use xlink:href="#m82892bd638" x="44.57" y="47.50806" style="stroke: #000000; stroke-width: 0.8"/>
      </g>
     </g>
     <g id="text_18">
      <!-- 40 -->
      <g transform="translate(24.845 51.307279) scale(0.1 -0.1)">
       <defs>
        <path id="DejaVuSans-34" d="M 2419 4116 
L 825 1625 
L 2419 1625 
L 2419 4116 
z
M 2253 4666 
L 3047 4666 
L 3047 1625 
L 3713 1625 
L 3713 1100 
L 3047 1100 
L 3047 0 
L 2419 0 
L 2419 1100 
L 313 1100 
L 313 1709 
L 2253 4666 
z
" transform="scale(0.015625)"/>
       </defs>
       <use xlink:href="#DejaVuSans-34"/>
       <use xlink:href="#DejaVuSans-30" x="63.623047"/>
      </g>
     </g>
    </g>
    <g id="text_19">
     <!-- Frequency -->
     <g transform="translate(18.765312 198.289688) rotate(-90) scale(0.1 -0.1)">
      <defs>
       <path id="DejaVuSans-46" d="M 628 4666 
L 3309 4666 
L 3309 4134 
L 1259 4134 
L 1259 2759 
L 3109 2759 
L 3109 2228 
L 1259 2228 
L 1259 0 
L 628 0 
L 628 4666 
z
" transform="scale(0.015625)"/>
       <path id="DejaVuSans-72" d="M 2631 2963 
Q 2534 3019 2420 3045 
Q 2306 3072 2169 3072 
Q 1681 3072 1420 2755 
Q 1159 2438 1159 1844 
L 1159 0 
L 581 0 
L 581 3500 
L 1159 3500 
L 1159 2956 
Q 1341 3275 1631 3429 
Q 1922 3584 2338 3584 
Q 2397 3584 2469 3576 
Q 2541 3569 2628 3553 
L 2631 2963 
z
" transform="scale(0.015625)"/>
       <path id="DejaVuSans-71" d="M 947 1747 
Q 947 1113 1208 752 
Q 1469 391 1925 391 
Q 2381 391 2643 752 
Q 2906 1113 2906 1747 
Q 2906 2381 2643 2742 
Q 2381 3103 1925 3103 
Q 1469 3103 1208 2742 
Q 947 2381 947 1747 
z
M 2906 525 
Q 2725 213 2448 61 
Q 2172 -91 1784 -91 
Q 1150 -91 751 415 
Q 353 922 353 1747 
Q 353 2572 751 3078 
Q 1150 3584 1784 3584 
Q 2172 3584 2448 3432 
Q 2725 3281 2906 2969 
L 2906 3500 
L 3481 3500 
L 3481 -1331 
L 2906 -1331 
L 2906 525 
z
" transform="scale(0.015625)"/>
       <path id="DejaVuSans-75" d="M 544 1381 
L 544 3500 
L 1119 3500 
L 1119 1403 
Q 1119 906 1312 657 
Q 1506 409 1894 409 
Q 2359 409 2629 706 
Q 2900 1003 2900 1516 
L 2900 3500 
L 3475 3500 
L 3475 0 
L 2900 0 
L 2900 538 
Q 2691 219 2414 64 
Q 2138 -91 1772 -91 
Q 1169 -91 856 284 
Q 544 659 544 1381 
z
M 1991 3584 
L 1991 3584 
z
" transform="scale(0.015625)"/>
       <path id="DejaVuSans-63" d="M 3122 3366 
L 3122 2828 
Q 2878 2963 2633 3030 
Q 2388 3097 2138 3097 
Q 1578 3097 1268 2742 
Q 959 2388 959 1747 
Q 959 1106 1268 751 
Q 1578 397 2138 397 
Q 2388 397 2633 464 
Q 2878 531 3122 666 
L 3122 134 
Q 2881 22 2623 -34 
Q 2366 -91 2075 -91 
Q 1284 -91 818 406 
Q 353 903 353 1747 
Q 353 2603 823 3093 
Q 1294 3584 2113 3584 
Q 2378 3584 2631 3529 
Q 2884 3475 3122 3366 
z
" transform="scale(0.015625)"/>
       <path id="DejaVuSans-79" d="M 2059 -325 
Q 1816 -950 1584 -1140 
Q 1353 -1331 966 -1331 
L 506 -1331 
L 506 -850 
L 844 -850 
Q 1081 -850 1212 -737 
Q 1344 -625 1503 -206 
L 1606 56 
L 191 3500 
L 800 3500 
L 1894 763 
L 2988 3500 
L 3597 3500 
L 2059 -325 
z
" transform="scale(0.015625)"/>
      </defs>
      <use xlink:href="#DejaVuSans-46"/>
      <use xlink:href="#DejaVuSans-72" x="50.269531"/>
      <use xlink:href="#DejaVuSans-65" x="89.132812"/>
      <use xlink:href="#DejaVuSans-71" x="150.65625"/>
      <use xlink:href="#DejaVuSans-75" x="214.132812"/>
      <use xlink:href="#DejaVuSans-65" x="277.511719"/>
      <use xlink:href="#DejaVuSans-6e" x="339.035156"/>
      <use xlink:href="#DejaVuSans-63" x="402.414062"/>
      <use xlink:href="#DejaVuSans-79" x="457.394531"/>
     </g>
    </g>
   </g>
   <g id="patch_190">
    <path d="M 44.57 318.04 
L 44.57 26.88 
" style="fill: none; stroke: #000000; stroke-width: 0.8; stroke-linejoin: miter; stroke-linecap: square"/>
   </g>
   <g id="patch_191">
    <path d="M 709.2 318.04 
L 709.2 26.88 
" style="fill: none; stroke: #000000; stroke-width: 0.8; stroke-linejoin: miter; stroke-linecap: square"/>
   </g>
   <g id="patch_192">
    <path d="M 44.57 318.04 
L 709.2 318.04 
" style="fill: none; stroke: #000000; stroke-width: 0.8; stroke-linejoin: miter; stroke-linecap: square"/>
   </g>
   <g id="patch_193">
    <path d="M 44.57 26.88 
L 709.2 26.88 
" style="fill: none; stroke: #000000; stroke-width: 0.8; stroke-linejoin: miter; stroke-linecap: square"/>
   </g>
   <g id="text_20">
    <!-- Histogram of Assets (Bin Size = 100 Million) -->
    <g transform="translate(244.72 20.88) scale(0.12 -0.12)">
     <defs>
      <path id="DejaVuSans-48" d="M 628 4666 
L 1259 4666 
L 1259 2753 
L 3553 2753 
L 3553 4666 
L 4184 4666 
L 4184 0 
L 3553 0 
L 3553 2222 
L 1259 2222 
L 1259 0 
L 628 0 
L 628 4666 
z
" transform="scale(0.015625)"/>
      <path id="DejaVuSans-67" d="M 2906 1791 
Q 2906 2416 2648 2759 
Q 2391 3103 1925 3103 
Q 1463 3103 1205 2759 
Q 947 2416 947 1791 
Q 947 1169 1205 825 
Q 1463 481 1925 481 
Q 2391 481 2648 825 
Q 2906 1169 2906 1791 
z
M 3481 434 
Q 3481 -459 3084 -895 
Q 2688 -1331 1869 -1331 
Q 1566 -1331 1297 -1286 
Q 1028 -1241 775 -1147 
L 775 -588 
Q 1028 -725 1275 -790 
Q 1522 -856 1778 -856 
Q 2344 -856 2625 -561 
Q 2906 -266 2906 331 
L 2906 616 
Q 2728 306 2450 153 
Q 2172 0 1784 0 
Q 1141 0 747 490 
Q 353 981 353 1791 
Q 353 2603 747 3093 
Q 1141 3584 1784 3584 
Q 2172 3584 2450 3431 
Q 2728 3278 2906 2969 
L 2906 3500 
L 3481 3500 
L 3481 434 
z
" transform="scale(0.015625)"/>
      <path id="DejaVuSans-61" d="M 2194 1759 
Q 1497 1759 1228 1600 
Q 959 1441 959 1056 
Q 959 750 1161 570 
Q 1363 391 1709 391 
Q 2188 391 2477 730 
Q 2766 1069 2766 1631 
L 2766 1759 
L 2194 1759 
z
M 3341 1997 
L 3341 0 
L 2766 0 
L 2766 531 
Q 2569 213 2275 61 
Q 1981 -91 1556 -91 
Q 1019 -91 701 211 
Q 384 513 384 1019 
Q 384 1609 779 1909 
Q 1175 2209 1959 2209 
L 2766 2209 
L 2766 2266 
Q 2766 2663 2505 2880 
Q 2244 3097 1772 3097 
Q 1472 3097 1187 3025 
Q 903 2953 641 2809 
L 641 3341 
Q 956 3463 1253 3523 
Q 1550 3584 1831 3584 
Q 2591 3584 2966 3190 
Q 3341 2797 3341 1997 
z
" transform="scale(0.015625)"/>
      <path id="DejaVuSans-66" d="M 2375 4863 
L 2375 4384 
L 1825 4384 
Q 1516 4384 1395 4259 
Q 1275 4134 1275 3809 
L 1275 3500 
L 2222 3500 
L 2222 3053 
L 1275 3053 
L 1275 0 
L 697 0 
L 697 3053 
L 147 3053 
L 147 3500 
L 697 3500 
L 697 3744 
Q 697 4328 969 4595 
Q 1241 4863 1831 4863 
L 2375 4863 
z
" transform="scale(0.015625)"/>
      <path id="DejaVuSans-42" d="M 1259 2228 
L 1259 519 
L 2272 519 
Q 2781 519 3026 730 
Q 3272 941 3272 1375 
Q 3272 1813 3026 2020 
Q 2781 2228 2272 2228 
L 1259 2228 
z
M 1259 4147 
L 1259 2741 
L 2194 2741 
Q 2656 2741 2882 2914 
Q 3109 3088 3109 3444 
Q 3109 3797 2882 3972 
Q 2656 4147 2194 4147 
L 1259 4147 
z
M 628 4666 
L 2241 4666 
Q 2963 4666 3353 4366 
Q 3744 4066 3744 3513 
Q 3744 3084 3544 2831 
Q 3344 2578 2956 2516 
Q 3422 2416 3680 2098 
Q 3938 1781 3938 1306 
Q 3938 681 3513 340 
Q 3088 0 2303 0 
L 628 0 
L 628 4666 
z
" transform="scale(0.015625)"/>
      <path id="DejaVuSans-53" d="M 3425 4513 
L 3425 3897 
Q 3066 4069 2747 4153 
Q 2428 4238 2131 4238 
Q 1616 4238 1336 4038 
Q 1056 3838 1056 3469 
Q 1056 3159 1242 3001 
Q 1428 2844 1947 2747 
L 2328 2669 
Q 3034 2534 3370 2195 
Q 3706 1856 3706 1288 
Q 3706 609 3251 259 
Q 2797 -91 1919 -91 
Q 1588 -91 1214 -16 
Q 841 59 441 206 
L 441 856 
Q 825 641 1194 531 
Q 1563 422 1919 422 
Q 2459 422 2753 634 
Q 3047 847 3047 1241 
Q 3047 1584 2836 1778 
Q 2625 1972 2144 2069 
L 1759 2144 
Q 1053 2284 737 2584 
Q 422 2884 422 3419 
Q 422 4038 858 4394 
Q 1294 4750 2059 4750 
Q 2388 4750 2728 4690 
Q 3069 4631 3425 4513 
z
" transform="scale(0.015625)"/>
      <path id="DejaVuSans-7a" d="M 353 3500 
L 3084 3500 
L 3084 2975 
L 922 459 
L 3084 459 
L 3084 0 
L 275 0 
L 275 525 
L 2438 3041 
L 353 3041 
L 353 3500 
z
" transform="scale(0.015625)"/>
      <path id="DejaVuSans-3d" d="M 678 2906 
L 4684 2906 
L 4684 2381 
L 678 2381 
L 678 2906 
z
M 678 1631 
L 4684 1631 
L 4684 1100 
L 678 1100 
L 678 1631 
z
" transform="scale(0.015625)"/>
      <path id="DejaVuSans-4d" d="M 628 4666 
L 1569 4666 
L 2759 1491 
L 3956 4666 
L 4897 4666 
L 4897 0 
L 4281 0 
L 4281 4097 
L 3078 897 
L 2444 897 
L 1241 4097 
L 1241 0 
L 628 0 
L 628 4666 
z
" transform="scale(0.015625)"/>
     </defs>
     <use xlink:href="#DejaVuSans-48"/>
     <use xlink:href="#DejaVuSans-69" x="75.195312"/>
     <use xlink:href="#DejaVuSans-73" x="102.978516"/>
     <use xlink:href="#DejaVuSans-74" x="155.078125"/>
     <use xlink:href="#DejaVuSans-6f" x="194.287109"/>
     <use xlink:href="#DejaVuSans-67" x="255.46875"/>
     <use xlink:href="#DejaVuSans-72" x="318.945312"/>
     <use xlink:href="#DejaVuSans-61" x="360.058594"/>
     <use xlink:href="#DejaVuSans-6d" x="421.337891"/>
     <use xlink:href="#DejaVuSans-20" x="518.75"/>
     <use xlink:href="#DejaVuSans-6f" x="550.537109"/>
     <use xlink:href="#DejaVuSans-66" x="611.71875"/>
     <use xlink:href="#DejaVuSans-20" x="646.923828"/>
     <use xlink:href="#DejaVuSans-41" x="678.710938"/>
     <use xlink:href="#DejaVuSans-73" x="747.119141"/>
     <use xlink:href="#DejaVuSans-73" x="799.21875"/>
     <use xlink:href="#DejaVuSans-65" x="851.318359"/>
     <use xlink:href="#DejaVuSans-74" x="912.841797"/>
     <use xlink:href="#DejaVuSans-73" x="952.050781"/>
     <use xlink:href="#DejaVuSans-20" x="1004.150391"/>
     <use xlink:href="#DejaVuSans-28" x="1035.9375"/>
     <use xlink:href="#DejaVuSans-42" x="1074.951172"/>
     <use xlink:href="#DejaVuSans-69" x="1143.554688"/>
     <use xlink:href="#DejaVuSans-6e" x="1171.337891"/>
     <use xlink:href="#DejaVuSans-20" x="1234.716797"/>
     <use xlink:href="#DejaVuSans-53" x="1266.503906"/>
     <use xlink:href="#DejaVuSans-69" x="1329.980469"/>
     <use xlink:href="#DejaVuSans-7a" x="1357.763672"/>
     <use xlink:href="#DejaVuSans-65" x="1410.253906"/>
     <use xlink:href="#DejaVuSans-20" x="1471.777344"/>
     <use xlink:href="#DejaVuSans-3d" x="1503.564453"/>
     <use xlink:href="#DejaVuSans-20" x="1587.353516"/>
     <use xlink:href="#DejaVuSans-31" x="1619.140625"/>
     <use xlink:href="#DejaVuSans-30" x="1682.763672"/>
     <use xlink:href="#DejaVuSans-30" x="1746.386719"/>
     <use xlink:href="#DejaVuSans-20" x="1810.009766"/>
     <use xlink:href="#DejaVuSans-4d" x="1841.796875"/>
     <use xlink:href="#DejaVuSans-69" x="1928.076172"/>
     <use xlink:href="#DejaVuSans-6c" x="1955.859375"/>
     <use xlink:href="#DejaVuSans-6c" x="1983.642578"/>
     <use xlink:href="#DejaVuSans-69" x="2011.425781"/>
     <use xlink:href="#DejaVuSans-6f" x="2039.208984"/>
     <use xlink:href="#DejaVuSans-6e" x="2100.390625"/>
     <use xlink:href="#DejaVuSans-29" x="2163.769531"/>
    </g>
   </g>
  </g>
 </g>
 <defs>
  <clipPath id="p176a56440b">
   <rect x="44.57" y="26.88" width="664.63" height="291.16"/>
  </clipPath>
 </defs>
</svg>
