<?xml version="1.0" encoding="utf-8" standalone="no"?>
<!DOCTYPE svg PUBLIC "-//W3C//DTD SVG 1.1//EN"
  "http://www.w3.org/Graphics/SVG/1.1/DTD/svg11.dtd">
<svg xmlns:xlink="http://www.w3.org/1999/xlink" width="576pt" height="360pt" viewBox="0 0 576 360" xmlns="http://www.w3.org/2000/svg" version="1.1">
 <metadata>
  <rdf:RDF xmlns:dc="http://purl.org/dc/elements/1.1/" xmlns:cc="http://creativecommons.org/ns#" xmlns:rdf="http://www.w3.org/1999/02/22-rdf-syntax-ns#">
   <cc:Work>
    <dc:type rdf:resource="http://purl.org/dc/dcmitype/StillImage"/>
    <dc:date>2026-01-29T14:33:22.360998</dc:date>
    <dc:format>image/svg+xml</dc:format>
    <dc:creator>
     <cc:Agent>
      <dc:title>Matplotlib v3.9.4, https://matplotlib.org/</dc:title>
     </cc:Agent>
    </dc:creator>
   </cc:Work>
  </rdf:RDF>
 </metadata>
 <defs>
  <style type="text/css">*{stroke-linejoin: round; stroke-linecap: butt}</style>
 </defs>
 <g id="figure_1">
  <g id="patch_1">
   <path d="M 0 360 
L 576 360 
L 576 0 
L 0 0 
z
" style="fill: #ffffff"/>
  </g>
  <g id="axes_1">
   <g id="patch_2">
    <path d="M 55.94625 312.66 
L 563.04 312.66 
L 563.04 29.04 
L 55.94625 29.04 
z
" style="fill: #ffffff"/>
   </g>
   <g id="matplotlib.axis_1">
    <g id="xtick_1">
     <g id="text_1">
      <!-- Below average -->
      <g style="fill: #262626" transform="translate(104.080234 330.033594) scale(0.11 -0.11)">
       <defs>
        <path id="ArialMT-42" d="M 469 0 
L 469 4581 
L 2188 4581 
Q 2713 4581 3030 4442 
Q 3347 4303 3526 4014 
Q 3706 3725 3706 3409 
Q 3706 3116 3547 2856 
Q 3388 2597 3066 2438 
Q 3481 2316 3704 2022 
Q 3928 1728 3928 1328 
Q 3928 1006 3792 729 
Q 3656 453 3456 303 
Q 3256 153 2954 76 
Q 2653 0 2216 0 
L 469 0 
z
M 1075 2656 
L 2066 2656 
Q 2469 2656 2644 2709 
Q 2875 2778 2992 2937 
Q 3109 3097 3109 3338 
Q 3109 3566 3000 3739 
Q 2891 3913 2687 3977 
Q 2484 4041 1991 4041 
L 1075 4041 
L 1075 2656 
z
M 1075 541 
L 2216 541 
Q 2509 541 2628 563 
Q 2838 600 2978 687 
Q 3119 775 3209 942 
Q 3300 1109 3300 1328 
Q 3300 1584 3169 1773 
Q 3038 1963 2805 2039 
Q 2572 2116 2134 2116 
L 1075 2116 
L 1075 541 
z
" transform="scale(0.015625)"/>
        <path id="ArialMT-65" d="M 2694 1069 
L 3275 997 
Q 3138 488 2766 206 
Q 2394 -75 1816 -75 
Q 1088 -75 661 373 
Q 234 822 234 1631 
Q 234 2469 665 2931 
Q 1097 3394 1784 3394 
Q 2450 3394 2872 2941 
Q 3294 2488 3294 1666 
Q 3294 1616 3291 1516 
L 816 1516 
Q 847 969 1125 678 
Q 1403 388 1819 388 
Q 2128 388 2347 550 
Q 2566 713 2694 1069 
z
M 847 1978 
L 2700 1978 
Q 2663 2397 2488 2606 
Q 2219 2931 1791 2931 
Q 1403 2931 1139 2672 
Q 875 2413 847 1978 
z
" transform="scale(0.015625)"/>
        <path id="ArialMT-6c" d="M 409 0 
L 409 4581 
L 972 4581 
L 972 0 
L 409 0 
z
" transform="scale(0.015625)"/>
        <path id="ArialMT-6f" d="M 213 1659 
Q 213 2581 725 3025 
Q 1153 3394 1769 3394 
Q 2453 3394 2887 2945 
Q 3322 2497 3322 1706 
Q 3322 1066 3130 698 
Q 2938 331 2570 128 
Q 2203 -75 1769 -75 
Q 1072 -75 642 372 
Q 213 819 213 1659 
z
M 791 1659 
Q 791 1022 1069 705 
Q 1347 388 1769 388 
Q 2188 388 2466 706 
Q 2744 1025 2744 1678 
Q 2744 2294 2464 2611 
Q 2184 2928 1769 2928 
Q 1347 2928 1069 2612 
Q 791 2297 791 1659 
z
" transform="scale(0.015625)"/>
        <path id="ArialMT-77" d="M 1034 0 
L 19 3319 
L 600 3319 
L 1128 1403 
L 1325 691 
Q 1338 744 1497 1375 
L 2025 3319 
L 2603 3319 
L 3100 1394 
L 3266 759 
L 3456 1400 
L 4025 3319 
L 4572 3319 
L 3534 0 
L 2950 0 
L 2422 1988 
L 2294 2553 
L 1622 0 
L 1034 0 
z
" transform="scale(0.015625)"/>
        <path id="ArialMT-20" transform="scale(0.015625)"/>
        <path id="ArialMT-61" d="M 2588 409 
Q 2275 144 1986 34 
Q 1697 -75 1366 -75 
Q 819 -75 525 192 
Q 231 459 231 875 
Q 231 1119 342 1320 
Q 453 1522 633 1644 
Q 813 1766 1038 1828 
Q 1203 1872 1538 1913 
Q 2219 1994 2541 2106 
Q 2544 2222 2544 2253 
Q 2544 2597 2384 2738 
Q 2169 2928 1744 2928 
Q 1347 2928 1158 2789 
Q 969 2650 878 2297 
L 328 2372 
Q 403 2725 575 2942 
Q 747 3159 1072 3276 
Q 1397 3394 1825 3394 
Q 2250 3394 2515 3294 
Q 2781 3194 2906 3042 
Q 3031 2891 3081 2659 
Q 3109 2516 3109 2141 
L 3109 1391 
Q 3109 606 3145 398 
Q 3181 191 3288 0 
L 2700 0 
Q 2613 175 2588 409 
z
M 2541 1666 
Q 2234 1541 1622 1453 
Q 1275 1403 1131 1340 
Q 988 1278 909 1158 
Q 831 1038 831 891 
Q 831 666 1001 516 
Q 1172 366 1500 366 
Q 1825 366 2078 508 
Q 2331 650 2450 897 
Q 2541 1088 2541 1459 
L 2541 1666 
z
" transform="scale(0.015625)"/>
        <path id="ArialMT-76" d="M 1344 0 
L 81 3319 
L 675 3319 
L 1388 1331 
Q 1503 1009 1600 663 
Q 1675 925 1809 1294 
L 2547 3319 
L 3125 3319 
L 1869 0 
L 1344 0 
z
" transform="scale(0.015625)"/>
        <path id="ArialMT-72" d="M 416 0 
L 416 3319 
L 922 3319 
L 922 2816 
Q 1116 3169 1280 3281 
Q 1444 3394 1641 3394 
Q 1925 3394 2219 3213 
L 2025 2691 
Q 1819 2813 1613 2813 
Q 1428 2813 1281 2702 
Q 1134 2591 1072 2394 
Q 978 2094 978 1738 
L 978 0 
L 416 0 
z
" transform="scale(0.015625)"/>
        <path id="ArialMT-67" d="M 319 -275 
L 866 -356 
Q 900 -609 1056 -725 
Q 1266 -881 1628 -881 
Q 2019 -881 2231 -725 
Q 2444 -569 2519 -288 
Q 2563 -116 2559 434 
Q 2191 0 1641 0 
Q 956 0 581 494 
Q 206 988 206 1678 
Q 206 2153 378 2554 
Q 550 2956 876 3175 
Q 1203 3394 1644 3394 
Q 2231 3394 2613 2919 
L 2613 3319 
L 3131 3319 
L 3131 450 
Q 3131 -325 2973 -648 
Q 2816 -972 2473 -1159 
Q 2131 -1347 1631 -1347 
Q 1038 -1347 672 -1080 
Q 306 -813 319 -275 
z
M 784 1719 
Q 784 1066 1043 766 
Q 1303 466 1694 466 
Q 2081 466 2343 764 
Q 2606 1063 2606 1700 
Q 2606 2309 2336 2618 
Q 2066 2928 1684 2928 
Q 1309 2928 1046 2623 
Q 784 2319 784 1719 
z
" transform="scale(0.015625)"/>
       </defs>
       <use xlink:href="#ArialMT-42"/>
       <use xlink:href="#ArialMT-65" x="66.699219"/>
       <use xlink:href="#ArialMT-6c" x="122.314453"/>
       <use xlink:href="#ArialMT-6f" x="144.53125"/>
       <use xlink:href="#ArialMT-77" x="200.146484"/>
       <use xlink:href="#ArialMT-20" x="272.363281"/>
       <use xlink:href="#ArialMT-61" x="300.146484"/>
       <use xlink:href="#ArialMT-76" x="355.761719"/>
       <use xlink:href="#ArialMT-65" x="405.761719"/>
       <use xlink:href="#ArialMT-72" x="461.376953"/>
       <use xlink:href="#ArialMT-61" x="494.677734"/>
       <use xlink:href="#ArialMT-67" x="550.292969"/>
       <use xlink:href="#ArialMT-65" x="605.908203"/>
      </g>
     </g>
    </g>
    <g id="xtick_2">
     <g id="text_2">
      <!-- Average -->
      <g style="fill: #262626" transform="translate(289.105312 330.033594) scale(0.11 -0.11)">
       <defs>
        <path id="ArialMT-41" d="M -9 0 
L 1750 4581 
L 2403 4581 
L 4278 0 
L 3588 0 
L 3053 1388 
L 1138 1388 
L 634 0 
L -9 0 
z
M 1313 1881 
L 2866 1881 
L 2388 3150 
Q 2169 3728 2063 4100 
Q 1975 3659 1816 3225 
L 1313 1881 
z
" transform="scale(0.015625)"/>
       </defs>
       <use xlink:href="#ArialMT-41"/>
       <use xlink:href="#ArialMT-76" x="64.949219"/>
       <use xlink:href="#ArialMT-65" x="114.949219"/>
       <use xlink:href="#ArialMT-72" x="170.564453"/>
       <use xlink:href="#ArialMT-61" x="203.865234"/>
       <use xlink:href="#ArialMT-67" x="259.480469"/>
       <use xlink:href="#ArialMT-65" x="315.095703"/>
      </g>
     </g>
    </g>
    <g id="xtick_3">
     <g id="text_3">
      <!-- Above average -->
      <g style="fill: #262626" transform="translate(441.528281 330.033594) scale(0.11 -0.11)">
       <defs>
        <path id="ArialMT-62" d="M 941 0 
L 419 0 
L 419 4581 
L 981 4581 
L 981 2947 
Q 1338 3394 1891 3394 
Q 2197 3394 2470 3270 
Q 2744 3147 2920 2923 
Q 3097 2700 3197 2384 
Q 3297 2069 3297 1709 
Q 3297 856 2875 390 
Q 2453 -75 1863 -75 
Q 1275 -75 941 416 
L 941 0 
z
M 934 1684 
Q 934 1088 1097 822 
Q 1363 388 1816 388 
Q 2184 388 2453 708 
Q 2722 1028 2722 1663 
Q 2722 2313 2464 2622 
Q 2206 2931 1841 2931 
Q 1472 2931 1203 2611 
Q 934 2291 934 1684 
z
" transform="scale(0.015625)"/>
       </defs>
       <use xlink:href="#ArialMT-41"/>
       <use xlink:href="#ArialMT-62" x="66.699219"/>
       <use xlink:href="#ArialMT-6f" x="122.314453"/>
       <use xlink:href="#ArialMT-76" x="177.929688"/>
       <use xlink:href="#ArialMT-65" x="227.929688"/>
       <use xlink:href="#ArialMT-20" x="283.544922"/>
       <use xlink:href="#ArialMT-61" x="311.328125"/>
       <use xlink:href="#ArialMT-76" x="366.943359"/>
       <use xlink:href="#ArialMT-65" x="416.943359"/>
       <use xlink:href="#ArialMT-72" x="472.558594"/>
       <use xlink:href="#ArialMT-61" x="505.859375"/>
       <use xlink:href="#ArialMT-67" x="561.474609"/>
       <use xlink:href="#ArialMT-65" x="617.089844"/>
      </g>
     </g>
    </g>
    <g id="text_4">
     <!-- Risk Level -->
     <g style="fill: #262626" transform="translate(281.817187 344.938125) scale(0.12 -0.12)">
      <defs>
       <path id="ArialMT-52" d="M 503 0 
L 503 4581 
L 2534 4581 
Q 3147 4581 3465 4457 
Q 3784 4334 3975 4021 
Q 4166 3709 4166 3331 
Q 4166 2844 3850 2509 
Q 3534 2175 2875 2084 
Q 3116 1969 3241 1856 
Q 3506 1613 3744 1247 
L 4541 0 
L 3778 0 
L 3172 953 
Q 2906 1366 2734 1584 
Q 2563 1803 2427 1890 
Q 2291 1978 2150 2013 
Q 2047 2034 1813 2034 
L 1109 2034 
L 1109 0 
L 503 0 
z
M 1109 2559 
L 2413 2559 
Q 2828 2559 3062 2645 
Q 3297 2731 3419 2920 
Q 3541 3109 3541 3331 
Q 3541 3656 3305 3865 
Q 3069 4075 2559 4075 
L 1109 4075 
L 1109 2559 
z
" transform="scale(0.015625)"/>
       <path id="ArialMT-69" d="M 425 3934 
L 425 4581 
L 988 4581 
L 988 3934 
L 425 3934 
z
M 425 0 
L 425 3319 
L 988 3319 
L 988 0 
L 425 0 
z
" transform="scale(0.015625)"/>
       <path id="ArialMT-73" d="M 197 991 
L 753 1078 
Q 800 744 1014 566 
Q 1228 388 1613 388 
Q 2000 388 2187 545 
Q 2375 703 2375 916 
Q 2375 1106 2209 1216 
Q 2094 1291 1634 1406 
Q 1016 1563 777 1677 
Q 538 1791 414 1992 
Q 291 2194 291 2438 
Q 291 2659 392 2848 
Q 494 3038 669 3163 
Q 800 3259 1026 3326 
Q 1253 3394 1513 3394 
Q 1903 3394 2198 3281 
Q 2494 3169 2634 2976 
Q 2775 2784 2828 2463 
L 2278 2388 
Q 2241 2644 2061 2787 
Q 1881 2931 1553 2931 
Q 1166 2931 1000 2803 
Q 834 2675 834 2503 
Q 834 2394 903 2306 
Q 972 2216 1119 2156 
Q 1203 2125 1616 2013 
Q 2213 1853 2448 1751 
Q 2684 1650 2818 1456 
Q 2953 1263 2953 975 
Q 2953 694 2789 445 
Q 2625 197 2315 61 
Q 2006 -75 1616 -75 
Q 969 -75 630 194 
Q 291 463 197 991 
z
" transform="scale(0.015625)"/>
       <path id="ArialMT-6b" d="M 425 0 
L 425 4581 
L 988 4581 
L 988 1969 
L 2319 3319 
L 3047 3319 
L 1778 2088 
L 3175 0 
L 2481 0 
L 1384 1697 
L 988 1316 
L 988 0 
L 425 0 
z
" transform="scale(0.015625)"/>
       <path id="ArialMT-4c" d="M 469 0 
L 469 4581 
L 1075 4581 
L 1075 541 
L 3331 541 
L 3331 0 
L 469 0 
z
" transform="scale(0.015625)"/>
      </defs>
      <use xlink:href="#ArialMT-52"/>
      <use xlink:href="#ArialMT-69" x="72.216797"/>
      <use xlink:href="#ArialMT-73" x="94.433594"/>
      <use xlink:href="#ArialMT-6b" x="144.433594"/>
      <use xlink:href="#ArialMT-20" x="194.433594"/>
      <use xlink:href="#ArialMT-4c" x="222.216797"/>
      <use xlink:href="#ArialMT-65" x="277.832031"/>
      <use xlink:href="#ArialMT-76" x="333.447266"/>
      <use xlink:href="#ArialMT-65" x="383.447266"/>
      <use xlink:href="#ArialMT-6c" x="439.0625"/>
     </g>
    </g>
   </g>
   <g id="matplotlib.axis_2">
    <g id="ytick_1">
     <g id="line2d_1">
      <path d="M 55.94625 269.908688 
L 563.04 269.908688 
" clip-path="url(#p06f63b50dc)" style="fill: none; stroke-dasharray: 3.7,1.6; stroke-dashoffset: 0; stroke: #cccccc; stroke-opacity: 0.3"/>
     </g>
     <g id="text_5">
      <!-- −10 -->
      <g style="fill: #262626" transform="translate(27.7875 273.845485) scale(0.11 -0.11)">
       <defs>
        <path id="ArialMT-2212" d="M 3381 1997 
L 356 1997 
L 356 2522 
L 3381 2522 
L 3381 1997 
z
" transform="scale(0.015625)"/>
        <path id="ArialMT-31" d="M 2384 0 
L 1822 0 
L 1822 3584 
Q 1619 3391 1289 3197 
Q 959 3003 697 2906 
L 697 3450 
Q 1169 3672 1522 3987 
Q 1875 4303 2022 4600 
L 2384 4600 
L 2384 0 
z
" transform="scale(0.015625)"/>
        <path id="ArialMT-30" d="M 266 2259 
Q 266 3072 433 3567 
Q 600 4063 929 4331 
Q 1259 4600 1759 4600 
Q 2128 4600 2406 4451 
Q 2684 4303 2865 4023 
Q 3047 3744 3150 3342 
Q 3253 2941 3253 2259 
Q 3253 1453 3087 958 
Q 2922 463 2592 192 
Q 2263 -78 1759 -78 
Q 1097 -78 719 397 
Q 266 969 266 2259 
z
M 844 2259 
Q 844 1131 1108 757 
Q 1372 384 1759 384 
Q 2147 384 2411 759 
Q 2675 1134 2675 2259 
Q 2675 3391 2411 3762 
Q 2147 4134 1753 4134 
Q 1366 4134 1134 3806 
Q 844 3388 844 2259 
z
" transform="scale(0.015625)"/>
       </defs>
       <use xlink:href="#ArialMT-2212"/>
       <use xlink:href="#ArialMT-31" x="58.398438"/>
       <use xlink:href="#ArialMT-30" x="114.013672"/>
      </g>
     </g>
    </g>
    <g id="ytick_2">
     <g id="line2d_2">
      <path d="M 55.94625 224.048184 
L 563.04 224.048184 
" clip-path="url(#p06f63b50dc)" style="fill: none; stroke-dasharray: 3.7,1.6; stroke-dashoffset: 0; stroke: #cccccc; stroke-opacity: 0.3"/>
     </g>
     <g id="text_6">
      <!-- 0 -->
      <g style="fill: #262626" transform="translate(40.329219 227.984981) scale(0.11 -0.11)">
       <use xlink:href="#ArialMT-30"/>
      </g>
     </g>
    </g>
    <g id="ytick_3">
     <g id="line2d_3">
      <path d="M 55.94625 178.187681 
L 563.04 178.187681 
" clip-path="url(#p06f63b50dc)" style="fill: none; stroke-dasharray: 3.7,1.6; stroke-dashoffset: 0; stroke: #cccccc; stroke-opacity: 0.3"/>
     </g>
     <g id="text_7">
      <!-- 10 -->
      <g style="fill: #262626" transform="translate(34.212188 182.124477) scale(0.11 -0.11)">
       <use xlink:href="#ArialMT-31"/>
       <use xlink:href="#ArialMT-30" x="55.615234"/>
      </g>
     </g>
    </g>
    <g id="ytick_4">
     <g id="line2d_4">
      <path d="M 55.94625 132.327177 
L 563.04 132.327177 
" clip-path="url(#p06f63b50dc)" style="fill: none; stroke-dasharray: 3.7,1.6; stroke-dashoffset: 0; stroke: #cccccc; stroke-opacity: 0.3"/>
     </g>
     <g id="text_8">
      <!-- 20 -->
      <g style="fill: #262626" transform="translate(34.212188 136.263974) scale(0.11 -0.11)">
       <defs>
        <path id="ArialMT-32" d="M 3222 541 
L 3222 0 
L 194 0 
Q 188 203 259 391 
Q 375 700 629 1000 
Q 884 1300 1366 1694 
Q 2113 2306 2375 2664 
Q 2638 3022 2638 3341 
Q 2638 3675 2398 3904 
Q 2159 4134 1775 4134 
Q 1369 4134 1125 3890 
Q 881 3647 878 3216 
L 300 3275 
Q 359 3922 746 4261 
Q 1134 4600 1788 4600 
Q 2447 4600 2831 4234 
Q 3216 3869 3216 3328 
Q 3216 3053 3103 2787 
Q 2991 2522 2730 2228 
Q 2469 1934 1863 1422 
Q 1356 997 1212 845 
Q 1069 694 975 541 
L 3222 541 
z
" transform="scale(0.015625)"/>
       </defs>
       <use xlink:href="#ArialMT-32"/>
       <use xlink:href="#ArialMT-30" x="55.615234"/>
      </g>
     </g>
    </g>
    <g id="ytick_5">
     <g id="line2d_5">
      <path d="M 55.94625 86.466673 
L 563.04 86.466673 
" clip-path="url(#p06f63b50dc)" style="fill: none; stroke-dasharray: 3.7,1.6; stroke-dashoffset: 0; stroke: #cccccc; stroke-opacity: 0.3"/>
     </g>
     <g id="text_9">
      <!-- 30 -->
      <g style="fill: #262626" transform="translate(34.212188 90.40347) scale(0.11 -0.11)">
       <defs>
        <path id="ArialMT-33" d="M 269 1209 
L 831 1284 
Q 928 806 1161 595 
Q 1394 384 1728 384 
Q 2125 384 2398 659 
Q 2672 934 2672 1341 
Q 2672 1728 2419 1979 
Q 2166 2231 1775 2231 
Q 1616 2231 1378 2169 
L 1441 2663 
Q 1497 2656 1531 2656 
Q 1891 2656 2178 2843 
Q 2466 3031 2466 3422 
Q 2466 3731 2256 3934 
Q 2047 4138 1716 4138 
Q 1388 4138 1169 3931 
Q 950 3725 888 3313 
L 325 3413 
Q 428 3978 793 4289 
Q 1159 4600 1703 4600 
Q 2078 4600 2393 4439 
Q 2709 4278 2876 4000 
Q 3044 3722 3044 3409 
Q 3044 3113 2884 2869 
Q 2725 2625 2413 2481 
Q 2819 2388 3044 2092 
Q 3269 1797 3269 1353 
Q 3269 753 2831 336 
Q 2394 -81 1725 -81 
Q 1122 -81 723 278 
Q 325 638 269 1209 
z
" transform="scale(0.015625)"/>
       </defs>
       <use xlink:href="#ArialMT-33"/>
       <use xlink:href="#ArialMT-30" x="55.615234"/>
      </g>
     </g>
    </g>
    <g id="ytick_6">
     <g id="line2d_6">
      <path d="M 55.94625 40.60617 
L 563.04 40.60617 
" clip-path="url(#p06f63b50dc)" style="fill: none; stroke-dasharray: 3.7,1.6; stroke-dashoffset: 0; stroke: #cccccc; stroke-opacity: 0.3"/>
     </g>
     <g id="text_10">
      <!-- 40 -->
      <g style="fill: #262626" transform="translate(34.212188 44.542967) scale(0.11 -0.11)">
       <defs>
        <path id="ArialMT-34" d="M 2069 0 
L 2069 1097 
L 81 1097 
L 81 1613 
L 2172 4581 
L 2631 4581 
L 2631 1613 
L 3250 1613 
L 3250 1097 
L 2631 1097 
L 2631 0 
L 2069 0 
z
M 2069 1613 
L 2069 3678 
L 634 1613 
L 2069 1613 
z
" transform="scale(0.015625)"/>
       </defs>
       <use xlink:href="#ArialMT-34"/>
       <use xlink:href="#ArialMT-30" x="55.615234"/>
      </g>
     </g>
    </g>
    <g id="text_11">
     <!-- Return 2009 (%) -->
     <g style="fill: #262626" transform="translate(21.261875 214.868438) rotate(-90) scale(0.12 -0.12)">
      <defs>
       <path id="ArialMT-74" d="M 1650 503 
L 1731 6 
Q 1494 -44 1306 -44 
Q 1000 -44 831 53 
Q 663 150 594 308 
Q 525 466 525 972 
L 525 2881 
L 113 2881 
L 113 3319 
L 525 3319 
L 525 4141 
L 1084 4478 
L 1084 3319 
L 1650 3319 
L 1650 2881 
L 1084 2881 
L 1084 941 
Q 1084 700 1114 631 
Q 1144 563 1211 522 
Q 1278 481 1403 481 
Q 1497 481 1650 503 
z
" transform="scale(0.015625)"/>
       <path id="ArialMT-75" d="M 2597 0 
L 2597 488 
Q 2209 -75 1544 -75 
Q 1250 -75 995 37 
Q 741 150 617 320 
Q 494 491 444 738 
Q 409 903 409 1263 
L 409 3319 
L 972 3319 
L 972 1478 
Q 972 1038 1006 884 
Q 1059 663 1231 536 
Q 1403 409 1656 409 
Q 1909 409 2131 539 
Q 2353 669 2445 892 
Q 2538 1116 2538 1541 
L 2538 3319 
L 3100 3319 
L 3100 0 
L 2597 0 
z
" transform="scale(0.015625)"/>
       <path id="ArialMT-6e" d="M 422 0 
L 422 3319 
L 928 3319 
L 928 2847 
Q 1294 3394 1984 3394 
Q 2284 3394 2536 3286 
Q 2788 3178 2913 3003 
Q 3038 2828 3088 2588 
Q 3119 2431 3119 2041 
L 3119 0 
L 2556 0 
L 2556 2019 
Q 2556 2363 2490 2533 
Q 2425 2703 2258 2804 
Q 2091 2906 1866 2906 
Q 1506 2906 1245 2678 
Q 984 2450 984 1813 
L 984 0 
L 422 0 
z
" transform="scale(0.015625)"/>
       <path id="ArialMT-39" d="M 350 1059 
L 891 1109 
Q 959 728 1153 556 
Q 1347 384 1650 384 
Q 1909 384 2104 503 
Q 2300 622 2425 820 
Q 2550 1019 2634 1356 
Q 2719 1694 2719 2044 
Q 2719 2081 2716 2156 
Q 2547 1888 2255 1720 
Q 1963 1553 1622 1553 
Q 1053 1553 659 1965 
Q 266 2378 266 3053 
Q 266 3750 677 4175 
Q 1088 4600 1706 4600 
Q 2153 4600 2523 4359 
Q 2894 4119 3086 3673 
Q 3278 3228 3278 2384 
Q 3278 1506 3087 986 
Q 2897 466 2520 194 
Q 2144 -78 1638 -78 
Q 1100 -78 759 220 
Q 419 519 350 1059 
z
M 2653 3081 
Q 2653 3566 2395 3850 
Q 2138 4134 1775 4134 
Q 1400 4134 1122 3828 
Q 844 3522 844 3034 
Q 844 2597 1108 2323 
Q 1372 2050 1759 2050 
Q 2150 2050 2401 2323 
Q 2653 2597 2653 3081 
z
" transform="scale(0.015625)"/>
       <path id="ArialMT-28" d="M 1497 -1347 
Q 1031 -759 709 28 
Q 388 816 388 1659 
Q 388 2403 628 3084 
Q 909 3875 1497 4659 
L 1900 4659 
Q 1522 4009 1400 3731 
Q 1209 3300 1100 2831 
Q 966 2247 966 1656 
Q 966 153 1900 -1347 
L 1497 -1347 
z
" transform="scale(0.015625)"/>
       <path id="ArialMT-25" d="M 372 3481 
Q 372 3972 619 4315 
Q 866 4659 1334 4659 
Q 1766 4659 2048 4351 
Q 2331 4044 2331 3447 
Q 2331 2866 2045 2552 
Q 1759 2238 1341 2238 
Q 925 2238 648 2547 
Q 372 2856 372 3481 
z
M 1350 4272 
Q 1141 4272 1002 4090 
Q 863 3909 863 3425 
Q 863 2984 1003 2804 
Q 1144 2625 1350 2625 
Q 1563 2625 1702 2806 
Q 1841 2988 1841 3469 
Q 1841 3913 1700 4092 
Q 1559 4272 1350 4272 
z
M 1353 -169 
L 3859 4659 
L 4316 4659 
L 1819 -169 
L 1353 -169 
z
M 3334 1075 
Q 3334 1569 3581 1911 
Q 3828 2253 4300 2253 
Q 4731 2253 5014 1945 
Q 5297 1638 5297 1041 
Q 5297 459 5011 145 
Q 4725 -169 4303 -169 
Q 3888 -169 3611 142 
Q 3334 453 3334 1075 
z
M 4316 1866 
Q 4103 1866 3964 1684 
Q 3825 1503 3825 1019 
Q 3825 581 3965 400 
Q 4106 219 4313 219 
Q 4528 219 4667 400 
Q 4806 581 4806 1063 
Q 4806 1506 4665 1686 
Q 4525 1866 4316 1866 
z
" transform="scale(0.015625)"/>
       <path id="ArialMT-29" d="M 791 -1347 
L 388 -1347 
Q 1322 153 1322 1656 
Q 1322 2244 1188 2822 
Q 1081 3291 891 3722 
Q 769 4003 388 4659 
L 791 4659 
Q 1378 3875 1659 3084 
Q 1900 2403 1900 1659 
Q 1900 816 1576 28 
Q 1253 -759 791 -1347 
z
" transform="scale(0.015625)"/>
      </defs>
      <use xlink:href="#ArialMT-52"/>
      <use xlink:href="#ArialMT-65" x="72.216797"/>
      <use xlink:href="#ArialMT-74" x="127.832031"/>
      <use xlink:href="#ArialMT-75" x="155.615234"/>
      <use xlink:href="#ArialMT-72" x="211.230469"/>
      <use xlink:href="#ArialMT-6e" x="244.53125"/>
      <use xlink:href="#ArialMT-20" x="300.146484"/>
      <use xlink:href="#ArialMT-32" x="327.929688"/>
      <use xlink:href="#ArialMT-30" x="383.544922"/>
      <use xlink:href="#ArialMT-30" x="439.160156"/>
      <use xlink:href="#ArialMT-39" x="494.775391"/>
      <use xlink:href="#ArialMT-20" x="550.390625"/>
      <use xlink:href="#ArialMT-28" x="578.173828"/>
      <use xlink:href="#ArialMT-25" x="611.474609"/>
      <use xlink:href="#ArialMT-29" x="700.390625"/>
     </g>
    </g>
   </g>
   <g id="PolyCollection_1">
    <defs>
     <path id="meb4dec00e4" d="M 140.461875 -123.065696 
L 139.807967 -123.065696 
L 139.625994 -123.937495 
L 139.410003 -124.809294 
L 139.158677 -125.681094 
L 138.872092 -126.552893 
L 138.551965 -127.424692 
L 138.201791 -128.296491 
L 137.826811 -129.16829 
L 137.433792 -130.040089 
L 137.030574 -130.911888 
L 136.625408 -131.783687 
L 136.2261 -132.655486 
L 135.839015 -133.527285 
L 135.468031 -134.399084 
L 135.113542 -135.270883 
L 134.7716 -136.142682 
L 134.433316 -137.014481 
L 134.084593 -137.88628 
L 133.706239 -138.758079 
L 133.274484 -139.629878 
L 132.76187 -140.501677 
L 132.138449 -141.373476 
L 131.373199 -142.245275 
L 130.435546 -143.117074 
L 129.296886 -143.988873 
L 127.932009 -144.860672 
L 126.32036 -145.732471 
L 124.447087 -146.60427 
L 122.303895 -147.476069 
L 119.889709 -148.347868 
L 117.211192 -149.219667 
L 114.283155 -150.091466 
L 111.128879 -150.963265 
L 107.780323 -151.835064 
L 104.278193 -152.706863 
L 100.671766 -153.578662 
L 97.01839 -154.450461 
L 93.382527 -155.32226 
L 89.834272 -156.194059 
L 86.447305 -157.065858 
L 83.296283 -157.937657 
L 80.453789 -158.809456 
L 77.986989 -159.681256 
L 75.954254 -160.553055 
L 74.401986 -161.424854 
L 73.361953 -162.296653 
L 72.849375 -163.168452 
L 72.86195 -164.040251 
L 73.379948 -164.91205 
L 74.367379 -165.783849 
L 75.774166 -166.655648 
L 77.53915 -167.527447 
L 79.593694 -168.399246 
L 81.865592 -169.271045 
L 84.282979 -170.142844 
L 86.777966 -171.014643 
L 89.289711 -171.886442 
L 91.766748 -172.758241 
L 94.168452 -173.63004 
L 96.465564 -174.501839 
L 98.639858 -175.373638 
L 100.683027 -176.245437 
L 102.594992 -177.117236 
L 104.381838 -177.989035 
L 106.053636 -178.860834 
L 107.62236 -179.732633 
L 109.100123 -180.604432 
L 110.497866 -181.476231 
L 111.824586 -182.34803 
L 113.087117 -183.219829 
L 114.290389 -184.091628 
L 115.438065 -184.963427 
L 116.53338 -185.835226 
L 117.580019 -186.707025 
L 118.582863 -187.578824 
L 119.548471 -188.450623 
L 120.485209 -189.322422 
L 121.402992 -190.194221 
L 122.31268 -191.06602 
L 123.225196 -191.937819 
L 124.150495 -192.809618 
L 125.096524 -193.681418 
L 126.068314 -194.553217 
L 127.067321 -195.425016 
L 128.09111 -196.296815 
L 129.133418 -197.168614 
L 130.184582 -198.040413 
L 131.232293 -198.912212 
L 132.262565 -199.784011 
L 133.260827 -200.65581 
L 134.213012 -201.527609 
L 135.106536 -202.399408 
L 135.931079 -203.271207 
L 136.679115 -204.143006 
L 137.346172 -205.014805 
L 137.930826 -205.886604 
L 138.434458 -206.758403 
L 138.860853 -207.630202 
L 139.215672 -208.502001 
L 139.505885 -209.3738 
L 140.461875 -209.3738 
L 140.461875 -209.3738 
L 140.461875 -208.502001 
L 140.461875 -207.630202 
L 140.461875 -206.758403 
L 140.461875 -205.886604 
L 140.461875 -205.014805 
L 140.461875 -204.143006 
L 140.461875 -203.271207 
L 140.461875 -202.399408 
L 140.461875 -201.527609 
L 140.461875 -200.65581 
L 140.461875 -199.784011 
L 140.461875 -198.912212 
L 140.461875 -198.040413 
L 140.461875 -197.168614 
L 140.461875 -196.296815 
L 140.461875 -195.425016 
L 140.461875 -194.553217 
L 140.461875 -193.681418 
L 140.461875 -192.809618 
L 140.461875 -191.937819 
L 140.461875 -191.06602 
L 140.461875 -190.194221 
L 140.461875 -189.322422 
L 140.461875 -188.450623 
L 140.461875 -187.578824 
L 140.461875 -186.707025 
L 140.461875 -185.835226 
L 140.461875 -184.963427 
L 140.461875 -184.091628 
L 140.461875 -183.219829 
L 140.461875 -182.34803 
L 140.461875 -181.476231 
L 140.461875 -180.604432 
L 140.461875 -179.732633 
L 140.461875 -178.860834 
L 140.461875 -177.989035 
L 140.461875 -177.117236 
L 140.461875 -176.245437 
L 140.461875 -175.373638 
L 140.461875 -174.501839 
L 140.461875 -173.63004 
L 140.461875 -172.758241 
L 140.461875 -171.886442 
L 140.461875 -171.014643 
L 140.461875 -170.142844 
L 140.461875 -169.271045 
L 140.461875 -168.399246 
L 140.461875 -167.527447 
L 140.461875 -166.655648 
L 140.461875 -165.783849 
L 140.461875 -164.91205 
L 140.461875 -164.040251 
L 140.461875 -163.168452 
L 140.461875 -162.296653 
L 140.461875 -161.424854 
L 140.461875 -160.553055 
L 140.461875 -159.681256 
L 140.461875 -158.809456 
L 140.461875 -157.937657 
L 140.461875 -157.065858 
L 140.461875 -156.194059 
L 140.461875 -155.32226 
L 140.461875 -154.450461 
L 140.461875 -153.578662 
L 140.461875 -152.706863 
L 140.461875 -151.835064 
L 140.461875 -150.963265 
L 140.461875 -150.091466 
L 140.461875 -149.219667 
L 140.461875 -148.347868 
L 140.461875 -147.476069 
L 140.461875 -146.60427 
L 140.461875 -145.732471 
L 140.461875 -144.860672 
L 140.461875 -143.988873 
L 140.461875 -143.117074 
L 140.461875 -142.245275 
L 140.461875 -141.373476 
L 140.461875 -140.501677 
L 140.461875 -139.629878 
L 140.461875 -138.758079 
L 140.461875 -137.88628 
L 140.461875 -137.014481 
L 140.461875 -136.142682 
L 140.461875 -135.270883 
L 140.461875 -134.399084 
L 140.461875 -133.527285 
L 140.461875 -132.655486 
L 140.461875 -131.783687 
L 140.461875 -130.911888 
L 140.461875 -130.040089 
L 140.461875 -129.16829 
L 140.461875 -128.296491 
L 140.461875 -127.424692 
L 140.461875 -126.552893 
L 140.461875 -125.681094 
L 140.461875 -124.809294 
L 140.461875 -123.937495 
L 140.461875 -123.065696 
z
" style="stroke: #545454; stroke-width: 1.25"/>
    </defs>
    <g clip-path="url(#p06f63b50dc)">
     <use xlink:href="#meb4dec00e4" x="0" y="360" style="fill: #597dbf; stroke: #545454; stroke-width: 1.25"/>
    </g>
   </g>
   <g id="PolyCollection_2">
    <defs>
     <path id="mc10dd993ce" d="M 142.215932 -131.311494 
L 140.461875 -131.311494 
L 140.461875 -131.942593 
L 140.461875 -132.573693 
L 140.461875 -133.204792 
L 140.461875 -133.835891 
L 140.461875 -134.46699 
L 140.461875 -135.09809 
L 140.461875 -135.729189 
L 140.461875 -136.360288 
L 140.461875 -136.991387 
L 140.461875 -137.622487 
L 140.461875 -138.253586 
L 140.461875 -138.884685 
L 140.461875 -139.515785 
L 140.461875 -140.146884 
L 140.461875 -140.777983 
L 140.461875 -141.409082 
L 140.461875 -142.040182 
L 140.461875 -142.671281 
L 140.461875 -143.30238 
L 140.461875 -143.933479 
L 140.461875 -144.564579 
L 140.461875 -145.195678 
L 140.461875 -145.826777 
L 140.461875 -146.457876 
L 140.461875 -147.088976 
L 140.461875 -147.720075 
L 140.461875 -148.351174 
L 140.461875 -148.982274 
L 140.461875 -149.613373 
L 140.461875 -150.244472 
L 140.461875 -150.875571 
L 140.461875 -151.506671 
L 140.461875 -152.13777 
L 140.461875 -152.768869 
L 140.461875 -153.399968 
L 140.461875 -154.031068 
L 140.461875 -154.662167 
L 140.461875 -155.293266 
L 140.461875 -155.924366 
L 140.461875 -156.555465 
L 140.461875 -157.186564 
L 140.461875 -157.817663 
L 140.461875 -158.448763 
L 140.461875 -159.079862 
L 140.461875 -159.710961 
L 140.461875 -160.34206 
L 140.461875 -160.97316 
L 140.461875 -161.604259 
L 140.461875 -162.235358 
L 140.461875 -162.866458 
L 140.461875 -163.497557 
L 140.461875 -164.128656 
L 140.461875 -164.759755 
L 140.461875 -165.390855 
L 140.461875 -166.021954 
L 140.461875 -166.653053 
L 140.461875 -167.284152 
L 140.461875 -167.915252 
L 140.461875 -168.546351 
L 140.461875 -169.17745 
L 140.461875 -169.80855 
L 140.461875 -170.439649 
L 140.461875 -171.070748 
L 140.461875 -171.701847 
L 140.461875 -172.332947 
L 140.461875 -172.964046 
L 140.461875 -173.595145 
L 140.461875 -174.226244 
L 140.461875 -174.857344 
L 140.461875 -175.488443 
L 140.461875 -176.119542 
L 140.461875 -176.750642 
L 140.461875 -177.381741 
L 140.461875 -178.01284 
L 140.461875 -178.643939 
L 140.461875 -179.275039 
L 140.461875 -179.906138 
L 140.461875 -180.537237 
L 140.461875 -181.168336 
L 140.461875 -181.799436 
L 140.461875 -182.430535 
L 140.461875 -183.061634 
L 140.461875 -183.692734 
L 140.461875 -184.323833 
L 140.461875 -184.954932 
L 140.461875 -185.586031 
L 140.461875 -186.217131 
L 140.461875 -186.84823 
L 140.461875 -187.479329 
L 140.461875 -188.110428 
L 140.461875 -188.741528 
L 140.461875 -189.372627 
L 140.461875 -190.003726 
L 140.461875 -190.634826 
L 140.461875 -191.265925 
L 140.461875 -191.897024 
L 140.461875 -192.528123 
L 140.461875 -193.159223 
L 140.461875 -193.790322 
L 141.846311 -193.790322 
L 141.846311 -193.790322 
L 142.232159 -193.159223 
L 142.702149 -192.528123 
L 143.267867 -191.897024 
L 143.940764 -191.265925 
L 144.731689 -190.634826 
L 145.650367 -190.003726 
L 146.704842 -189.372627 
L 147.900927 -188.741528 
L 149.241695 -188.110428 
L 150.727048 -187.479329 
L 152.353407 -186.84823 
L 154.113567 -186.217131 
L 155.996738 -185.586031 
L 157.988788 -184.954932 
L 160.072702 -184.323833 
L 162.229225 -183.692734 
L 164.437677 -183.061634 
L 166.676873 -182.430535 
L 168.926101 -181.799436 
L 171.166075 -181.168336 
L 173.379795 -180.537237 
L 175.553243 -179.906138 
L 177.675852 -179.275039 
L 179.740703 -178.643939 
L 181.744439 -178.01284 
L 183.686877 -177.381741 
L 185.570379 -176.750642 
L 187.399002 -176.119542 
L 189.177538 -175.488443 
L 190.910493 -174.857344 
L 192.601129 -174.226244 
L 194.250639 -173.595145 
L 195.857532 -172.964046 
L 197.417274 -172.332947 
L 198.922226 -171.701847 
L 200.361859 -171.070748 
L 201.723216 -170.439649 
L 202.991581 -169.80855 
L 204.151271 -169.17745 
L 205.186485 -168.546351 
L 206.082142 -167.915252 
L 206.824633 -167.284152 
L 207.402465 -166.653053 
L 207.806763 -166.021954 
L 208.03163 -165.390855 
L 208.074375 -164.759755 
L 207.935641 -164.128656 
L 207.61944 -163.497557 
L 207.133133 -162.866458 
L 206.487337 -162.235358 
L 205.695785 -161.604259 
L 204.775096 -160.97316 
L 203.744446 -160.34206 
L 202.625114 -159.710961 
L 201.439872 -159.079862 
L 200.212238 -158.448763 
L 198.965576 -157.817663 
L 197.722101 -157.186564 
L 196.501831 -156.555465 
L 195.321558 -155.924366 
L 194.193918 -155.293266 
L 193.126643 -154.662167 
L 192.122055 -154.031068 
L 191.176866 -153.399968 
L 190.282311 -152.768869 
L 189.424606 -152.13777 
L 188.585733 -151.506671 
L 187.744474 -150.875571 
L 186.87765 -150.244472 
L 185.961471 -149.613373 
L 184.972921 -148.982274 
L 183.891086 -148.351174 
L 182.698347 -147.720075 
L 181.381383 -147.088976 
L 179.931921 -146.457876 
L 178.347211 -145.826777 
L 176.630204 -145.195678 
L 174.789443 -144.564579 
L 172.838677 -143.933479 
L 170.796236 -143.30238 
L 168.684204 -142.671281 
L 166.527441 -142.040182 
L 164.35252 -141.409082 
L 162.186622 -140.777983 
L 160.056454 -140.146884 
L 157.987249 -139.515785 
L 156.001887 -138.884685 
L 154.120176 -138.253586 
L 152.358323 -137.622487 
L 150.728611 -136.991387 
L 149.239268 -136.360288 
L 147.894544 -135.729189 
L 146.694948 -135.09809 
L 145.637629 -134.46699 
L 144.716867 -133.835891 
L 143.924619 -133.204792 
L 143.251109 -132.573693 
L 142.685399 -131.942593 
L 142.215932 -131.311494 
z
" style="stroke: #545454; stroke-width: 1.25"/>
    </defs>
    <g clip-path="url(#p06f63b50dc)">
     <use xlink:href="#mc10dd993ce" x="0" y="360" style="fill: #d98b5f; stroke: #545454; stroke-width: 1.25"/>
    </g>
   </g>
   <g id="PolyCollection_3">
    <defs>
     <path id="md5462824ae" d="M 309.493125 -117.732167 
L 308.401273 -117.732167 
L 308.007562 -118.637596 
L 307.503835 -119.543025 
L 306.870824 -120.448454 
L 306.08944 -121.353883 
L 305.141896 -122.259312 
L 304.012969 -123.164741 
L 302.69131 -124.070171 
L 301.170678 -124.9756 
L 299.450971 -125.881029 
L 297.538926 -126.786458 
L 295.448378 -127.691887 
L 293.200001 -128.597316 
L 290.820513 -129.502745 
L 288.341381 -130.408174 
L 285.797115 -131.313603 
L 283.223303 -132.219033 
L 280.654563 -133.124462 
L 278.122625 -134.029891 
L 275.654734 -134.93532 
L 273.272521 -135.840749 
L 270.991483 -136.746178 
L 268.821089 -137.651607 
L 266.76549 -138.557036 
L 264.824737 -139.462465 
L 262.996327 -140.367895 
L 261.276881 -141.273324 
L 259.663735 -142.178753 
L 258.156213 -143.084182 
L 256.756443 -143.989611 
L 255.469574 -144.89504 
L 254.303413 -145.800469 
L 253.267509 -146.705898 
L 252.371881 -147.611328 
L 251.62559 -148.516757 
L 251.03542 -149.422186 
L 250.604953 -150.327615 
L 250.334222 -151.233044 
L 250.22009 -152.138473 
L 250.257339 -153.043902 
L 250.440342 -153.949331 
L 250.765055 -154.85476 
L 251.230968 -155.76019 
L 251.842646 -156.665619 
L 252.610481 -157.571048 
L 253.550436 -158.476477 
L 254.682664 -159.381906 
L 256.029104 -160.287335 
L 257.610337 -161.192764 
L 259.442095 -162.098193 
L 261.531945 -163.003622 
L 263.876603 -163.909052 
L 266.460305 -164.814481 
L 269.254461 -165.71991 
L 272.218669 -166.625339 
L 275.302937 -167.530768 
L 278.450829 -168.436197 
L 281.603124 -169.341626 
L 284.701539 -170.247055 
L 287.692119 -171.152485 
L 290.527949 -172.057914 
L 293.171009 -172.963343 
L 295.593082 -173.868772 
L 297.775795 -174.774201 
L 299.709929 -175.67963 
L 301.394214 -176.585059 
L 302.833836 -177.490488 
L 304.038867 -178.395917 
L 305.022805 -179.301347 
L 305.801337 -180.206776 
L 306.391408 -181.112205 
L 306.810613 -182.017634 
L 307.076889 -182.923063 
L 307.208461 -183.828492 
L 307.223936 -184.733921 
L 307.142482 -185.63935 
L 306.983964 -186.544779 
L 306.768961 -187.450209 
L 306.518599 -188.355638 
L 306.254141 -189.261067 
L 305.996366 -190.166496 
L 305.764743 -191.071925 
L 305.576518 -191.977354 
L 305.445784 -192.882783 
L 305.382693 -193.788212 
L 305.392889 -194.693642 
L 305.477276 -195.599071 
L 305.632152 -196.5045 
L 305.849719 -197.409929 
L 306.118906 -198.315358 
L 306.426426 -199.220787 
L 306.757936 -200.126216 
L 307.099185 -201.031645 
L 307.437029 -201.937074 
L 307.760221 -202.842504 
L 308.059932 -203.747933 
L 308.329984 -204.653362 
L 308.566814 -205.558791 
L 308.769227 -206.46422 
L 308.937996 -207.369649 
L 309.493125 -207.369649 
L 309.493125 -207.369649 
L 309.493125 -206.46422 
L 309.493125 -205.558791 
L 309.493125 -204.653362 
L 309.493125 -203.747933 
L 309.493125 -202.842504 
L 309.493125 -201.937074 
L 309.493125 -201.031645 
L 309.493125 -200.126216 
L 309.493125 -199.220787 
L 309.493125 -198.315358 
L 309.493125 -197.409929 
L 309.493125 -196.5045 
L 309.493125 -195.599071 
L 309.493125 -194.693642 
L 309.493125 -193.788212 
L 309.493125 -192.882783 
L 309.493125 -191.977354 
L 309.493125 -191.071925 
L 309.493125 -190.166496 
L 309.493125 -189.261067 
L 309.493125 -188.355638 
L 309.493125 -187.450209 
L 309.493125 -186.544779 
L 309.493125 -185.63935 
L 309.493125 -184.733921 
L 309.493125 -183.828492 
L 309.493125 -182.923063 
L 309.493125 -182.017634 
L 309.493125 -181.112205 
L 309.493125 -180.206776 
L 309.493125 -179.301347 
L 309.493125 -178.395917 
L 309.493125 -177.490488 
L 309.493125 -176.585059 
L 309.493125 -175.67963 
L 309.493125 -174.774201 
L 309.493125 -173.868772 
L 309.493125 -172.963343 
L 309.493125 -172.057914 
L 309.493125 -171.152485 
L 309.493125 -170.247055 
L 309.493125 -169.341626 
L 309.493125 -168.436197 
L 309.493125 -167.530768 
L 309.493125 -166.625339 
L 309.493125 -165.71991 
L 309.493125 -164.814481 
L 309.493125 -163.909052 
L 309.493125 -163.003622 
L 309.493125 -162.098193 
L 309.493125 -161.192764 
L 309.493125 -160.287335 
L 309.493125 -159.381906 
L 309.493125 -158.476477 
L 309.493125 -157.571048 
L 309.493125 -156.665619 
L 309.493125 -155.76019 
L 309.493125 -154.85476 
L 309.493125 -153.949331 
L 309.493125 -153.043902 
L 309.493125 -152.138473 
L 309.493125 -151.233044 
L 309.493125 -150.327615 
L 309.493125 -149.422186 
L 309.493125 -148.516757 
L 309.493125 -147.611328 
L 309.493125 -146.705898 
L 309.493125 -145.800469 
L 309.493125 -144.89504 
L 309.493125 -143.989611 
L 309.493125 -143.084182 
L 309.493125 -142.178753 
L 309.493125 -141.273324 
L 309.493125 -140.367895 
L 309.493125 -139.462465 
L 309.493125 -138.557036 
L 309.493125 -137.651607 
L 309.493125 -136.746178 
L 309.493125 -135.840749 
L 309.493125 -134.93532 
L 309.493125 -134.029891 
L 309.493125 -133.124462 
L 309.493125 -132.219033 
L 309.493125 -131.313603 
L 309.493125 -130.408174 
L 309.493125 -129.502745 
L 309.493125 -128.597316 
L 309.493125 -127.691887 
L 309.493125 -126.786458 
L 309.493125 -125.881029 
L 309.493125 -124.9756 
L 309.493125 -124.070171 
L 309.493125 -123.164741 
L 309.493125 -122.259312 
L 309.493125 -121.353883 
L 309.493125 -120.448454 
L 309.493125 -119.543025 
L 309.493125 -118.637596 
L 309.493125 -117.732167 
z
" style="stroke: #545454; stroke-width: 1.25"/>
    </defs>
    <g clip-path="url(#p06f63b50dc)">
     <use xlink:href="#md5462824ae" x="0" y="360" style="fill: #597dbf; stroke: #545454; stroke-width: 1.25"/>
    </g>
   </g>
   <g id="PolyCollection_4">
    <defs>
     <path id="maa08d01a9a" d="M 309.988023 -131.835141 
L 309.493125 -131.835141 
L 309.493125 -132.789193 
L 309.493125 -133.743244 
L 309.493125 -134.697296 
L 309.493125 -135.651347 
L 309.493125 -136.605399 
L 309.493125 -137.55945 
L 309.493125 -138.513502 
L 309.493125 -139.467553 
L 309.493125 -140.421605 
L 309.493125 -141.375656 
L 309.493125 -142.329708 
L 309.493125 -143.283759 
L 309.493125 -144.23781 
L 309.493125 -145.191862 
L 309.493125 -146.145913 
L 309.493125 -147.099965 
L 309.493125 -148.054016 
L 309.493125 -149.008068 
L 309.493125 -149.962119 
L 309.493125 -150.916171 
L 309.493125 -151.870222 
L 309.493125 -152.824274 
L 309.493125 -153.778325 
L 309.493125 -154.732377 
L 309.493125 -155.686428 
L 309.493125 -156.64048 
L 309.493125 -157.594531 
L 309.493125 -158.548583 
L 309.493125 -159.502634 
L 309.493125 -160.456686 
L 309.493125 -161.410737 
L 309.493125 -162.364788 
L 309.493125 -163.31884 
L 309.493125 -164.272891 
L 309.493125 -165.226943 
L 309.493125 -166.180994 
L 309.493125 -167.135046 
L 309.493125 -168.089097 
L 309.493125 -169.043149 
L 309.493125 -169.9972 
L 309.493125 -170.951252 
L 309.493125 -171.905303 
L 309.493125 -172.859355 
L 309.493125 -173.813406 
L 309.493125 -174.767458 
L 309.493125 -175.721509 
L 309.493125 -176.675561 
L 309.493125 -177.629612 
L 309.493125 -178.583663 
L 309.493125 -179.537715 
L 309.493125 -180.491766 
L 309.493125 -181.445818 
L 309.493125 -182.399869 
L 309.493125 -183.353921 
L 309.493125 -184.307972 
L 309.493125 -185.262024 
L 309.493125 -186.216075 
L 309.493125 -187.170127 
L 309.493125 -188.124178 
L 309.493125 -189.07823 
L 309.493125 -190.032281 
L 309.493125 -190.986333 
L 309.493125 -191.940384 
L 309.493125 -192.894436 
L 309.493125 -193.848487 
L 309.493125 -194.802538 
L 309.493125 -195.75659 
L 309.493125 -196.710641 
L 309.493125 -197.664693 
L 309.493125 -198.618744 
L 309.493125 -199.572796 
L 309.493125 -200.526847 
L 309.493125 -201.480899 
L 309.493125 -202.43495 
L 309.493125 -203.389002 
L 309.493125 -204.343053 
L 309.493125 -205.297105 
L 309.493125 -206.251156 
L 309.493125 -207.205208 
L 309.493125 -208.159259 
L 309.493125 -209.113311 
L 309.493125 -210.067362 
L 309.493125 -211.021414 
L 309.493125 -211.975465 
L 309.493125 -212.929516 
L 309.493125 -213.883568 
L 309.493125 -214.837619 
L 309.493125 -215.791671 
L 309.493125 -216.745722 
L 309.493125 -217.699774 
L 309.493125 -218.653825 
L 309.493125 -219.607877 
L 309.493125 -220.561928 
L 309.493125 -221.51598 
L 309.493125 -222.470031 
L 309.493125 -223.424083 
L 309.493125 -224.378134 
L 309.493125 -225.332186 
L 309.493125 -226.286237 
L 310.088279 -226.286237 
L 310.088279 -226.286237 
L 310.270575 -225.332186 
L 310.494875 -224.378134 
L 310.766666 -223.424083 
L 311.091111 -222.470031 
L 311.472832 -221.51598 
L 311.915721 -220.561928 
L 312.422819 -219.607877 
L 312.996296 -218.653825 
L 313.637534 -217.699774 
L 314.347349 -216.745722 
L 315.126309 -215.791671 
L 315.975147 -214.837619 
L 316.895223 -213.883568 
L 317.888962 -212.929516 
L 318.960215 -211.975465 
L 320.114477 -211.021414 
L 321.358895 -210.067362 
L 322.702036 -209.113311 
L 324.15338 -208.159259 
L 325.722555 -207.205208 
L 327.418348 -206.251156 
L 329.247535 -205.297105 
L 331.213632 -204.343053 
L 333.315636 -203.389002 
L 335.546874 -202.43495 
L 337.894057 -201.480899 
L 340.336639 -200.526847 
L 342.846569 -199.572796 
L 345.38851 -198.618744 
L 347.920571 -197.664693 
L 350.395575 -196.710641 
L 352.762844 -195.75659 
L 354.970429 -194.802538 
L 356.967697 -193.848487 
L 358.7081 -192.894436 
L 360.151949 -191.940384 
L 361.268962 -190.986333 
L 362.040377 -190.032281 
L 362.460416 -189.07823 
L 362.536937 -188.124178 
L 362.291182 -187.170127 
L 361.756604 -186.216075 
L 360.976836 -185.262024 
L 360.002976 -184.307972 
L 358.890396 -183.353921 
L 357.695349 -182.399869 
L 356.471668 -181.445818 
L 355.267804 -180.491766 
L 354.124448 -179.537715 
L 353.072855 -178.583663 
L 352.133973 -177.629612 
L 351.318341 -176.675561 
L 350.626667 -175.721509 
L 350.05097 -174.767458 
L 349.576084 -173.813406 
L 349.181361 -172.859355 
L 348.842402 -171.905303 
L 348.532692 -170.951252 
L 348.225047 -169.9972 
L 347.892833 -169.043149 
L 347.51095 -168.089097 
L 347.056619 -167.135046 
L 346.509999 -166.180994 
L 345.854698 -165.226943 
L 345.078187 -164.272891 
L 344.172156 -163.31884 
L 343.132785 -162.364788 
L 341.960922 -161.410737 
L 340.662121 -160.456686 
L 339.246499 -159.502634 
L 337.728391 -158.548583 
L 336.12578 -157.594531 
L 334.459507 -156.64048 
L 332.752316 -155.686428 
L 331.027776 -154.732377 
L 329.30917 -153.778325 
L 327.618437 -152.824274 
L 325.975257 -151.870222 
L 324.396344 -150.916171 
L 322.895003 -149.962119 
L 321.48096 -149.008068 
L 320.160466 -148.054016 
L 318.936616 -147.099965 
L 317.809841 -146.145913 
L 316.778486 -145.191862 
L 315.839401 -144.23781 
L 314.988493 -143.283759 
L 314.221172 -142.329708 
L 313.532687 -141.375656 
L 312.918327 -140.421605 
L 312.373512 -139.467553 
L 311.893796 -138.513502 
L 311.474816 -137.55945 
L 311.112221 -136.605399 
L 310.801608 -135.651347 
L 310.538485 -134.697296 
L 310.318268 -133.743244 
L 310.136321 -132.789193 
L 309.988023 -131.835141 
z
" style="stroke: #545454; stroke-width: 1.25"/>
    </defs>
    <g clip-path="url(#p06f63b50dc)">
     <use xlink:href="#maa08d01a9a" x="0" y="360" style="fill: #d98b5f; stroke: #545454; stroke-width: 1.25"/>
    </g>
   </g>
   <g id="PolyCollection_5">
    <defs>
     <path id="m7153a46092" d="M 478.524375 -76.61101 
L 477.51768 -76.61101 
L 477.190664 -78.912319 
L 476.781169 -81.213628 
L 476.276284 -83.514938 
L 475.663381 -85.816247 
L 474.930843 -88.117556 
L 474.068875 -90.418865 
L 473.070376 -92.720174 
L 471.931795 -95.021484 
L 470.653918 -97.322793 
L 469.242505 -99.624102 
L 467.708726 -101.925411 
L 466.069324 -104.22672 
L 464.346495 -106.528029 
L 462.567439 -108.829339 
L 460.763623 -111.130648 
L 458.969763 -113.431957 
L 457.222594 -115.733266 
L 455.559484 -118.034575 
L 454.016981 -120.335885 
L 452.629364 -122.637194 
L 451.427273 -124.938503 
L 450.436507 -127.239812 
L 449.677028 -129.541121 
L 449.162237 -131.842431 
L 448.898552 -134.14374 
L 448.88531 -136.445049 
L 449.114991 -138.746358 
L 449.57376 -141.047667 
L 450.24228 -143.348977 
L 451.096766 -145.650286 
L 452.110185 -147.951595 
L 453.25355 -150.252904 
L 454.497203 -152.554213 
L 455.81202 -154.855523 
L 457.170444 -157.156832 
L 458.547314 -159.458141 
L 459.920438 -161.75945 
L 461.270903 -164.060759 
L 462.583153 -166.362069 
L 463.844853 -168.663378 
L 465.046608 -170.964687 
L 466.181584 -173.265996 
L 467.245096 -175.567305 
L 468.23421 -177.868615 
L 469.147392 -180.169924 
L 469.984235 -182.471233 
L 470.745255 -184.772542 
L 471.431761 -187.073851 
L 472.045777 -189.375161 
L 472.589998 -191.67647 
L 473.067755 -193.977779 
L 473.48297 -196.279088 
L 473.840098 -198.580397 
L 474.144038 -200.881706 
L 474.400025 -203.183016 
L 474.613493 -205.484325 
L 474.789934 -207.785634 
L 474.934758 -210.086943 
L 475.053159 -212.388252 
L 475.15 -214.689562 
L 475.229722 -216.990871 
L 475.296281 -219.29218 
L 475.353107 -221.593489 
L 475.403089 -223.894798 
L 475.44858 -226.196108 
L 475.49142 -228.497417 
L 475.532972 -230.798726 
L 475.574174 -233.100035 
L 475.61561 -235.401344 
L 475.657589 -237.702654 
L 475.700241 -240.003963 
L 475.743622 -242.305272 
L 475.787824 -244.606581 
L 475.833077 -246.90789 
L 475.87983 -249.2092 
L 475.928809 -251.510509 
L 475.981027 -253.811818 
L 476.037751 -256.113127 
L 476.10042 -258.414436 
L 476.170522 -260.715746 
L 476.249439 -263.017055 
L 476.338283 -265.318364 
L 476.437744 -267.619673 
L 476.54796 -269.920982 
L 476.668441 -272.222292 
L 476.798049 -274.523601 
L 476.935039 -276.82491 
L 477.077161 -279.126219 
L 477.221807 -281.427528 
L 477.366183 -283.728837 
L 477.507504 -286.030147 
L 477.643165 -288.331456 
L 477.7709 -290.632765 
L 477.888888 -292.934074 
L 477.995828 -295.235383 
L 478.090954 -297.536693 
L 478.17402 -299.838002 
L 478.245239 -302.139311 
L 478.305207 -304.44062 
L 478.524375 -304.44062 
L 478.524375 -304.44062 
L 478.524375 -302.139311 
L 478.524375 -299.838002 
L 478.524375 -297.536693 
L 478.524375 -295.235383 
L 478.524375 -292.934074 
L 478.524375 -290.632765 
L 478.524375 -288.331456 
L 478.524375 -286.030147 
L 478.524375 -283.728837 
L 478.524375 -281.427528 
L 478.524375 -279.126219 
L 478.524375 -276.82491 
L 478.524375 -274.523601 
L 478.524375 -272.222292 
L 478.524375 -269.920982 
L 478.524375 -267.619673 
L 478.524375 -265.318364 
L 478.524375 -263.017055 
L 478.524375 -260.715746 
L 478.524375 -258.414436 
L 478.524375 -256.113127 
L 478.524375 -253.811818 
L 478.524375 -251.510509 
L 478.524375 -249.2092 
L 478.524375 -246.90789 
L 478.524375 -244.606581 
L 478.524375 -242.305272 
L 478.524375 -240.003963 
L 478.524375 -237.702654 
L 478.524375 -235.401344 
L 478.524375 -233.100035 
L 478.524375 -230.798726 
L 478.524375 -228.497417 
L 478.524375 -226.196108 
L 478.524375 -223.894798 
L 478.524375 -221.593489 
L 478.524375 -219.29218 
L 478.524375 -216.990871 
L 478.524375 -214.689562 
L 478.524375 -212.388252 
L 478.524375 -210.086943 
L 478.524375 -207.785634 
L 478.524375 -205.484325 
L 478.524375 -203.183016 
L 478.524375 -200.881706 
L 478.524375 -198.580397 
L 478.524375 -196.279088 
L 478.524375 -193.977779 
L 478.524375 -191.67647 
L 478.524375 -189.375161 
L 478.524375 -187.073851 
L 478.524375 -184.772542 
L 478.524375 -182.471233 
L 478.524375 -180.169924 
L 478.524375 -177.868615 
L 478.524375 -175.567305 
L 478.524375 -173.265996 
L 478.524375 -170.964687 
L 478.524375 -168.663378 
L 478.524375 -166.362069 
L 478.524375 -164.060759 
L 478.524375 -161.75945 
L 478.524375 -159.458141 
L 478.524375 -157.156832 
L 478.524375 -154.855523 
L 478.524375 -152.554213 
L 478.524375 -150.252904 
L 478.524375 -147.951595 
L 478.524375 -145.650286 
L 478.524375 -143.348977 
L 478.524375 -141.047667 
L 478.524375 -138.746358 
L 478.524375 -136.445049 
L 478.524375 -134.14374 
L 478.524375 -131.842431 
L 478.524375 -129.541121 
L 478.524375 -127.239812 
L 478.524375 -124.938503 
L 478.524375 -122.637194 
L 478.524375 -120.335885 
L 478.524375 -118.034575 
L 478.524375 -115.733266 
L 478.524375 -113.431957 
L 478.524375 -111.130648 
L 478.524375 -108.829339 
L 478.524375 -106.528029 
L 478.524375 -104.22672 
L 478.524375 -101.925411 
L 478.524375 -99.624102 
L 478.524375 -97.322793 
L 478.524375 -95.021484 
L 478.524375 -92.720174 
L 478.524375 -90.418865 
L 478.524375 -88.117556 
L 478.524375 -85.816247 
L 478.524375 -83.514938 
L 478.524375 -81.213628 
L 478.524375 -78.912319 
L 478.524375 -76.61101 
z
" style="stroke: #545454; stroke-width: 1.25"/>
    </defs>
    <g clip-path="url(#p06f63b50dc)">
     <use xlink:href="#m7153a46092" x="0" y="360" style="fill: #597dbf; stroke: #545454; stroke-width: 1.25"/>
    </g>
   </g>
   <g id="PolyCollection_6">
    <defs>
     <path id="m6d1d0a2b26" d="M 478.759493 -60.231818 
L 478.524375 -60.231818 
L 478.524375 -62.836226 
L 478.524375 -65.440634 
L 478.524375 -68.045041 
L 478.524375 -70.649449 
L 478.524375 -73.253857 
L 478.524375 -75.858264 
L 478.524375 -78.462672 
L 478.524375 -81.06708 
L 478.524375 -83.671488 
L 478.524375 -86.275895 
L 478.524375 -88.880303 
L 478.524375 -91.484711 
L 478.524375 -94.089118 
L 478.524375 -96.693526 
L 478.524375 -99.297934 
L 478.524375 -101.902342 
L 478.524375 -104.506749 
L 478.524375 -107.111157 
L 478.524375 -109.715565 
L 478.524375 -112.319972 
L 478.524375 -114.92438 
L 478.524375 -117.528788 
L 478.524375 -120.133196 
L 478.524375 -122.737603 
L 478.524375 -125.342011 
L 478.524375 -127.946419 
L 478.524375 -130.550826 
L 478.524375 -133.155234 
L 478.524375 -135.759642 
L 478.524375 -138.36405 
L 478.524375 -140.968457 
L 478.524375 -143.572865 
L 478.524375 -146.177273 
L 478.524375 -148.78168 
L 478.524375 -151.386088 
L 478.524375 -153.990496 
L 478.524375 -156.594904 
L 478.524375 -159.199311 
L 478.524375 -161.803719 
L 478.524375 -164.408127 
L 478.524375 -167.012534 
L 478.524375 -169.616942 
L 478.524375 -172.22135 
L 478.524375 -174.825758 
L 478.524375 -177.430165 
L 478.524375 -180.034573 
L 478.524375 -182.638981 
L 478.524375 -185.243388 
L 478.524375 -187.847796 
L 478.524375 -190.452204 
L 478.524375 -193.056612 
L 478.524375 -195.661019 
L 478.524375 -198.265427 
L 478.524375 -200.869835 
L 478.524375 -203.474242 
L 478.524375 -206.07865 
L 478.524375 -208.683058 
L 478.524375 -211.287466 
L 478.524375 -213.891873 
L 478.524375 -216.496281 
L 478.524375 -219.100689 
L 478.524375 -221.705096 
L 478.524375 -224.309504 
L 478.524375 -226.913912 
L 478.524375 -229.51832 
L 478.524375 -232.122727 
L 478.524375 -234.727135 
L 478.524375 -237.331543 
L 478.524375 -239.93595 
L 478.524375 -242.540358 
L 478.524375 -245.144766 
L 478.524375 -247.749174 
L 478.524375 -250.353581 
L 478.524375 -252.957989 
L 478.524375 -255.562397 
L 478.524375 -258.166804 
L 478.524375 -260.771212 
L 478.524375 -263.37562 
L 478.524375 -265.980028 
L 478.524375 -268.584435 
L 478.524375 -271.188843 
L 478.524375 -273.793251 
L 478.524375 -276.397658 
L 478.524375 -279.002066 
L 478.524375 -281.606474 
L 478.524375 -284.210882 
L 478.524375 -286.815289 
L 478.524375 -289.419697 
L 478.524375 -292.024105 
L 478.524375 -294.628512 
L 478.524375 -297.23292 
L 478.524375 -299.837328 
L 478.524375 -302.441736 
L 478.524375 -305.046143 
L 478.524375 -307.650551 
L 478.524375 -310.254959 
L 478.524375 -312.859366 
L 478.524375 -315.463774 
L 478.524375 -318.068182 
L 478.820153 -318.068182 
L 478.820153 -318.068182 
L 478.92489 -315.463774 
L 479.055919 -312.859366 
L 479.215869 -310.254959 
L 479.40631 -307.650551 
L 479.627341 -305.046143 
L 479.877253 -302.441736 
L 480.152294 -299.837328 
L 480.44663 -297.23292 
L 480.752516 -294.628512 
L 481.060702 -292.024105 
L 481.361054 -289.419697 
L 481.643344 -286.815289 
L 481.898116 -284.210882 
L 482.117542 -281.606474 
L 482.296164 -279.002066 
L 482.431446 -276.397658 
L 482.524086 -273.793251 
L 482.578079 -271.188843 
L 482.600587 -268.584435 
L 482.601672 -265.980028 
L 482.593979 -263.37562 
L 482.592463 -260.771212 
L 482.614196 -258.166804 
L 482.678261 -255.562397 
L 482.805691 -252.957989 
L 483.019355 -250.353581 
L 483.343661 -247.749174 
L 483.803958 -245.144766 
L 484.425526 -242.540358 
L 485.232097 -239.93595 
L 486.243927 -237.331543 
L 487.475521 -234.727135 
L 488.93319 -232.122727 
L 490.61268 -229.51832 
L 492.497185 -226.913912 
L 494.556052 -224.309504 
L 496.744441 -221.705096 
L 499.004192 -219.100689 
L 501.265982 -216.496281 
L 503.45275 -213.891873 
L 505.484207 -211.287466 
L 507.282077 -208.683058 
L 508.775607 -206.07865 
L 509.906775 -203.474242 
L 510.634651 -200.869835 
L 510.938398 -198.265427 
L 510.818573 -195.661019 
L 510.296549 -193.056612 
L 509.412156 -190.452204 
L 508.219784 -187.847796 
L 506.783455 -185.243388 
L 505.171386 -182.638981 
L 503.450679 -180.034573 
L 501.682657 -177.430165 
L 499.919289 -174.825758 
L 498.200948 -172.22135 
L 496.555607 -169.616942 
L 494.999365 -167.012534 
L 493.538076 -164.408127 
L 492.169743 -161.803719 
L 490.887304 -159.199311 
L 489.681413 -156.594904 
L 488.542907 -153.990496 
L 487.464686 -151.386088 
L 486.442894 -148.78168 
L 485.477333 -146.177273 
L 484.571217 -143.572865 
L 483.730385 -140.968457 
L 482.962184 -138.36405 
L 482.274216 -135.759642 
L 481.673144 -133.155234 
L 481.163691 -130.550826 
L 480.747918 -127.946419 
L 480.424814 -125.342011 
L 480.190193 -122.737603 
L 480.036839 -120.133196 
L 479.954861 -117.528788 
L 479.932214 -114.92438 
L 479.955315 -112.319972 
L 480.009759 -109.715565 
L 480.081066 -107.111157 
L 480.155458 -104.506749 
L 480.220601 -101.902342 
L 480.266262 -99.297934 
L 480.284836 -96.693526 
L 480.27167 -94.089118 
L 480.225159 -91.484711 
L 480.146583 -88.880303 
L 480.039714 -86.275895 
L 479.910229 -83.671488 
L 479.765008 -81.06708 
L 479.611383 -78.462672 
L 479.456454 -75.858264 
L 479.306513 -73.253857 
L 479.166636 -70.649449 
L 479.040471 -68.045041 
L 478.930195 -65.440634 
L 478.836637 -62.836226 
L 478.759493 -60.231818 
z
" style="stroke: #545454; stroke-width: 1.25"/>
    </defs>
    <g clip-path="url(#p06f63b50dc)">
     <use xlink:href="#m6d1d0a2b26" x="0" y="360" style="fill: #d98b5f; stroke: #545454; stroke-width: 1.25"/>
    </g>
   </g>
   <g id="patch_3">
    <path d="M 140.461875 224.048184 
L 140.461875 224.048184 
L 140.461875 224.048184 
L 140.461875 224.048184 
z
" clip-path="url(#p06f63b50dc)" style="fill: #597dbf; stroke: #545454; stroke-width: 1.25; stroke-linejoin: miter"/>
   </g>
   <g id="patch_4">
    <path d="M 140.461875 224.048184 
L 140.461875 224.048184 
L 140.461875 224.048184 
L 140.461875 224.048184 
z
" clip-path="url(#p06f63b50dc)" style="fill: #d98b5f; stroke: #545454; stroke-width: 1.25; stroke-linejoin: miter"/>
   </g>
   <g id="line2d_7">
    <path d="M 76.107839 199.512815 
L 140.461875 199.512815 
" clip-path="url(#p06f63b50dc)" style="fill: none; stroke-dasharray: 1.5625,0.9375; stroke-dashoffset: 0; stroke: #545454; stroke-width: 1.25"/>
   </g>
   <g id="line2d_8">
    <path d="M 73.339476 195.156067 
L 140.461875 195.156067 
" clip-path="url(#p06f63b50dc)" style="fill: none; stroke-dasharray: 3.125,1.25; stroke-dashoffset: 0; stroke: #545454; stroke-width: 1.25"/>
   </g>
   <g id="line2d_9">
    <path d="M 100.563434 183.805592 
L 140.461875 183.805592 
" clip-path="url(#p06f63b50dc)" style="fill: none; stroke-dasharray: 1.5625,0.9375; stroke-dashoffset: 0; stroke: #545454; stroke-width: 1.25"/>
   </g>
   <g id="line2d_10">
    <path d="M 140.461875 206.965147 
L 190.659332 206.965147 
" clip-path="url(#p06f63b50dc)" style="fill: none; stroke-dasharray: 1.5625,0.9375; stroke-dashoffset: 0; stroke: #545454; stroke-width: 1.25"/>
   </g>
   <g id="line2d_11">
    <path d="M 140.461875 197.907697 
L 206.30791 197.907697 
" clip-path="url(#p06f63b50dc)" style="fill: none; stroke-dasharray: 3.125,1.25; stroke-dashoffset: 0; stroke: #545454; stroke-width: 1.25"/>
   </g>
   <g id="line2d_12">
    <path d="M 140.461875 190.570017 
L 203.687223 190.570017 
" clip-path="url(#p06f63b50dc)" style="fill: none; stroke-dasharray: 1.5625,0.9375; stroke-dashoffset: 0; stroke: #545454; stroke-width: 1.25"/>
   </g>
   <g id="line2d_13">
    <path d="M 256.610841 215.907945 
L 309.493125 215.907945 
" clip-path="url(#p06f63b50dc)" style="fill: none; stroke-dasharray: 1.5625,0.9375; stroke-dashoffset: 0; stroke: #545454; stroke-width: 1.25"/>
   </g>
   <g id="line2d_14">
    <path d="M 250.237168 207.997008 
L 309.493125 207.997008 
" clip-path="url(#p06f63b50dc)" style="fill: none; stroke-dasharray: 3.125,1.25; stroke-dashoffset: 0; stroke: #545454; stroke-width: 1.25"/>
   </g>
   <g id="line2d_15">
    <path d="M 257.37925 198.939558 
L 309.493125 198.939558 
" clip-path="url(#p06f63b50dc)" style="fill: none; stroke-dasharray: 1.5625,0.9375; stroke-dashoffset: 0; stroke: #545454; stroke-width: 1.25"/>
   </g>
   <g id="line2d_16">
    <path d="M 309.493125 191.028622 
L 347.864105 191.028622 
" clip-path="url(#p06f63b50dc)" style="fill: none; stroke-dasharray: 1.5625,0.9375; stroke-dashoffset: 0; stroke: #545454; stroke-width: 1.25"/>
   </g>
   <g id="line2d_17">
    <path d="M 309.493125 175.43605 
L 360.264268 175.43605 
" clip-path="url(#p06f63b50dc)" style="fill: none; stroke-dasharray: 3.125,1.25; stroke-dashoffset: 0; stroke: #545454; stroke-width: 1.25"/>
   </g>
   <g id="line2d_18">
    <path d="M 309.493125 169.01558 
L 361.270508 169.01558 
" clip-path="url(#p06f63b50dc)" style="fill: none; stroke-dasharray: 1.5625,0.9375; stroke-dashoffset: 0; stroke: #545454; stroke-width: 1.25"/>
   </g>
   <g id="line2d_19">
    <path d="M 449.982953 231.385865 
L 478.524375 231.385865 
" clip-path="url(#p06f63b50dc)" style="fill: none; stroke-dasharray: 1.5625,0.9375; stroke-dashoffset: 0; stroke: #545454; stroke-width: 1.25"/>
   </g>
   <g id="line2d_20">
    <path d="M 449.380707 219.920739 
L 478.524375 219.920739 
" clip-path="url(#p06f63b50dc)" style="fill: none; stroke-dasharray: 3.125,1.25; stroke-dashoffset: 0; stroke: #545454; stroke-width: 1.25"/>
   </g>
   <g id="line2d_21">
    <path d="M 457.379502 202.493747 
L 478.524375 202.493747 
" clip-path="url(#p06f63b50dc)" style="fill: none; stroke-dasharray: 1.5625,0.9375; stroke-dashoffset: 0; stroke: #545454; stroke-width: 1.25"/>
   </g>
   <g id="line2d_22">
    <path d="M 478.524375 178.187681 
L 504.625218 178.187681 
" clip-path="url(#p06f63b50dc)" style="fill: none; stroke-dasharray: 1.5625,0.9375; stroke-dashoffset: 0; stroke: #545454; stroke-width: 1.25"/>
   </g>
   <g id="line2d_23">
    <path d="M 478.524375 162.595109 
L 510.898806 162.595109 
" clip-path="url(#p06f63b50dc)" style="fill: none; stroke-dasharray: 3.125,1.25; stroke-dashoffset: 0; stroke: #545454; stroke-width: 1.25"/>
   </g>
   <g id="line2d_24">
    <path d="M 478.524375 152.62045 
L 508.02959 152.62045 
" clip-path="url(#p06f63b50dc)" style="fill: none; stroke-dasharray: 1.5625,0.9375; stroke-dashoffset: 0; stroke: #545454; stroke-width: 1.25"/>
   </g>
   <g id="patch_5">
    <path d="M 55.94625 312.66 
L 55.94625 29.04 
" style="fill: none; stroke: #cccccc; stroke-width: 1.25; stroke-linejoin: miter; stroke-linecap: square"/>
   </g>
   <g id="patch_6">
    <path d="M 563.04 312.66 
L 563.04 29.04 
" style="fill: none; stroke: #cccccc; stroke-width: 1.25; stroke-linejoin: miter; stroke-linecap: square"/>
   </g>
   <g id="patch_7">
    <path d="M 55.94625 312.66 
L 563.04 312.66 
" style="fill: none; stroke: #cccccc; stroke-width: 1.25; stroke-linejoin: miter; stroke-linecap: square"/>
   </g>
   <g id="patch_8">
    <path d="M 55.94625 29.04 
L 563.04 29.04 
" style="fill: none; stroke: #cccccc; stroke-width: 1.25; stroke-linejoin: miter; stroke-linecap: square"/>
   </g>
   <g id="text_12">
    <!-- Violin Plot of 2009 Returns by Risk and Fund Type -->
    <g style="fill: #262626" transform="translate(153.326406 23.04) scale(0.14 -0.14)">
     <defs>
      <path id="ArialMT-56" d="M 1803 0 
L 28 4581 
L 684 4581 
L 1875 1253 
Q 2019 853 2116 503 
Q 2222 878 2363 1253 
L 3600 4581 
L 4219 4581 
L 2425 0 
L 1803 0 
z
" transform="scale(0.015625)"/>
      <path id="ArialMT-50" d="M 494 0 
L 494 4581 
L 2222 4581 
Q 2678 4581 2919 4538 
Q 3256 4481 3484 4323 
Q 3713 4166 3852 3881 
Q 3991 3597 3991 3256 
Q 3991 2672 3619 2267 
Q 3247 1863 2275 1863 
L 1100 1863 
L 1100 0 
L 494 0 
z
M 1100 2403 
L 2284 2403 
Q 2872 2403 3119 2622 
Q 3366 2841 3366 3238 
Q 3366 3525 3220 3729 
Q 3075 3934 2838 4000 
Q 2684 4041 2272 4041 
L 1100 4041 
L 1100 2403 
z
" transform="scale(0.015625)"/>
      <path id="ArialMT-66" d="M 556 0 
L 556 2881 
L 59 2881 
L 59 3319 
L 556 3319 
L 556 3672 
Q 556 4006 616 4169 
Q 697 4388 901 4523 
Q 1106 4659 1475 4659 
Q 1713 4659 2000 4603 
L 1916 4113 
Q 1741 4144 1584 4144 
Q 1328 4144 1222 4034 
Q 1116 3925 1116 3625 
L 1116 3319 
L 1763 3319 
L 1763 2881 
L 1116 2881 
L 1116 0 
L 556 0 
z
" transform="scale(0.015625)"/>
      <path id="ArialMT-79" d="M 397 -1278 
L 334 -750 
Q 519 -800 656 -800 
Q 844 -800 956 -737 
Q 1069 -675 1141 -563 
Q 1194 -478 1313 -144 
Q 1328 -97 1363 -6 
L 103 3319 
L 709 3319 
L 1400 1397 
Q 1534 1031 1641 628 
Q 1738 1016 1872 1384 
L 2581 3319 
L 3144 3319 
L 1881 -56 
Q 1678 -603 1566 -809 
Q 1416 -1088 1222 -1217 
Q 1028 -1347 759 -1347 
Q 597 -1347 397 -1278 
z
" transform="scale(0.015625)"/>
      <path id="ArialMT-64" d="M 2575 0 
L 2575 419 
Q 2259 -75 1647 -75 
Q 1250 -75 917 144 
Q 584 363 401 755 
Q 219 1147 219 1656 
Q 219 2153 384 2558 
Q 550 2963 881 3178 
Q 1213 3394 1622 3394 
Q 1922 3394 2156 3267 
Q 2391 3141 2538 2938 
L 2538 4581 
L 3097 4581 
L 3097 0 
L 2575 0 
z
M 797 1656 
Q 797 1019 1065 703 
Q 1334 388 1700 388 
Q 2069 388 2326 689 
Q 2584 991 2584 1609 
Q 2584 2291 2321 2609 
Q 2059 2928 1675 2928 
Q 1300 2928 1048 2622 
Q 797 2316 797 1656 
z
" transform="scale(0.015625)"/>
      <path id="ArialMT-46" d="M 525 0 
L 525 4581 
L 3616 4581 
L 3616 4041 
L 1131 4041 
L 1131 2622 
L 3281 2622 
L 3281 2081 
L 1131 2081 
L 1131 0 
L 525 0 
z
" transform="scale(0.015625)"/>
      <path id="ArialMT-54" d="M 1659 0 
L 1659 4041 
L 150 4041 
L 150 4581 
L 3781 4581 
L 3781 4041 
L 2266 4041 
L 2266 0 
L 1659 0 
z
" transform="scale(0.015625)"/>
      <path id="ArialMT-70" d="M 422 -1272 
L 422 3319 
L 934 3319 
L 934 2888 
Q 1116 3141 1344 3267 
Q 1572 3394 1897 3394 
Q 2322 3394 2647 3175 
Q 2972 2956 3137 2557 
Q 3303 2159 3303 1684 
Q 3303 1175 3120 767 
Q 2938 359 2589 142 
Q 2241 -75 1856 -75 
Q 1575 -75 1351 44 
Q 1128 163 984 344 
L 984 -1272 
L 422 -1272 
z
M 931 1641 
Q 931 1000 1190 694 
Q 1450 388 1819 388 
Q 2194 388 2461 705 
Q 2728 1022 2728 1688 
Q 2728 2322 2467 2637 
Q 2206 2953 1844 2953 
Q 1484 2953 1207 2617 
Q 931 2281 931 1641 
z
" transform="scale(0.015625)"/>
     </defs>
     <use xlink:href="#ArialMT-56"/>
     <use xlink:href="#ArialMT-69" x="64.949219"/>
     <use xlink:href="#ArialMT-6f" x="87.166016"/>
     <use xlink:href="#ArialMT-6c" x="142.78125"/>
     <use xlink:href="#ArialMT-69" x="164.998047"/>
     <use xlink:href="#ArialMT-6e" x="187.214844"/>
     <use xlink:href="#ArialMT-20" x="242.830078"/>
     <use xlink:href="#ArialMT-50" x="270.613281"/>
     <use xlink:href="#ArialMT-6c" x="337.3125"/>
     <use xlink:href="#ArialMT-6f" x="359.529297"/>
     <use xlink:href="#ArialMT-74" x="415.144531"/>
     <use xlink:href="#ArialMT-20" x="442.927734"/>
     <use xlink:href="#ArialMT-6f" x="470.710938"/>
     <use xlink:href="#ArialMT-66" x="526.326172"/>
     <use xlink:href="#ArialMT-20" x="554.109375"/>
     <use xlink:href="#ArialMT-32" x="581.892578"/>
     <use xlink:href="#ArialMT-30" x="637.507812"/>
     <use xlink:href="#ArialMT-30" x="693.123047"/>
     <use xlink:href="#ArialMT-39" x="748.738281"/>
     <use xlink:href="#ArialMT-20" x="804.353516"/>
     <use xlink:href="#ArialMT-52" x="832.136719"/>
     <use xlink:href="#ArialMT-65" x="904.353516"/>
     <use xlink:href="#ArialMT-74" x="959.96875"/>
     <use xlink:href="#ArialMT-75" x="987.751953"/>
     <use xlink:href="#ArialMT-72" x="1043.367188"/>
     <use xlink:href="#ArialMT-6e" x="1076.667969"/>
     <use xlink:href="#ArialMT-73" x="1132.283203"/>
     <use xlink:href="#ArialMT-20" x="1182.283203"/>
     <use xlink:href="#ArialMT-62" x="1210.066406"/>
     <use xlink:href="#ArialMT-79" x="1265.681641"/>
     <use xlink:href="#ArialMT-20" x="1315.681641"/>
     <use xlink:href="#ArialMT-52" x="1343.464844"/>
     <use xlink:href="#ArialMT-69" x="1415.681641"/>
     <use xlink:href="#ArialMT-73" x="1437.898438"/>
     <use xlink:href="#ArialMT-6b" x="1487.898438"/>
     <use xlink:href="#ArialMT-20" x="1537.898438"/>
     <use xlink:href="#ArialMT-61" x="1565.681641"/>
     <use xlink:href="#ArialMT-6e" x="1621.296875"/>
     <use xlink:href="#ArialMT-64" x="1676.912109"/>
     <use xlink:href="#ArialMT-20" x="1732.527344"/>
     <use xlink:href="#ArialMT-46" x="1760.310547"/>
     <use xlink:href="#ArialMT-75" x="1821.394531"/>
     <use xlink:href="#ArialMT-6e" x="1877.009766"/>
     <use xlink:href="#ArialMT-64" x="1932.625"/>
     <use xlink:href="#ArialMT-20" x="1988.240234"/>
     <use xlink:href="#ArialMT-54" x="2014.273438"/>
     <use xlink:href="#ArialMT-79" x="2069.857422"/>
     <use xlink:href="#ArialMT-70" x="2119.857422"/>
     <use xlink:href="#ArialMT-65" x="2175.472656"/>
    </g>
   </g>
   <g id="legend_1">
    <g id="patch_9">
     <path d="M 63.64625 85.70875 
L 223.563906 85.70875 
Q 225.763906 85.70875 225.763906 83.50875 
L 225.763906 36.74 
Q 225.763906 34.54 223.563906 34.54 
L 63.64625 34.54 
Q 61.44625 34.54 61.44625 36.74 
L 61.44625 83.50875 
Q 61.44625 85.70875 63.64625 85.70875 
z
" style="fill: #ffffff; opacity: 0.8; stroke: #cccccc; stroke-linejoin: miter"/>
    </g>
    <g id="text_13">
     <!-- Fund Type -->
     <g style="fill: #262626" transform="translate(115.361016 47.529375) scale(0.12 -0.12)">
      <use xlink:href="#ArialMT-46"/>
      <use xlink:href="#ArialMT-75" x="61.083984"/>
      <use xlink:href="#ArialMT-6e" x="116.699219"/>
      <use xlink:href="#ArialMT-64" x="172.314453"/>
      <use xlink:href="#ArialMT-20" x="227.929688"/>
      <use xlink:href="#ArialMT-54" x="253.962891"/>
      <use xlink:href="#ArialMT-79" x="309.546875"/>
      <use xlink:href="#ArialMT-70" x="359.546875"/>
      <use xlink:href="#ArialMT-65" x="415.162109"/>
     </g>
    </g>
    <g id="patch_10">
     <path d="M 65.84625 63.428594 
L 87.84625 63.428594 
L 87.84625 55.728594 
L 65.84625 55.728594 
z
" style="fill: #597dbf; stroke: #545454; stroke-width: 1.25; stroke-linejoin: miter"/>
    </g>
    <g id="text_14">
     <!-- Intermediate Government -->
     <g style="fill: #262626" transform="translate(96.64625 63.428594) scale(0.11 -0.11)">
      <defs>
       <path id="ArialMT-49" d="M 597 0 
L 597 4581 
L 1203 4581 
L 1203 0 
L 597 0 
z
" transform="scale(0.015625)"/>
       <path id="ArialMT-6d" d="M 422 0 
L 422 3319 
L 925 3319 
L 925 2853 
Q 1081 3097 1340 3245 
Q 1600 3394 1931 3394 
Q 2300 3394 2536 3241 
Q 2772 3088 2869 2813 
Q 3263 3394 3894 3394 
Q 4388 3394 4653 3120 
Q 4919 2847 4919 2278 
L 4919 0 
L 4359 0 
L 4359 2091 
Q 4359 2428 4304 2576 
Q 4250 2725 4106 2815 
Q 3963 2906 3769 2906 
Q 3419 2906 3187 2673 
Q 2956 2441 2956 1928 
L 2956 0 
L 2394 0 
L 2394 2156 
Q 2394 2531 2256 2718 
Q 2119 2906 1806 2906 
Q 1569 2906 1367 2781 
Q 1166 2656 1075 2415 
Q 984 2175 984 1722 
L 984 0 
L 422 0 
z
" transform="scale(0.015625)"/>
       <path id="ArialMT-47" d="M 2638 1797 
L 2638 2334 
L 4578 2338 
L 4578 638 
Q 4131 281 3656 101 
Q 3181 -78 2681 -78 
Q 2006 -78 1454 211 
Q 903 500 622 1047 
Q 341 1594 341 2269 
Q 341 2938 620 3517 
Q 900 4097 1425 4378 
Q 1950 4659 2634 4659 
Q 3131 4659 3532 4498 
Q 3934 4338 4162 4050 
Q 4391 3763 4509 3300 
L 3963 3150 
Q 3859 3500 3706 3700 
Q 3553 3900 3268 4020 
Q 2984 4141 2638 4141 
Q 2222 4141 1919 4014 
Q 1616 3888 1430 3681 
Q 1244 3475 1141 3228 
Q 966 2803 966 2306 
Q 966 1694 1177 1281 
Q 1388 869 1791 669 
Q 2194 469 2647 469 
Q 3041 469 3416 620 
Q 3791 772 3984 944 
L 3984 1797 
L 2638 1797 
z
" transform="scale(0.015625)"/>
      </defs>
      <use xlink:href="#ArialMT-49"/>
      <use xlink:href="#ArialMT-6e" x="27.783203"/>
      <use xlink:href="#ArialMT-74" x="83.398438"/>
      <use xlink:href="#ArialMT-65" x="111.181641"/>
      <use xlink:href="#ArialMT-72" x="166.796875"/>
      <use xlink:href="#ArialMT-6d" x="200.097656"/>
      <use xlink:href="#ArialMT-65" x="283.398438"/>
      <use xlink:href="#ArialMT-64" x="339.013672"/>
      <use xlink:href="#ArialMT-69" x="394.628906"/>
      <use xlink:href="#ArialMT-61" x="416.845703"/>
      <use xlink:href="#ArialMT-74" x="472.460938"/>
      <use xlink:href="#ArialMT-65" x="500.244141"/>
      <use xlink:href="#ArialMT-20" x="555.859375"/>
      <use xlink:href="#ArialMT-47" x="583.642578"/>
      <use xlink:href="#ArialMT-6f" x="661.425781"/>
      <use xlink:href="#ArialMT-76" x="717.041016"/>
      <use xlink:href="#ArialMT-65" x="767.041016"/>
      <use xlink:href="#ArialMT-72" x="822.65625"/>
      <use xlink:href="#ArialMT-6e" x="855.957031"/>
      <use xlink:href="#ArialMT-6d" x="911.572266"/>
      <use xlink:href="#ArialMT-65" x="994.873047"/>
      <use xlink:href="#ArialMT-6e" x="1050.488281"/>
      <use xlink:href="#ArialMT-74" x="1106.103516"/>
     </g>
    </g>
    <g id="patch_11">
     <path d="M 65.84625 79.1225 
L 87.84625 79.1225 
L 87.84625 71.4225 
L 65.84625 71.4225 
z
" style="fill: #d98b5f; stroke: #545454; stroke-width: 1.25; stroke-linejoin: miter"/>
    </g>
    <g id="text_15">
     <!-- Short Term Corporate -->
     <g style="fill: #262626" transform="translate(96.64625 79.1225) scale(0.11 -0.11)">
      <defs>
       <path id="ArialMT-53" d="M 288 1472 
L 859 1522 
Q 900 1178 1048 958 
Q 1197 738 1509 602 
Q 1822 466 2213 466 
Q 2559 466 2825 569 
Q 3091 672 3220 851 
Q 3350 1031 3350 1244 
Q 3350 1459 3225 1620 
Q 3100 1781 2813 1891 
Q 2628 1963 1997 2114 
Q 1366 2266 1113 2400 
Q 784 2572 623 2826 
Q 463 3081 463 3397 
Q 463 3744 659 4045 
Q 856 4347 1234 4503 
Q 1613 4659 2075 4659 
Q 2584 4659 2973 4495 
Q 3363 4331 3572 4012 
Q 3781 3694 3797 3291 
L 3216 3247 
Q 3169 3681 2898 3903 
Q 2628 4125 2100 4125 
Q 1550 4125 1298 3923 
Q 1047 3722 1047 3438 
Q 1047 3191 1225 3031 
Q 1400 2872 2139 2705 
Q 2878 2538 3153 2413 
Q 3553 2228 3743 1945 
Q 3934 1663 3934 1294 
Q 3934 928 3725 604 
Q 3516 281 3123 101 
Q 2731 -78 2241 -78 
Q 1619 -78 1198 103 
Q 778 284 539 648 
Q 300 1013 288 1472 
z
" transform="scale(0.015625)"/>
       <path id="ArialMT-68" d="M 422 0 
L 422 4581 
L 984 4581 
L 984 2938 
Q 1378 3394 1978 3394 
Q 2347 3394 2619 3248 
Q 2891 3103 3008 2847 
Q 3125 2591 3125 2103 
L 3125 0 
L 2563 0 
L 2563 2103 
Q 2563 2525 2380 2717 
Q 2197 2909 1863 2909 
Q 1613 2909 1392 2779 
Q 1172 2650 1078 2428 
Q 984 2206 984 1816 
L 984 0 
L 422 0 
z
" transform="scale(0.015625)"/>
       <path id="ArialMT-43" d="M 3763 1606 
L 4369 1453 
Q 4178 706 3683 314 
Q 3188 -78 2472 -78 
Q 1731 -78 1267 223 
Q 803 525 561 1097 
Q 319 1669 319 2325 
Q 319 3041 592 3573 
Q 866 4106 1370 4382 
Q 1875 4659 2481 4659 
Q 3169 4659 3637 4309 
Q 4106 3959 4291 3325 
L 3694 3184 
Q 3534 3684 3231 3912 
Q 2928 4141 2469 4141 
Q 1941 4141 1586 3887 
Q 1231 3634 1087 3207 
Q 944 2781 944 2328 
Q 944 1744 1114 1308 
Q 1284 872 1643 656 
Q 2003 441 2422 441 
Q 2931 441 3284 734 
Q 3638 1028 3763 1606 
z
" transform="scale(0.015625)"/>
      </defs>
      <use xlink:href="#ArialMT-53"/>
      <use xlink:href="#ArialMT-68" x="66.699219"/>
      <use xlink:href="#ArialMT-6f" x="122.314453"/>
      <use xlink:href="#ArialMT-72" x="177.929688"/>
      <use xlink:href="#ArialMT-74" x="211.230469"/>
      <use xlink:href="#ArialMT-20" x="239.013672"/>
      <use xlink:href="#ArialMT-54" x="265.046875"/>
      <use xlink:href="#ArialMT-65" x="315.005859"/>
      <use xlink:href="#ArialMT-72" x="370.621094"/>
      <use xlink:href="#ArialMT-6d" x="403.921875"/>
      <use xlink:href="#ArialMT-20" x="487.222656"/>
      <use xlink:href="#ArialMT-43" x="515.005859"/>
      <use xlink:href="#ArialMT-6f" x="587.222656"/>
      <use xlink:href="#ArialMT-72" x="642.837891"/>
      <use xlink:href="#ArialMT-70" x="676.138672"/>
      <use xlink:href="#ArialMT-6f" x="731.753906"/>
      <use xlink:href="#ArialMT-72" x="787.369141"/>
      <use xlink:href="#ArialMT-61" x="820.669922"/>
      <use xlink:href="#ArialMT-74" x="876.285156"/>
      <use xlink:href="#ArialMT-65" x="904.068359"/>
     </g>
    </g>
   </g>
  </g>
 </g>
 <defs>
  <clipPath id="p06f63b50dc">
   <rect x="55.94625" y="29.04" width="507.09375" height="283.62"/>
  </clipPath>
 </defs>
</svg>
