<?xml version="1.0" encoding="utf-8" standalone="no"?>
<!DOCTYPE svg PUBLIC "-//W3C//DTD SVG 1.1//EN"
  "http://www.w3.org/Graphics/SVG/1.1/DTD/svg11.dtd">
<svg xmlns:xlink="http://www.w3.org/1999/xlink" width="864pt" height="432pt" viewBox="0 0 864 432" xmlns="http://www.w3.org/2000/svg" version="1.1">
 <metadata>
  <rdf:RDF xmlns:dc="http://purl.org/dc/elements/1.1/" xmlns:cc="http://creativecommons.org/ns#" xmlns:rdf="http://www.w3.org/1999/02/22-rdf-syntax-ns#">
   <cc:Work>
    <dc:type rdf:resource="http://purl.org/dc/dcmitype/StillImage"/>
    <dc:date>2026-01-29T14:33:24.100727</dc:date>
    <dc:format>image/svg+xml</dc:format>
    <dc:creator>
     <cc:Agent>
      <dc:title>Matplotlib v3.9.4, https://matplotlib.org/</dc:title>
     </cc:Agent>
    </dc:creator>
   </cc:Work>
  </rdf:RDF>
 </metadata>
 <defs>
  <style type="text/css">*{stroke-linejoin: round; stroke-linecap: butt}</style>
 </defs>
 <g id="figure_1">
  <g id="patch_1">
   <path d="M 0 432 
L 864 432 
L 864 0 
L 0 0 
z
" style="fill: #ffffff"/>
  </g>
  <g id="axes_1">
   <g id="patch_2">
    <path d="M 52.70625 384.60375 
L 425.52 384.60375 
L 425.52 27.65625 
L 52.70625 27.65625 
z
" style="fill: #ffffff"/>
   </g>
   <g id="matplotlib.axis_1">
    <g id="xtick_1">
     <g id="line2d_1">
      <path d="M 69.426274 384.60375 
L 69.426274 27.65625 
" clip-path="url(#pe6f93a5fb6)" style="fill: none; stroke-dasharray: 3.7,1.6; stroke-dashoffset: 0; stroke: #cccccc; stroke-opacity: 0.5"/>
     </g>
     <g id="text_1">
      <!-- 0 -->
      <g style="fill: #262626" transform="translate(66.367758 401.977344) scale(0.11 -0.11)">
       <defs>
        <path id="ArialMT-30" d="M 266 2259 
Q 266 3072 433 3567 
Q 600 4063 929 4331 
Q 1259 4600 1759 4600 
Q 2128 4600 2406 4451 
Q 2684 4303 2865 4023 
Q 3047 3744 3150 3342 
Q 3253 2941 3253 2259 
Q 3253 1453 3087 958 
Q 2922 463 2592 192 
Q 2263 -78 1759 -78 
Q 1097 -78 719 397 
Q 266 969 266 2259 
z
M 844 2259 
Q 844 1131 1108 757 
Q 1372 384 1759 384 
Q 2147 384 2411 759 
Q 2675 1134 2675 2259 
Q 2675 3391 2411 3762 
Q 2147 4134 1753 4134 
Q 1366 4134 1134 3806 
Q 844 3388 844 2259 
z
" transform="scale(0.015625)"/>
       </defs>
       <use xlink:href="#ArialMT-30"/>
      </g>
     </g>
    </g>
    <g id="xtick_2">
     <g id="line2d_2">
      <path d="M 115.002059 384.60375 
L 115.002059 27.65625 
" clip-path="url(#pe6f93a5fb6)" style="fill: none; stroke-dasharray: 3.7,1.6; stroke-dashoffset: 0; stroke: #cccccc; stroke-opacity: 0.5"/>
     </g>
     <g id="text_2">
      <!-- 2500 -->
      <g style="fill: #262626" transform="translate(102.767996 401.977344) scale(0.11 -0.11)">
       <defs>
        <path id="ArialMT-32" d="M 3222 541 
L 3222 0 
L 194 0 
Q 188 203 259 391 
Q 375 700 629 1000 
Q 884 1300 1366 1694 
Q 2113 2306 2375 2664 
Q 2638 3022 2638 3341 
Q 2638 3675 2398 3904 
Q 2159 4134 1775 4134 
Q 1369 4134 1125 3890 
Q 881 3647 878 3216 
L 300 3275 
Q 359 3922 746 4261 
Q 1134 4600 1788 4600 
Q 2447 4600 2831 4234 
Q 3216 3869 3216 3328 
Q 3216 3053 3103 2787 
Q 2991 2522 2730 2228 
Q 2469 1934 1863 1422 
Q 1356 997 1212 845 
Q 1069 694 975 541 
L 3222 541 
z
" transform="scale(0.015625)"/>
        <path id="ArialMT-35" d="M 266 1200 
L 856 1250 
Q 922 819 1161 601 
Q 1400 384 1738 384 
Q 2144 384 2425 690 
Q 2706 997 2706 1503 
Q 2706 1984 2436 2262 
Q 2166 2541 1728 2541 
Q 1456 2541 1237 2417 
Q 1019 2294 894 2097 
L 366 2166 
L 809 4519 
L 3088 4519 
L 3088 3981 
L 1259 3981 
L 1013 2750 
Q 1425 3038 1878 3038 
Q 2478 3038 2890 2622 
Q 3303 2206 3303 1553 
Q 3303 931 2941 478 
Q 2500 -78 1738 -78 
Q 1113 -78 717 272 
Q 322 622 266 1200 
z
" transform="scale(0.015625)"/>
       </defs>
       <use xlink:href="#ArialMT-32"/>
       <use xlink:href="#ArialMT-35" x="55.615234"/>
       <use xlink:href="#ArialMT-30" x="111.230469"/>
       <use xlink:href="#ArialMT-30" x="166.845703"/>
      </g>
     </g>
    </g>
    <g id="xtick_3">
     <g id="line2d_3">
      <path d="M 160.577844 384.60375 
L 160.577844 27.65625 
" clip-path="url(#pe6f93a5fb6)" style="fill: none; stroke-dasharray: 3.7,1.6; stroke-dashoffset: 0; stroke: #cccccc; stroke-opacity: 0.5"/>
     </g>
     <g id="text_3">
      <!-- 5000 -->
      <g style="fill: #262626" transform="translate(148.343781 401.977344) scale(0.11 -0.11)">
       <use xlink:href="#ArialMT-35"/>
       <use xlink:href="#ArialMT-30" x="55.615234"/>
       <use xlink:href="#ArialMT-30" x="111.230469"/>
       <use xlink:href="#ArialMT-30" x="166.845703"/>
      </g>
     </g>
    </g>
    <g id="xtick_4">
     <g id="line2d_4">
      <path d="M 206.153629 384.60375 
L 206.153629 27.65625 
" clip-path="url(#pe6f93a5fb6)" style="fill: none; stroke-dasharray: 3.7,1.6; stroke-dashoffset: 0; stroke: #cccccc; stroke-opacity: 0.5"/>
     </g>
     <g id="text_4">
      <!-- 7500 -->
      <g style="fill: #262626" transform="translate(193.919566 401.977344) scale(0.11 -0.11)">
       <defs>
        <path id="ArialMT-37" d="M 303 3981 
L 303 4522 
L 3269 4522 
L 3269 4084 
Q 2831 3619 2401 2847 
Q 1972 2075 1738 1259 
Q 1569 684 1522 0 
L 944 0 
Q 953 541 1156 1306 
Q 1359 2072 1739 2783 
Q 2119 3494 2547 3981 
L 303 3981 
z
" transform="scale(0.015625)"/>
       </defs>
       <use xlink:href="#ArialMT-37"/>
       <use xlink:href="#ArialMT-35" x="55.615234"/>
       <use xlink:href="#ArialMT-30" x="111.230469"/>
       <use xlink:href="#ArialMT-30" x="166.845703"/>
      </g>
     </g>
    </g>
    <g id="xtick_5">
     <g id="line2d_5">
      <path d="M 251.729414 384.60375 
L 251.729414 27.65625 
" clip-path="url(#pe6f93a5fb6)" style="fill: none; stroke-dasharray: 3.7,1.6; stroke-dashoffset: 0; stroke: #cccccc; stroke-opacity: 0.5"/>
     </g>
     <g id="text_5">
      <!-- 10000 -->
      <g style="fill: #262626" transform="translate(236.436836 401.977344) scale(0.11 -0.11)">
       <defs>
        <path id="ArialMT-31" d="M 2384 0 
L 1822 0 
L 1822 3584 
Q 1619 3391 1289 3197 
Q 959 3003 697 2906 
L 697 3450 
Q 1169 3672 1522 3987 
Q 1875 4303 2022 4600 
L 2384 4600 
L 2384 0 
z
" transform="scale(0.015625)"/>
       </defs>
       <use xlink:href="#ArialMT-31"/>
       <use xlink:href="#ArialMT-30" x="55.615234"/>
       <use xlink:href="#ArialMT-30" x="111.230469"/>
       <use xlink:href="#ArialMT-30" x="166.845703"/>
       <use xlink:href="#ArialMT-30" x="222.460938"/>
      </g>
     </g>
    </g>
    <g id="xtick_6">
     <g id="line2d_6">
      <path d="M 297.305199 384.60375 
L 297.305199 27.65625 
" clip-path="url(#pe6f93a5fb6)" style="fill: none; stroke-dasharray: 3.7,1.6; stroke-dashoffset: 0; stroke: #cccccc; stroke-opacity: 0.5"/>
     </g>
     <g id="text_6">
      <!-- 12500 -->
      <g style="fill: #262626" transform="translate(282.012621 401.977344) scale(0.11 -0.11)">
       <use xlink:href="#ArialMT-31"/>
       <use xlink:href="#ArialMT-32" x="55.615234"/>
       <use xlink:href="#ArialMT-35" x="111.230469"/>
       <use xlink:href="#ArialMT-30" x="166.845703"/>
       <use xlink:href="#ArialMT-30" x="222.460938"/>
      </g>
     </g>
    </g>
    <g id="xtick_7">
     <g id="line2d_7">
      <path d="M 342.880984 384.60375 
L 342.880984 27.65625 
" clip-path="url(#pe6f93a5fb6)" style="fill: none; stroke-dasharray: 3.7,1.6; stroke-dashoffset: 0; stroke: #cccccc; stroke-opacity: 0.5"/>
     </g>
     <g id="text_7">
      <!-- 15000 -->
      <g style="fill: #262626" transform="translate(327.588406 401.977344) scale(0.11 -0.11)">
       <use xlink:href="#ArialMT-31"/>
       <use xlink:href="#ArialMT-35" x="55.615234"/>
       <use xlink:href="#ArialMT-30" x="111.230469"/>
       <use xlink:href="#ArialMT-30" x="166.845703"/>
       <use xlink:href="#ArialMT-30" x="222.460938"/>
      </g>
     </g>
    </g>
    <g id="xtick_8">
     <g id="line2d_8">
      <path d="M 388.456769 384.60375 
L 388.456769 27.65625 
" clip-path="url(#pe6f93a5fb6)" style="fill: none; stroke-dasharray: 3.7,1.6; stroke-dashoffset: 0; stroke: #cccccc; stroke-opacity: 0.5"/>
     </g>
     <g id="text_8">
      <!-- 17500 -->
      <g style="fill: #262626" transform="translate(373.164191 401.977344) scale(0.11 -0.11)">
       <use xlink:href="#ArialMT-31"/>
       <use xlink:href="#ArialMT-37" x="55.615234"/>
       <use xlink:href="#ArialMT-35" x="111.230469"/>
       <use xlink:href="#ArialMT-30" x="166.845703"/>
       <use xlink:href="#ArialMT-30" x="222.460938"/>
      </g>
     </g>
    </g>
    <g id="text_9">
     <!-- Assets (in millions) -->
     <g style="fill: #262626" transform="translate(189.105 416.899219) scale(0.12 -0.12)">
      <defs>
       <path id="ArialMT-41" d="M -9 0 
L 1750 4581 
L 2403 4581 
L 4278 0 
L 3588 0 
L 3053 1388 
L 1138 1388 
L 634 0 
L -9 0 
z
M 1313 1881 
L 2866 1881 
L 2388 3150 
Q 2169 3728 2063 4100 
Q 1975 3659 1816 3225 
L 1313 1881 
z
" transform="scale(0.015625)"/>
       <path id="ArialMT-73" d="M 197 991 
L 753 1078 
Q 800 744 1014 566 
Q 1228 388 1613 388 
Q 2000 388 2187 545 
Q 2375 703 2375 916 
Q 2375 1106 2209 1216 
Q 2094 1291 1634 1406 
Q 1016 1563 777 1677 
Q 538 1791 414 1992 
Q 291 2194 291 2438 
Q 291 2659 392 2848 
Q 494 3038 669 3163 
Q 800 3259 1026 3326 
Q 1253 3394 1513 3394 
Q 1903 3394 2198 3281 
Q 2494 3169 2634 2976 
Q 2775 2784 2828 2463 
L 2278 2388 
Q 2241 2644 2061 2787 
Q 1881 2931 1553 2931 
Q 1166 2931 1000 2803 
Q 834 2675 834 2503 
Q 834 2394 903 2306 
Q 972 2216 1119 2156 
Q 1203 2125 1616 2013 
Q 2213 1853 2448 1751 
Q 2684 1650 2818 1456 
Q 2953 1263 2953 975 
Q 2953 694 2789 445 
Q 2625 197 2315 61 
Q 2006 -75 1616 -75 
Q 969 -75 630 194 
Q 291 463 197 991 
z
" transform="scale(0.015625)"/>
       <path id="ArialMT-65" d="M 2694 1069 
L 3275 997 
Q 3138 488 2766 206 
Q 2394 -75 1816 -75 
Q 1088 -75 661 373 
Q 234 822 234 1631 
Q 234 2469 665 2931 
Q 1097 3394 1784 3394 
Q 2450 3394 2872 2941 
Q 3294 2488 3294 1666 
Q 3294 1616 3291 1516 
L 816 1516 
Q 847 969 1125 678 
Q 1403 388 1819 388 
Q 2128 388 2347 550 
Q 2566 713 2694 1069 
z
M 847 1978 
L 2700 1978 
Q 2663 2397 2488 2606 
Q 2219 2931 1791 2931 
Q 1403 2931 1139 2672 
Q 875 2413 847 1978 
z
" transform="scale(0.015625)"/>
       <path id="ArialMT-74" d="M 1650 503 
L 1731 6 
Q 1494 -44 1306 -44 
Q 1000 -44 831 53 
Q 663 150 594 308 
Q 525 466 525 972 
L 525 2881 
L 113 2881 
L 113 3319 
L 525 3319 
L 525 4141 
L 1084 4478 
L 1084 3319 
L 1650 3319 
L 1650 2881 
L 1084 2881 
L 1084 941 
Q 1084 700 1114 631 
Q 1144 563 1211 522 
Q 1278 481 1403 481 
Q 1497 481 1650 503 
z
" transform="scale(0.015625)"/>
       <path id="ArialMT-20" transform="scale(0.015625)"/>
       <path id="ArialMT-28" d="M 1497 -1347 
Q 1031 -759 709 28 
Q 388 816 388 1659 
Q 388 2403 628 3084 
Q 909 3875 1497 4659 
L 1900 4659 
Q 1522 4009 1400 3731 
Q 1209 3300 1100 2831 
Q 966 2247 966 1656 
Q 966 153 1900 -1347 
L 1497 -1347 
z
" transform="scale(0.015625)"/>
       <path id="ArialMT-69" d="M 425 3934 
L 425 4581 
L 988 4581 
L 988 3934 
L 425 3934 
z
M 425 0 
L 425 3319 
L 988 3319 
L 988 0 
L 425 0 
z
" transform="scale(0.015625)"/>
       <path id="ArialMT-6e" d="M 422 0 
L 422 3319 
L 928 3319 
L 928 2847 
Q 1294 3394 1984 3394 
Q 2284 3394 2536 3286 
Q 2788 3178 2913 3003 
Q 3038 2828 3088 2588 
Q 3119 2431 3119 2041 
L 3119 0 
L 2556 0 
L 2556 2019 
Q 2556 2363 2490 2533 
Q 2425 2703 2258 2804 
Q 2091 2906 1866 2906 
Q 1506 2906 1245 2678 
Q 984 2450 984 1813 
L 984 0 
L 422 0 
z
" transform="scale(0.015625)"/>
       <path id="ArialMT-6d" d="M 422 0 
L 422 3319 
L 925 3319 
L 925 2853 
Q 1081 3097 1340 3245 
Q 1600 3394 1931 3394 
Q 2300 3394 2536 3241 
Q 2772 3088 2869 2813 
Q 3263 3394 3894 3394 
Q 4388 3394 4653 3120 
Q 4919 2847 4919 2278 
L 4919 0 
L 4359 0 
L 4359 2091 
Q 4359 2428 4304 2576 
Q 4250 2725 4106 2815 
Q 3963 2906 3769 2906 
Q 3419 2906 3187 2673 
Q 2956 2441 2956 1928 
L 2956 0 
L 2394 0 
L 2394 2156 
Q 2394 2531 2256 2718 
Q 2119 2906 1806 2906 
Q 1569 2906 1367 2781 
Q 1166 2656 1075 2415 
Q 984 2175 984 1722 
L 984 0 
L 422 0 
z
" transform="scale(0.015625)"/>
       <path id="ArialMT-6c" d="M 409 0 
L 409 4581 
L 972 4581 
L 972 0 
L 409 0 
z
" transform="scale(0.015625)"/>
       <path id="ArialMT-6f" d="M 213 1659 
Q 213 2581 725 3025 
Q 1153 3394 1769 3394 
Q 2453 3394 2887 2945 
Q 3322 2497 3322 1706 
Q 3322 1066 3130 698 
Q 2938 331 2570 128 
Q 2203 -75 1769 -75 
Q 1072 -75 642 372 
Q 213 819 213 1659 
z
M 791 1659 
Q 791 1022 1069 705 
Q 1347 388 1769 388 
Q 2188 388 2466 706 
Q 2744 1025 2744 1678 
Q 2744 2294 2464 2611 
Q 2184 2928 1769 2928 
Q 1347 2928 1069 2612 
Q 791 2297 791 1659 
z
" transform="scale(0.015625)"/>
       <path id="ArialMT-29" d="M 791 -1347 
L 388 -1347 
Q 1322 153 1322 1656 
Q 1322 2244 1188 2822 
Q 1081 3291 891 3722 
Q 769 4003 388 4659 
L 791 4659 
Q 1378 3875 1659 3084 
Q 1900 2403 1900 1659 
Q 1900 816 1576 28 
Q 1253 -759 791 -1347 
z
" transform="scale(0.015625)"/>
      </defs>
      <use xlink:href="#ArialMT-41"/>
      <use xlink:href="#ArialMT-73" x="66.699219"/>
      <use xlink:href="#ArialMT-73" x="116.699219"/>
      <use xlink:href="#ArialMT-65" x="166.699219"/>
      <use xlink:href="#ArialMT-74" x="222.314453"/>
      <use xlink:href="#ArialMT-73" x="250.097656"/>
      <use xlink:href="#ArialMT-20" x="300.097656"/>
      <use xlink:href="#ArialMT-28" x="327.880859"/>
      <use xlink:href="#ArialMT-69" x="361.181641"/>
      <use xlink:href="#ArialMT-6e" x="383.398438"/>
      <use xlink:href="#ArialMT-20" x="439.013672"/>
      <use xlink:href="#ArialMT-6d" x="466.796875"/>
      <use xlink:href="#ArialMT-69" x="550.097656"/>
      <use xlink:href="#ArialMT-6c" x="572.314453"/>
      <use xlink:href="#ArialMT-6c" x="594.53125"/>
      <use xlink:href="#ArialMT-69" x="616.748047"/>
      <use xlink:href="#ArialMT-6f" x="638.964844"/>
      <use xlink:href="#ArialMT-6e" x="694.580078"/>
      <use xlink:href="#ArialMT-73" x="750.195312"/>
      <use xlink:href="#ArialMT-29" x="800.195312"/>
     </g>
    </g>
   </g>
   <g id="matplotlib.axis_2">
    <g id="ytick_1">
     <g id="line2d_9">
      <path d="M 52.70625 384.60375 
L 425.52 384.60375 
" clip-path="url(#pe6f93a5fb6)" style="fill: none; stroke-dasharray: 3.7,1.6; stroke-dashoffset: 0; stroke: #cccccc; stroke-opacity: 0.5"/>
     </g>
     <g id="text_10">
      <!-- 0.0 -->
      <g style="fill: #262626" transform="translate(27.91625 388.540547) scale(0.11 -0.11)">
       <defs>
        <path id="ArialMT-2e" d="M 581 0 
L 581 641 
L 1222 641 
L 1222 0 
L 581 0 
z
" transform="scale(0.015625)"/>
       </defs>
       <use xlink:href="#ArialMT-30"/>
       <use xlink:href="#ArialMT-2e" x="55.615234"/>
       <use xlink:href="#ArialMT-30" x="83.398438"/>
      </g>
     </g>
    </g>
    <g id="ytick_2">
     <g id="line2d_10">
      <path d="M 52.70625 313.21425 
L 425.52 313.21425 
" clip-path="url(#pe6f93a5fb6)" style="fill: none; stroke-dasharray: 3.7,1.6; stroke-dashoffset: 0; stroke: #cccccc; stroke-opacity: 0.5"/>
     </g>
     <g id="text_11">
      <!-- 0.2 -->
      <g style="fill: #262626" transform="translate(27.91625 317.151047) scale(0.11 -0.11)">
       <use xlink:href="#ArialMT-30"/>
       <use xlink:href="#ArialMT-2e" x="55.615234"/>
       <use xlink:href="#ArialMT-32" x="83.398438"/>
      </g>
     </g>
    </g>
    <g id="ytick_3">
     <g id="line2d_11">
      <path d="M 52.70625 241.82475 
L 425.52 241.82475 
" clip-path="url(#pe6f93a5fb6)" style="fill: none; stroke-dasharray: 3.7,1.6; stroke-dashoffset: 0; stroke: #cccccc; stroke-opacity: 0.5"/>
     </g>
     <g id="text_12">
      <!-- 0.4 -->
      <g style="fill: #262626" transform="translate(27.91625 245.761547) scale(0.11 -0.11)">
       <defs>
        <path id="ArialMT-34" d="M 2069 0 
L 2069 1097 
L 81 1097 
L 81 1613 
L 2172 4581 
L 2631 4581 
L 2631 1613 
L 3250 1613 
L 3250 1097 
L 2631 1097 
L 2631 0 
L 2069 0 
z
M 2069 1613 
L 2069 3678 
L 634 1613 
L 2069 1613 
z
" transform="scale(0.015625)"/>
       </defs>
       <use xlink:href="#ArialMT-30"/>
       <use xlink:href="#ArialMT-2e" x="55.615234"/>
       <use xlink:href="#ArialMT-34" x="83.398438"/>
      </g>
     </g>
    </g>
    <g id="ytick_4">
     <g id="line2d_12">
      <path d="M 52.70625 170.43525 
L 425.52 170.43525 
" clip-path="url(#pe6f93a5fb6)" style="fill: none; stroke-dasharray: 3.7,1.6; stroke-dashoffset: 0; stroke: #cccccc; stroke-opacity: 0.5"/>
     </g>
     <g id="text_13">
      <!-- 0.6 -->
      <g style="fill: #262626" transform="translate(27.91625 174.372047) scale(0.11 -0.11)">
       <defs>
        <path id="ArialMT-36" d="M 3184 3459 
L 2625 3416 
Q 2550 3747 2413 3897 
Q 2184 4138 1850 4138 
Q 1581 4138 1378 3988 
Q 1113 3794 959 3422 
Q 806 3050 800 2363 
Q 1003 2672 1297 2822 
Q 1591 2972 1913 2972 
Q 2475 2972 2870 2558 
Q 3266 2144 3266 1488 
Q 3266 1056 3080 686 
Q 2894 316 2569 119 
Q 2244 -78 1831 -78 
Q 1128 -78 684 439 
Q 241 956 241 2144 
Q 241 3472 731 4075 
Q 1159 4600 1884 4600 
Q 2425 4600 2770 4297 
Q 3116 3994 3184 3459 
z
M 888 1484 
Q 888 1194 1011 928 
Q 1134 663 1356 523 
Q 1578 384 1822 384 
Q 2178 384 2434 671 
Q 2691 959 2691 1453 
Q 2691 1928 2437 2201 
Q 2184 2475 1800 2475 
Q 1419 2475 1153 2201 
Q 888 1928 888 1484 
z
" transform="scale(0.015625)"/>
       </defs>
       <use xlink:href="#ArialMT-30"/>
       <use xlink:href="#ArialMT-2e" x="55.615234"/>
       <use xlink:href="#ArialMT-36" x="83.398438"/>
      </g>
     </g>
    </g>
    <g id="ytick_5">
     <g id="line2d_13">
      <path d="M 52.70625 99.04575 
L 425.52 99.04575 
" clip-path="url(#pe6f93a5fb6)" style="fill: none; stroke-dasharray: 3.7,1.6; stroke-dashoffset: 0; stroke: #cccccc; stroke-opacity: 0.5"/>
     </g>
     <g id="text_14">
      <!-- 0.8 -->
      <g style="fill: #262626" transform="translate(27.91625 102.982547) scale(0.11 -0.11)">
       <defs>
        <path id="ArialMT-38" d="M 1131 2484 
Q 781 2613 612 2850 
Q 444 3088 444 3419 
Q 444 3919 803 4259 
Q 1163 4600 1759 4600 
Q 2359 4600 2725 4251 
Q 3091 3903 3091 3403 
Q 3091 3084 2923 2848 
Q 2756 2613 2416 2484 
Q 2838 2347 3058 2040 
Q 3278 1734 3278 1309 
Q 3278 722 2862 322 
Q 2447 -78 1769 -78 
Q 1091 -78 675 323 
Q 259 725 259 1325 
Q 259 1772 486 2073 
Q 713 2375 1131 2484 
z
M 1019 3438 
Q 1019 3113 1228 2906 
Q 1438 2700 1772 2700 
Q 2097 2700 2305 2904 
Q 2513 3109 2513 3406 
Q 2513 3716 2298 3927 
Q 2084 4138 1766 4138 
Q 1444 4138 1231 3931 
Q 1019 3725 1019 3438 
z
M 838 1322 
Q 838 1081 952 856 
Q 1066 631 1291 507 
Q 1516 384 1775 384 
Q 2178 384 2440 643 
Q 2703 903 2703 1303 
Q 2703 1709 2433 1975 
Q 2163 2241 1756 2241 
Q 1359 2241 1098 1978 
Q 838 1716 838 1322 
z
" transform="scale(0.015625)"/>
       </defs>
       <use xlink:href="#ArialMT-30"/>
       <use xlink:href="#ArialMT-2e" x="55.615234"/>
       <use xlink:href="#ArialMT-38" x="83.398438"/>
      </g>
     </g>
    </g>
    <g id="ytick_6">
     <g id="line2d_14">
      <path d="M 52.70625 27.65625 
L 425.52 27.65625 
" clip-path="url(#pe6f93a5fb6)" style="fill: none; stroke-dasharray: 3.7,1.6; stroke-dashoffset: 0; stroke: #cccccc; stroke-opacity: 0.5"/>
     </g>
     <g id="text_15">
      <!-- 1.0 -->
      <g style="fill: #262626" transform="translate(27.91625 31.593047) scale(0.11 -0.11)">
       <use xlink:href="#ArialMT-31"/>
       <use xlink:href="#ArialMT-2e" x="55.615234"/>
       <use xlink:href="#ArialMT-30" x="83.398438"/>
      </g>
     </g>
    </g>
    <g id="text_16">
     <!-- Proportion -->
     <g style="fill: #262626" transform="translate(21.53125 233.810625) rotate(-90) scale(0.12 -0.12)">
      <defs>
       <path id="ArialMT-50" d="M 494 0 
L 494 4581 
L 2222 4581 
Q 2678 4581 2919 4538 
Q 3256 4481 3484 4323 
Q 3713 4166 3852 3881 
Q 3991 3597 3991 3256 
Q 3991 2672 3619 2267 
Q 3247 1863 2275 1863 
L 1100 1863 
L 1100 0 
L 494 0 
z
M 1100 2403 
L 2284 2403 
Q 2872 2403 3119 2622 
Q 3366 2841 3366 3238 
Q 3366 3525 3220 3729 
Q 3075 3934 2838 4000 
Q 2684 4041 2272 4041 
L 1100 4041 
L 1100 2403 
z
" transform="scale(0.015625)"/>
       <path id="ArialMT-72" d="M 416 0 
L 416 3319 
L 922 3319 
L 922 2816 
Q 1116 3169 1280 3281 
Q 1444 3394 1641 3394 
Q 1925 3394 2219 3213 
L 2025 2691 
Q 1819 2813 1613 2813 
Q 1428 2813 1281 2702 
Q 1134 2591 1072 2394 
Q 978 2094 978 1738 
L 978 0 
L 416 0 
z
" transform="scale(0.015625)"/>
       <path id="ArialMT-70" d="M 422 -1272 
L 422 3319 
L 934 3319 
L 934 2888 
Q 1116 3141 1344 3267 
Q 1572 3394 1897 3394 
Q 2322 3394 2647 3175 
Q 2972 2956 3137 2557 
Q 3303 2159 3303 1684 
Q 3303 1175 3120 767 
Q 2938 359 2589 142 
Q 2241 -75 1856 -75 
Q 1575 -75 1351 44 
Q 1128 163 984 344 
L 984 -1272 
L 422 -1272 
z
M 931 1641 
Q 931 1000 1190 694 
Q 1450 388 1819 388 
Q 2194 388 2461 705 
Q 2728 1022 2728 1688 
Q 2728 2322 2467 2637 
Q 2206 2953 1844 2953 
Q 1484 2953 1207 2617 
Q 931 2281 931 1641 
z
" transform="scale(0.015625)"/>
      </defs>
      <use xlink:href="#ArialMT-50"/>
      <use xlink:href="#ArialMT-72" x="66.699219"/>
      <use xlink:href="#ArialMT-6f" x="100"/>
      <use xlink:href="#ArialMT-70" x="155.615234"/>
      <use xlink:href="#ArialMT-6f" x="211.230469"/>
      <use xlink:href="#ArialMT-72" x="266.845703"/>
      <use xlink:href="#ArialMT-74" x="300.146484"/>
      <use xlink:href="#ArialMT-69" x="327.929688"/>
      <use xlink:href="#ArialMT-6f" x="350.146484"/>
      <use xlink:href="#ArialMT-6e" x="405.761719"/>
     </g>
    </g>
   </g>
   <g id="line2d_15">
    <path d="M 69.65233 384.60375 
L 69.743481 378.783954 
L 69.765357 378.783954 
L 69.867447 374.90409 
L 69.905731 374.90409 
L 69.905731 372.964158 
L 70.027874 372.964158 
L 70.097149 365.204429 
L 70.150017 365.204429 
L 70.202885 359.384633 
L 70.266691 359.384633 
L 70.372427 351.624905 
L 70.390657 351.624905 
L 70.448994 347.745041 
L 70.569314 347.745041 
L 70.631297 341.925245 
L 70.684165 341.925245 
L 70.69875 338.04538 
L 70.815424 338.04538 
L 70.924805 326.405788 
L 70.970381 326.405788 
L 71.03601 316.706128 
L 71.1381 316.706128 
L 71.178207 307.006467 
L 71.324049 307.006467 
L 71.411555 299.246739 
L 71.444369 299.246739 
L 71.535521 291.487011 
L 71.60115 291.487011 
L 71.68501 281.787351 
L 71.748816 281.787351 
L 71.819914 275.967554 
L 71.894658 275.967554 
L 71.96211 266.267894 
L 72.025916 266.267894 
L 72.093369 258.508166 
L 72.140767 258.508166 
L 72.24468 254.628302 
L 72.261087 254.628302 
L 72.341301 248.808505 
L 72.476205 248.808505 
L 72.534542 242.988709 
L 72.667623 242.988709 
L 72.74966 237.168913 
L 72.793413 237.168913 
L 72.891856 233.289049 
L 72.939255 233.289049 
L 72.995769 227.469253 
L 73.13432 227.469253 
L 73.13432 225.529321 
L 73.560909 225.529321 
L 73.630184 221.649457 
L 73.748681 221.649457 
L 73.766911 217.769592 
L 73.890878 217.769592 
L 73.980206 210.009864 
L 74.19897 210.009864 
L 74.211731 206.13 
L 74.426849 206.13 
L 74.501593 200.310204 
L 74.5417 200.310204 
L 74.631028 196.43034 
L 74.733118 196.43034 
L 74.733118 194.490408 
L 74.847969 194.490408 
L 74.86073 190.610543 
L 74.999281 190.610543 
L 75.061264 186.730679 
L 75.30555 186.730679 
L 75.356595 182.850815 
L 75.487853 182.850815 
L 75.507906 178.970951 
L 75.952726 178.970951 
L 75.952726 177.031019 
L 76.158729 177.031019 
L 76.251703 173.151155 
L 76.337386 173.151155 
L 76.337386 171.211223 
L 76.499635 171.211223 
L 76.547034 167.331359 
L 76.672823 167.331359 
L 76.672823 165.391427 
L 77.185095 165.391427 
L 77.185095 163.451495 
L 77.593454 163.451495 
L 77.593454 161.511562 
L 77.742943 161.511562 
L 77.835918 157.631698 
L 78.087496 157.631698 
L 78.147656 149.87197 
L 78.288029 149.87197 
L 78.288029 147.932038 
L 78.517731 147.932038 
L 78.517731 145.992106 
L 78.851346 145.992106 
L 78.869576 142.112242 
L 79.101101 142.112242 
L 79.101101 140.17231 
L 79.345388 140.17231 
L 79.345388 138.232378 
L 79.476646 138.232378 
L 79.573266 134.352514 
L 79.595143 134.352514 
L 79.595143 132.412582 
L 79.806614 132.412582 
L 79.806614 130.472649 
L 80.063662 130.472649 
L 80.160283 124.652853 
L 80.275134 124.652853 
L 80.275134 122.712921 
L 80.45926 122.712921 
L 80.45926 120.772989 
L 80.577757 120.772989 
L 80.577757 118.833057 
L 80.723599 118.833057 
L 80.723599 116.893125 
L 80.887672 116.893125 
L 80.887672 114.953193 
L 80.998877 114.953193 
L 81.099144 109.133397 
L 81.480157 109.133397 
L 81.480157 107.193465 
L 81.755435 107.193465 
L 81.841117 103.313601 
L 81.943207 103.313601 
L 81.943207 101.373668 
L 82.659659 101.373668 
L 82.659659 99.433736 
L 83.866505 99.433736 
L 83.866505 97.493804 
L 85.684068 97.493804 
L 85.684068 95.553872 
L 85.944761 95.553872 
L 85.944761 93.61394 
L 87.013058 93.61394 
L 87.013058 91.674008 
L 87.346672 91.674008 
L 87.394071 87.794144 
L 87.858944 87.794144 
L 87.858944 85.854212 
L 89.122305 85.854212 
L 89.122305 83.91428 
L 89.514257 83.91428 
L 89.514257 81.974348 
L 90.026528 81.974348 
L 90.086689 78.094484 
L 90.976328 78.094484 
L 90.976328 76.154552 
L 92.184998 76.154552 
L 92.184998 74.21462 
L 93.964276 74.21462 
L 93.964276 72.274688 
L 94.977882 72.274688 
L 95.083618 68.394823 
L 96.217543 68.394823 
L 96.217543 66.454891 
L 97.236618 66.454891 
L 97.236618 64.514959 
L 97.48455 64.514959 
L 97.48455 62.575027 
L 102.37392 62.575027 
L 102.37392 60.635095 
L 103.68468 60.635095 
L 103.68468 58.695163 
L 104.464937 58.695163 
L 104.464937 56.755231 
L 109.328785 56.755231 
L 109.328785 54.815299 
L 112.469868 54.815299 
L 112.469868 52.875367 
L 133.812097 52.875367 
L 133.812097 50.935435 
L 136.198445 50.935435 
L 136.198445 48.995503 
L 150.955884 48.995503 
L 150.955884 47.055571 
L 153.566465 47.055571 
L 153.566465 45.115639 
L 156.437739 45.115639 
L 156.437739 43.175707 
L 165.7352 43.175707 
L 165.7352 41.235774 
L 173.368232 41.235774 
L 173.368232 39.295842 
L 184.869737 39.295842 
L 184.869737 37.35591 
L 196.701211 37.35591 
L 196.701211 35.415978 
L 201.926019 35.415978 
L 201.926019 33.476046 
L 265.303706 33.476046 
L 265.303706 31.536114 
L 366.527524 31.536114 
L 366.527524 29.596182 
L 408.57392 29.596182 
L 408.57392 27.65625 
L 408.57392 27.65625 
" clip-path="url(#pe6f93a5fb6)" style="fill: none; stroke: #4c72b0; stroke-width: 1.5; stroke-linecap: round"/>
   </g>
   <g id="patch_3">
    <path d="M 52.70625 384.60375 
L 52.70625 27.65625 
" style="fill: none; stroke: #cccccc; stroke-width: 1.25; stroke-linejoin: miter; stroke-linecap: square"/>
   </g>
   <g id="patch_4">
    <path d="M 425.52 384.60375 
L 425.52 27.65625 
" style="fill: none; stroke: #cccccc; stroke-width: 1.25; stroke-linejoin: miter; stroke-linecap: square"/>
   </g>
   <g id="patch_5">
    <path d="M 52.70625 384.60375 
L 425.52 384.60375 
" style="fill: none; stroke: #cccccc; stroke-width: 1.25; stroke-linejoin: miter; stroke-linecap: square"/>
   </g>
   <g id="patch_6">
    <path d="M 52.70625 27.65625 
L 425.52 27.65625 
" style="fill: none; stroke: #cccccc; stroke-width: 1.25; stroke-linejoin: miter; stroke-linecap: square"/>
   </g>
   <g id="text_17">
    <!-- ECDF of Assets (Overall) -->
    <g style="fill: #262626" transform="translate(172.100625 21.65625) scale(0.12 -0.12)">
     <defs>
      <path id="ArialMT-45" d="M 506 0 
L 506 4581 
L 3819 4581 
L 3819 4041 
L 1113 4041 
L 1113 2638 
L 3647 2638 
L 3647 2100 
L 1113 2100 
L 1113 541 
L 3925 541 
L 3925 0 
L 506 0 
z
" transform="scale(0.015625)"/>
      <path id="ArialMT-43" d="M 3763 1606 
L 4369 1453 
Q 4178 706 3683 314 
Q 3188 -78 2472 -78 
Q 1731 -78 1267 223 
Q 803 525 561 1097 
Q 319 1669 319 2325 
Q 319 3041 592 3573 
Q 866 4106 1370 4382 
Q 1875 4659 2481 4659 
Q 3169 4659 3637 4309 
Q 4106 3959 4291 3325 
L 3694 3184 
Q 3534 3684 3231 3912 
Q 2928 4141 2469 4141 
Q 1941 4141 1586 3887 
Q 1231 3634 1087 3207 
Q 944 2781 944 2328 
Q 944 1744 1114 1308 
Q 1284 872 1643 656 
Q 2003 441 2422 441 
Q 2931 441 3284 734 
Q 3638 1028 3763 1606 
z
" transform="scale(0.015625)"/>
      <path id="ArialMT-44" d="M 494 0 
L 494 4581 
L 2072 4581 
Q 2606 4581 2888 4516 
Q 3281 4425 3559 4188 
Q 3922 3881 4101 3404 
Q 4281 2928 4281 2316 
Q 4281 1794 4159 1391 
Q 4038 988 3847 723 
Q 3656 459 3429 307 
Q 3203 156 2883 78 
Q 2563 0 2147 0 
L 494 0 
z
M 1100 541 
L 2078 541 
Q 2531 541 2789 625 
Q 3047 709 3200 863 
Q 3416 1078 3536 1442 
Q 3656 1806 3656 2325 
Q 3656 3044 3420 3430 
Q 3184 3816 2847 3947 
Q 2603 4041 2063 4041 
L 1100 4041 
L 1100 541 
z
" transform="scale(0.015625)"/>
      <path id="ArialMT-46" d="M 525 0 
L 525 4581 
L 3616 4581 
L 3616 4041 
L 1131 4041 
L 1131 2622 
L 3281 2622 
L 3281 2081 
L 1131 2081 
L 1131 0 
L 525 0 
z
" transform="scale(0.015625)"/>
      <path id="ArialMT-66" d="M 556 0 
L 556 2881 
L 59 2881 
L 59 3319 
L 556 3319 
L 556 3672 
Q 556 4006 616 4169 
Q 697 4388 901 4523 
Q 1106 4659 1475 4659 
Q 1713 4659 2000 4603 
L 1916 4113 
Q 1741 4144 1584 4144 
Q 1328 4144 1222 4034 
Q 1116 3925 1116 3625 
L 1116 3319 
L 1763 3319 
L 1763 2881 
L 1116 2881 
L 1116 0 
L 556 0 
z
" transform="scale(0.015625)"/>
      <path id="ArialMT-4f" d="M 309 2231 
Q 309 3372 921 4017 
Q 1534 4663 2503 4663 
Q 3138 4663 3647 4359 
Q 4156 4056 4423 3514 
Q 4691 2972 4691 2284 
Q 4691 1588 4409 1038 
Q 4128 488 3612 205 
Q 3097 -78 2500 -78 
Q 1853 -78 1343 234 
Q 834 547 571 1087 
Q 309 1628 309 2231 
z
M 934 2222 
Q 934 1394 1379 917 
Q 1825 441 2497 441 
Q 3181 441 3623 922 
Q 4066 1403 4066 2288 
Q 4066 2847 3877 3264 
Q 3688 3681 3323 3911 
Q 2959 4141 2506 4141 
Q 1863 4141 1398 3698 
Q 934 3256 934 2222 
z
" transform="scale(0.015625)"/>
      <path id="ArialMT-76" d="M 1344 0 
L 81 3319 
L 675 3319 
L 1388 1331 
Q 1503 1009 1600 663 
Q 1675 925 1809 1294 
L 2547 3319 
L 3125 3319 
L 1869 0 
L 1344 0 
z
" transform="scale(0.015625)"/>
      <path id="ArialMT-61" d="M 2588 409 
Q 2275 144 1986 34 
Q 1697 -75 1366 -75 
Q 819 -75 525 192 
Q 231 459 231 875 
Q 231 1119 342 1320 
Q 453 1522 633 1644 
Q 813 1766 1038 1828 
Q 1203 1872 1538 1913 
Q 2219 1994 2541 2106 
Q 2544 2222 2544 2253 
Q 2544 2597 2384 2738 
Q 2169 2928 1744 2928 
Q 1347 2928 1158 2789 
Q 969 2650 878 2297 
L 328 2372 
Q 403 2725 575 2942 
Q 747 3159 1072 3276 
Q 1397 3394 1825 3394 
Q 2250 3394 2515 3294 
Q 2781 3194 2906 3042 
Q 3031 2891 3081 2659 
Q 3109 2516 3109 2141 
L 3109 1391 
Q 3109 606 3145 398 
Q 3181 191 3288 0 
L 2700 0 
Q 2613 175 2588 409 
z
M 2541 1666 
Q 2234 1541 1622 1453 
Q 1275 1403 1131 1340 
Q 988 1278 909 1158 
Q 831 1038 831 891 
Q 831 666 1001 516 
Q 1172 366 1500 366 
Q 1825 366 2078 508 
Q 2331 650 2450 897 
Q 2541 1088 2541 1459 
L 2541 1666 
z
" transform="scale(0.015625)"/>
     </defs>
     <use xlink:href="#ArialMT-45"/>
     <use xlink:href="#ArialMT-43" x="66.699219"/>
     <use xlink:href="#ArialMT-44" x="138.916016"/>
     <use xlink:href="#ArialMT-46" x="211.132812"/>
     <use xlink:href="#ArialMT-20" x="272.216797"/>
     <use xlink:href="#ArialMT-6f" x="300"/>
     <use xlink:href="#ArialMT-66" x="355.615234"/>
     <use xlink:href="#ArialMT-20" x="383.398438"/>
     <use xlink:href="#ArialMT-41" x="405.681641"/>
     <use xlink:href="#ArialMT-73" x="472.380859"/>
     <use xlink:href="#ArialMT-73" x="522.380859"/>
     <use xlink:href="#ArialMT-65" x="572.380859"/>
     <use xlink:href="#ArialMT-74" x="627.996094"/>
     <use xlink:href="#ArialMT-73" x="655.779297"/>
     <use xlink:href="#ArialMT-20" x="705.779297"/>
     <use xlink:href="#ArialMT-28" x="733.5625"/>
     <use xlink:href="#ArialMT-4f" x="766.863281"/>
     <use xlink:href="#ArialMT-76" x="844.646484"/>
     <use xlink:href="#ArialMT-65" x="894.646484"/>
     <use xlink:href="#ArialMT-72" x="950.261719"/>
     <use xlink:href="#ArialMT-61" x="983.5625"/>
     <use xlink:href="#ArialMT-6c" x="1039.177734"/>
     <use xlink:href="#ArialMT-6c" x="1061.394531"/>
     <use xlink:href="#ArialMT-29" x="1083.611328"/>
    </g>
   </g>
  </g>
  <g id="axes_2">
   <g id="patch_7">
    <path d="M 478.22625 384.60375 
L 851.04 384.60375 
L 851.04 27.65625 
L 478.22625 27.65625 
z
" style="fill: #ffffff"/>
   </g>
   <g id="matplotlib.axis_3">
    <g id="xtick_9">
     <g id="line2d_16">
      <path d="M 494.946274 384.60375 
L 494.946274 27.65625 
" clip-path="url(#p2ffdc8057a)" style="fill: none; stroke-dasharray: 3.7,1.6; stroke-dashoffset: 0; stroke: #cccccc; stroke-opacity: 0.5"/>
     </g>
     <g id="text_18">
      <!-- 0 -->
      <g style="fill: #262626" transform="translate(491.887758 401.977344) scale(0.11 -0.11)">
       <use xlink:href="#ArialMT-30"/>
      </g>
     </g>
    </g>
    <g id="xtick_10">
     <g id="line2d_17">
      <path d="M 540.522059 384.60375 
L 540.522059 27.65625 
" clip-path="url(#p2ffdc8057a)" style="fill: none; stroke-dasharray: 3.7,1.6; stroke-dashoffset: 0; stroke: #cccccc; stroke-opacity: 0.5"/>
     </g>
     <g id="text_19">
      <!-- 2500 -->
      <g style="fill: #262626" transform="translate(528.287996 401.977344) scale(0.11 -0.11)">
       <use xlink:href="#ArialMT-32"/>
       <use xlink:href="#ArialMT-35" x="55.615234"/>
       <use xlink:href="#ArialMT-30" x="111.230469"/>
       <use xlink:href="#ArialMT-30" x="166.845703"/>
      </g>
     </g>
    </g>
    <g id="xtick_11">
     <g id="line2d_18">
      <path d="M 586.097844 384.60375 
L 586.097844 27.65625 
" clip-path="url(#p2ffdc8057a)" style="fill: none; stroke-dasharray: 3.7,1.6; stroke-dashoffset: 0; stroke: #cccccc; stroke-opacity: 0.5"/>
     </g>
     <g id="text_20">
      <!-- 5000 -->
      <g style="fill: #262626" transform="translate(573.863781 401.977344) scale(0.11 -0.11)">
       <use xlink:href="#ArialMT-35"/>
       <use xlink:href="#ArialMT-30" x="55.615234"/>
       <use xlink:href="#ArialMT-30" x="111.230469"/>
       <use xlink:href="#ArialMT-30" x="166.845703"/>
      </g>
     </g>
    </g>
    <g id="xtick_12">
     <g id="line2d_19">
      <path d="M 631.673629 384.60375 
L 631.673629 27.65625 
" clip-path="url(#p2ffdc8057a)" style="fill: none; stroke-dasharray: 3.7,1.6; stroke-dashoffset: 0; stroke: #cccccc; stroke-opacity: 0.5"/>
     </g>
     <g id="text_21">
      <!-- 7500 -->
      <g style="fill: #262626" transform="translate(619.439566 401.977344) scale(0.11 -0.11)">
       <use xlink:href="#ArialMT-37"/>
       <use xlink:href="#ArialMT-35" x="55.615234"/>
       <use xlink:href="#ArialMT-30" x="111.230469"/>
       <use xlink:href="#ArialMT-30" x="166.845703"/>
      </g>
     </g>
    </g>
    <g id="xtick_13">
     <g id="line2d_20">
      <path d="M 677.249414 384.60375 
L 677.249414 27.65625 
" clip-path="url(#p2ffdc8057a)" style="fill: none; stroke-dasharray: 3.7,1.6; stroke-dashoffset: 0; stroke: #cccccc; stroke-opacity: 0.5"/>
     </g>
     <g id="text_22">
      <!-- 10000 -->
      <g style="fill: #262626" transform="translate(661.956836 401.977344) scale(0.11 -0.11)">
       <use xlink:href="#ArialMT-31"/>
       <use xlink:href="#ArialMT-30" x="55.615234"/>
       <use xlink:href="#ArialMT-30" x="111.230469"/>
       <use xlink:href="#ArialMT-30" x="166.845703"/>
       <use xlink:href="#ArialMT-30" x="222.460938"/>
      </g>
     </g>
    </g>
    <g id="xtick_14">
     <g id="line2d_21">
      <path d="M 722.825199 384.60375 
L 722.825199 27.65625 
" clip-path="url(#p2ffdc8057a)" style="fill: none; stroke-dasharray: 3.7,1.6; stroke-dashoffset: 0; stroke: #cccccc; stroke-opacity: 0.5"/>
     </g>
     <g id="text_23">
      <!-- 12500 -->
      <g style="fill: #262626" transform="translate(707.532621 401.977344) scale(0.11 -0.11)">
       <use xlink:href="#ArialMT-31"/>
       <use xlink:href="#ArialMT-32" x="55.615234"/>
       <use xlink:href="#ArialMT-35" x="111.230469"/>
       <use xlink:href="#ArialMT-30" x="166.845703"/>
       <use xlink:href="#ArialMT-30" x="222.460938"/>
      </g>
     </g>
    </g>
    <g id="xtick_15">
     <g id="line2d_22">
      <path d="M 768.400984 384.60375 
L 768.400984 27.65625 
" clip-path="url(#p2ffdc8057a)" style="fill: none; stroke-dasharray: 3.7,1.6; stroke-dashoffset: 0; stroke: #cccccc; stroke-opacity: 0.5"/>
     </g>
     <g id="text_24">
      <!-- 15000 -->
      <g style="fill: #262626" transform="translate(753.108406 401.977344) scale(0.11 -0.11)">
       <use xlink:href="#ArialMT-31"/>
       <use xlink:href="#ArialMT-35" x="55.615234"/>
       <use xlink:href="#ArialMT-30" x="111.230469"/>
       <use xlink:href="#ArialMT-30" x="166.845703"/>
       <use xlink:href="#ArialMT-30" x="222.460938"/>
      </g>
     </g>
    </g>
    <g id="xtick_16">
     <g id="line2d_23">
      <path d="M 813.976769 384.60375 
L 813.976769 27.65625 
" clip-path="url(#p2ffdc8057a)" style="fill: none; stroke-dasharray: 3.7,1.6; stroke-dashoffset: 0; stroke: #cccccc; stroke-opacity: 0.5"/>
     </g>
     <g id="text_25">
      <!-- 17500 -->
      <g style="fill: #262626" transform="translate(798.684191 401.977344) scale(0.11 -0.11)">
       <use xlink:href="#ArialMT-31"/>
       <use xlink:href="#ArialMT-37" x="55.615234"/>
       <use xlink:href="#ArialMT-35" x="111.230469"/>
       <use xlink:href="#ArialMT-30" x="166.845703"/>
       <use xlink:href="#ArialMT-30" x="222.460938"/>
      </g>
     </g>
    </g>
    <g id="text_26">
     <!-- Assets (in millions) -->
     <g style="fill: #262626" transform="translate(614.625 416.899219) scale(0.12 -0.12)">
      <use xlink:href="#ArialMT-41"/>
      <use xlink:href="#ArialMT-73" x="66.699219"/>
      <use xlink:href="#ArialMT-73" x="116.699219"/>
      <use xlink:href="#ArialMT-65" x="166.699219"/>
      <use xlink:href="#ArialMT-74" x="222.314453"/>
      <use xlink:href="#ArialMT-73" x="250.097656"/>
      <use xlink:href="#ArialMT-20" x="300.097656"/>
      <use xlink:href="#ArialMT-28" x="327.880859"/>
      <use xlink:href="#ArialMT-69" x="361.181641"/>
      <use xlink:href="#ArialMT-6e" x="383.398438"/>
      <use xlink:href="#ArialMT-20" x="439.013672"/>
      <use xlink:href="#ArialMT-6d" x="466.796875"/>
      <use xlink:href="#ArialMT-69" x="550.097656"/>
      <use xlink:href="#ArialMT-6c" x="572.314453"/>
      <use xlink:href="#ArialMT-6c" x="594.53125"/>
      <use xlink:href="#ArialMT-69" x="616.748047"/>
      <use xlink:href="#ArialMT-6f" x="638.964844"/>
      <use xlink:href="#ArialMT-6e" x="694.580078"/>
      <use xlink:href="#ArialMT-73" x="750.195312"/>
      <use xlink:href="#ArialMT-29" x="800.195312"/>
     </g>
    </g>
   </g>
   <g id="matplotlib.axis_4">
    <g id="ytick_7">
     <g id="line2d_24">
      <path d="M 478.22625 384.60375 
L 851.04 384.60375 
" clip-path="url(#p2ffdc8057a)" style="fill: none; stroke-dasharray: 3.7,1.6; stroke-dashoffset: 0; stroke: #cccccc; stroke-opacity: 0.5"/>
     </g>
     <g id="text_27">
      <!-- 0.0 -->
      <g style="fill: #262626" transform="translate(453.43625 388.540547) scale(0.11 -0.11)">
       <use xlink:href="#ArialMT-30"/>
       <use xlink:href="#ArialMT-2e" x="55.615234"/>
       <use xlink:href="#ArialMT-30" x="83.398438"/>
      </g>
     </g>
    </g>
    <g id="ytick_8">
     <g id="line2d_25">
      <path d="M 478.22625 313.21425 
L 851.04 313.21425 
" clip-path="url(#p2ffdc8057a)" style="fill: none; stroke-dasharray: 3.7,1.6; stroke-dashoffset: 0; stroke: #cccccc; stroke-opacity: 0.5"/>
     </g>
     <g id="text_28">
      <!-- 0.2 -->
      <g style="fill: #262626" transform="translate(453.43625 317.151047) scale(0.11 -0.11)">
       <use xlink:href="#ArialMT-30"/>
       <use xlink:href="#ArialMT-2e" x="55.615234"/>
       <use xlink:href="#ArialMT-32" x="83.398438"/>
      </g>
     </g>
    </g>
    <g id="ytick_9">
     <g id="line2d_26">
      <path d="M 478.22625 241.82475 
L 851.04 241.82475 
" clip-path="url(#p2ffdc8057a)" style="fill: none; stroke-dasharray: 3.7,1.6; stroke-dashoffset: 0; stroke: #cccccc; stroke-opacity: 0.5"/>
     </g>
     <g id="text_29">
      <!-- 0.4 -->
      <g style="fill: #262626" transform="translate(453.43625 245.761547) scale(0.11 -0.11)">
       <use xlink:href="#ArialMT-30"/>
       <use xlink:href="#ArialMT-2e" x="55.615234"/>
       <use xlink:href="#ArialMT-34" x="83.398438"/>
      </g>
     </g>
    </g>
    <g id="ytick_10">
     <g id="line2d_27">
      <path d="M 478.22625 170.43525 
L 851.04 170.43525 
" clip-path="url(#p2ffdc8057a)" style="fill: none; stroke-dasharray: 3.7,1.6; stroke-dashoffset: 0; stroke: #cccccc; stroke-opacity: 0.5"/>
     </g>
     <g id="text_30">
      <!-- 0.6 -->
      <g style="fill: #262626" transform="translate(453.43625 174.372047) scale(0.11 -0.11)">
       <use xlink:href="#ArialMT-30"/>
       <use xlink:href="#ArialMT-2e" x="55.615234"/>
       <use xlink:href="#ArialMT-36" x="83.398438"/>
      </g>
     </g>
    </g>
    <g id="ytick_11">
     <g id="line2d_28">
      <path d="M 478.22625 99.04575 
L 851.04 99.04575 
" clip-path="url(#p2ffdc8057a)" style="fill: none; stroke-dasharray: 3.7,1.6; stroke-dashoffset: 0; stroke: #cccccc; stroke-opacity: 0.5"/>
     </g>
     <g id="text_31">
      <!-- 0.8 -->
      <g style="fill: #262626" transform="translate(453.43625 102.982547) scale(0.11 -0.11)">
       <use xlink:href="#ArialMT-30"/>
       <use xlink:href="#ArialMT-2e" x="55.615234"/>
       <use xlink:href="#ArialMT-38" x="83.398438"/>
      </g>
     </g>
    </g>
    <g id="ytick_12">
     <g id="line2d_29">
      <path d="M 478.22625 27.65625 
L 851.04 27.65625 
" clip-path="url(#p2ffdc8057a)" style="fill: none; stroke-dasharray: 3.7,1.6; stroke-dashoffset: 0; stroke: #cccccc; stroke-opacity: 0.5"/>
     </g>
     <g id="text_32">
      <!-- 1.0 -->
      <g style="fill: #262626" transform="translate(453.43625 31.593047) scale(0.11 -0.11)">
       <use xlink:href="#ArialMT-31"/>
       <use xlink:href="#ArialMT-2e" x="55.615234"/>
       <use xlink:href="#ArialMT-30" x="83.398438"/>
      </g>
     </g>
    </g>
    <g id="text_33">
     <!-- Proportion -->
     <g style="fill: #262626" transform="translate(447.05125 233.810625) rotate(-90) scale(0.12 -0.12)">
      <use xlink:href="#ArialMT-50"/>
      <use xlink:href="#ArialMT-72" x="66.699219"/>
      <use xlink:href="#ArialMT-6f" x="100"/>
      <use xlink:href="#ArialMT-70" x="155.615234"/>
      <use xlink:href="#ArialMT-6f" x="211.230469"/>
      <use xlink:href="#ArialMT-72" x="266.845703"/>
      <use xlink:href="#ArialMT-74" x="300.146484"/>
      <use xlink:href="#ArialMT-69" x="327.929688"/>
      <use xlink:href="#ArialMT-6f" x="350.146484"/>
      <use xlink:href="#ArialMT-6e" x="405.761719"/>
     </g>
    </g>
   </g>
   <g id="line2d_30">
    <path d="M 495.17233 384.60375 
L 495.263481 377.244008 
L 495.285357 377.244008 
L 495.285357 373.564137 
L 495.425731 373.564137 
L 495.425731 369.884265 
L 495.562458 369.884265 
L 495.670017 355.164781 
L 495.722885 355.164781 
L 495.786691 347.805039 
L 495.843205 347.805039 
L 495.910657 333.085554 
L 496.109368 333.085554 
L 496.21875 318.36607 
L 496.335424 318.36607 
L 496.413814 303.646585 
L 496.55601 303.646585 
L 496.6581 296.286843 
L 496.685446 296.286843 
L 496.698207 285.247229 
L 496.931555 285.247229 
L 497.033645 274.207616 
L 497.055521 274.207616 
L 497.12115 266.847874 
L 497.175841 266.847874 
L 497.285223 252.128389 
L 497.414658 252.128389 
L 497.48211 244.768647 
L 497.567793 244.768647 
L 497.660767 230.049162 
L 497.801141 230.049162 
L 497.861301 222.68942 
L 498.054542 222.68942 
L 498.054542 219.009549 
L 498.187623 219.009549 
L 498.26966 207.969936 
L 498.411856 207.969936 
L 498.515769 200.610193 
L 498.65432 200.610193 
L 498.65432 196.930322 
L 499.080909 196.930322 
L 499.150184 189.57058 
L 499.268681 189.57058 
L 499.268681 185.890709 
L 499.410878 185.890709 
L 499.500206 171.171224 
L 499.731731 171.171224 
L 499.731731 167.491353 
L 500.021593 167.491353 
L 500.0617 160.131611 
L 500.367969 160.131611 
L 500.38073 152.771869 
L 500.876595 152.771869 
L 500.876595 149.091997 
L 501.678729 149.091997 
L 501.771703 141.732255 
L 502.019635 141.732255 
L 502.019635 138.052384 
L 503.262943 138.052384 
L 503.355918 130.692642 
L 503.614788 130.692642 
L 503.667656 119.653028 
L 503.808029 119.653028 
L 503.808029 115.973157 
L 504.371346 115.973157 
L 504.389576 108.613415 
L 505.326614 108.613415 
L 505.326614 104.933544 
L 505.97926 104.933544 
L 505.97926 101.253673 
L 506.619144 101.253673 
L 506.619144 97.573802 
L 507.361117 97.573802 
L 507.361117 93.89393 
L 508.179659 93.89393 
L 508.179659 90.214059 
L 512.533058 90.214059 
L 512.533058 86.534188 
L 512.866672 86.534188 
L 512.866672 82.854317 
L 515.034257 82.854317 
L 515.034257 79.174446 
L 515.546528 79.174446 
L 515.546528 75.494575 
L 517.704998 75.494575 
L 517.704998 71.814704 
L 519.484276 71.814704 
L 519.484276 68.134832 
L 521.737543 68.134832 
L 521.737543 64.454961 
L 529.20468 64.454961 
L 529.20468 60.77509 
L 529.984937 60.77509 
L 529.984937 57.095219 
L 537.989868 57.095219 
L 537.989868 53.415348 
L 561.718445 53.415348 
L 561.718445 49.735477 
L 581.957739 49.735477 
L 581.957739 46.055606 
L 591.2552 46.055606 
L 591.2552 42.375735 
L 598.888232 42.375735 
L 598.888232 38.695863 
L 622.221211 38.695863 
L 622.221211 35.015992 
L 690.823706 35.015992 
L 690.823706 31.336121 
L 792.047524 31.336121 
L 792.047524 27.65625 
L 792.047524 27.65625 
" clip-path="url(#p2ffdc8057a)" style="fill: none; stroke: #dd8452; stroke-width: 1.5; stroke-linecap: round"/>
   </g>
   <g id="line2d_31">
    <path d="M 495.261658 384.60375 
L 495.261658 380.500905 
L 495.387447 380.500905 
L 495.387447 376.39806 
L 495.547874 376.39806 
L 495.547874 372.295216 
L 495.675486 372.295216 
L 495.675486 368.192371 
L 495.968994 368.192371 
L 495.968994 364.089526 
L 496.089314 364.089526 
L 496.089314 359.986681 
L 496.428398 359.986681 
L 496.517727 339.472457 
L 496.550541 339.472457 
L 496.550541 335.369612 
L 496.672684 335.369612 
L 496.672684 331.266767 
L 496.844049 331.266767 
L 496.900563 318.958233 
L 496.964369 318.958233 
L 496.964369 314.855388 
L 497.183133 314.855388 
L 497.203187 306.649698 
L 497.339914 306.649698 
L 497.423773 290.238319 
L 497.545916 290.238319 
L 497.545916 286.135474 
L 497.76468 286.135474 
L 497.781087 277.929784 
L 497.996205 277.929784 
L 498.021728 269.724095 
L 498.313413 269.724095 
L 498.313413 265.62125 
L 498.459255 265.62125 
L 498.464724 257.41556 
L 499.286911 257.41556 
L 499.286911 253.312716 
L 499.71897 253.312716 
L 499.71897 249.209871 
L 499.946849 249.209871 
L 500.017947 241.004181 
L 500.151028 241.004181 
L 500.253118 232.798491 
L 500.519281 232.798491 
L 500.581264 224.592802 
L 500.82555 224.592802 
L 500.82555 220.489957 
L 501.007853 220.489957 
L 501.027906 212.284267 
L 501.472726 212.284267 
L 501.472726 208.181422 
L 501.857386 208.181422 
L 501.857386 204.078578 
L 502.067034 204.078578 
L 502.067034 199.975733 
L 502.192823 199.975733 
L 502.192823 195.872888 
L 502.705095 195.872888 
L 502.705095 191.770043 
L 503.113454 191.770043 
L 503.113454 187.667198 
L 503.607496 187.667198 
L 503.607496 183.564353 
L 504.037731 183.564353 
L 504.037731 179.461509 
L 504.621101 179.461509 
L 504.621101 175.358664 
L 504.865388 175.358664 
L 504.865388 171.255819 
L 504.996646 171.255819 
L 505.093266 163.050129 
L 505.115143 163.050129 
L 505.115143 158.947284 
L 505.583662 158.947284 
L 505.680283 146.63875 
L 505.795134 146.63875 
L 505.795134 142.535905 
L 506.097757 142.535905 
L 506.097757 138.43306 
L 506.243599 138.43306 
L 506.243599 134.330216 
L 506.407672 134.330216 
L 506.407672 130.227371 
L 506.518877 130.227371 
L 506.619144 122.021681 
L 507.000157 122.021681 
L 507.000157 117.918836 
L 507.275435 117.918836 
L 507.275435 113.815991 
L 507.463207 113.815991 
L 507.463207 109.713147 
L 509.386505 109.713147 
L 509.386505 105.610302 
L 511.204068 105.610302 
L 511.204068 101.507457 
L 511.464761 101.507457 
L 511.464761 97.404612 
L 512.914071 97.404612 
L 512.914071 93.301767 
L 513.378944 93.301767 
L 513.378944 89.198922 
L 514.642305 89.198922 
L 514.642305 85.096078 
L 515.606689 85.096078 
L 515.606689 80.993233 
L 516.496328 80.993233 
L 516.496328 76.890388 
L 520.497882 76.890388 
L 520.603618 68.684698 
L 522.756618 68.684698 
L 522.756618 64.581853 
L 523.00455 64.581853 
L 523.00455 60.479009 
L 527.89392 60.479009 
L 527.89392 56.376164 
L 534.848785 56.376164 
L 534.848785 52.273319 
L 559.332097 52.273319 
L 559.332097 48.170474 
L 576.475884 48.170474 
L 576.475884 44.067629 
L 579.086465 44.067629 
L 579.086465 39.964784 
L 610.389737 39.964784 
L 610.389737 35.86194 
L 627.446019 35.86194 
L 627.446019 31.759095 
L 834.09392 31.759095 
L 834.09392 27.65625 
L 834.09392 27.65625 
" clip-path="url(#p2ffdc8057a)" style="fill: none; stroke: #4c72b0; stroke-width: 1.5; stroke-linecap: round"/>
   </g>
   <g id="patch_8">
    <path d="M 478.22625 384.60375 
L 478.22625 27.65625 
" style="fill: none; stroke: #cccccc; stroke-width: 1.25; stroke-linejoin: miter; stroke-linecap: square"/>
   </g>
   <g id="patch_9">
    <path d="M 851.04 384.60375 
L 851.04 27.65625 
" style="fill: none; stroke: #cccccc; stroke-width: 1.25; stroke-linejoin: miter; stroke-linecap: square"/>
   </g>
   <g id="patch_10">
    <path d="M 478.22625 384.60375 
L 851.04 384.60375 
" style="fill: none; stroke: #cccccc; stroke-width: 1.25; stroke-linejoin: miter; stroke-linecap: square"/>
   </g>
   <g id="patch_11">
    <path d="M 478.22625 27.65625 
L 851.04 27.65625 
" style="fill: none; stroke: #cccccc; stroke-width: 1.25; stroke-linejoin: miter; stroke-linecap: square"/>
   </g>
   <g id="text_34">
    <!-- ECDF of Assets by Fund Type -->
    <g style="fill: #262626" transform="translate(584.372813 21.65625) scale(0.12 -0.12)">
     <defs>
      <path id="ArialMT-62" d="M 941 0 
L 419 0 
L 419 4581 
L 981 4581 
L 981 2947 
Q 1338 3394 1891 3394 
Q 2197 3394 2470 3270 
Q 2744 3147 2920 2923 
Q 3097 2700 3197 2384 
Q 3297 2069 3297 1709 
Q 3297 856 2875 390 
Q 2453 -75 1863 -75 
Q 1275 -75 941 416 
L 941 0 
z
M 934 1684 
Q 934 1088 1097 822 
Q 1363 388 1816 388 
Q 2184 388 2453 708 
Q 2722 1028 2722 1663 
Q 2722 2313 2464 2622 
Q 2206 2931 1841 2931 
Q 1472 2931 1203 2611 
Q 934 2291 934 1684 
z
" transform="scale(0.015625)"/>
      <path id="ArialMT-79" d="M 397 -1278 
L 334 -750 
Q 519 -800 656 -800 
Q 844 -800 956 -737 
Q 1069 -675 1141 -563 
Q 1194 -478 1313 -144 
Q 1328 -97 1363 -6 
L 103 3319 
L 709 3319 
L 1400 1397 
Q 1534 1031 1641 628 
Q 1738 1016 1872 1384 
L 2581 3319 
L 3144 3319 
L 1881 -56 
Q 1678 -603 1566 -809 
Q 1416 -1088 1222 -1217 
Q 1028 -1347 759 -1347 
Q 597 -1347 397 -1278 
z
" transform="scale(0.015625)"/>
      <path id="ArialMT-75" d="M 2597 0 
L 2597 488 
Q 2209 -75 1544 -75 
Q 1250 -75 995 37 
Q 741 150 617 320 
Q 494 491 444 738 
Q 409 903 409 1263 
L 409 3319 
L 972 3319 
L 972 1478 
Q 972 1038 1006 884 
Q 1059 663 1231 536 
Q 1403 409 1656 409 
Q 1909 409 2131 539 
Q 2353 669 2445 892 
Q 2538 1116 2538 1541 
L 2538 3319 
L 3100 3319 
L 3100 0 
L 2597 0 
z
" transform="scale(0.015625)"/>
      <path id="ArialMT-64" d="M 2575 0 
L 2575 419 
Q 2259 -75 1647 -75 
Q 1250 -75 917 144 
Q 584 363 401 755 
Q 219 1147 219 1656 
Q 219 2153 384 2558 
Q 550 2963 881 3178 
Q 1213 3394 1622 3394 
Q 1922 3394 2156 3267 
Q 2391 3141 2538 2938 
L 2538 4581 
L 3097 4581 
L 3097 0 
L 2575 0 
z
M 797 1656 
Q 797 1019 1065 703 
Q 1334 388 1700 388 
Q 2069 388 2326 689 
Q 2584 991 2584 1609 
Q 2584 2291 2321 2609 
Q 2059 2928 1675 2928 
Q 1300 2928 1048 2622 
Q 797 2316 797 1656 
z
" transform="scale(0.015625)"/>
      <path id="ArialMT-54" d="M 1659 0 
L 1659 4041 
L 150 4041 
L 150 4581 
L 3781 4581 
L 3781 4041 
L 2266 4041 
L 2266 0 
L 1659 0 
z
" transform="scale(0.015625)"/>
     </defs>
     <use xlink:href="#ArialMT-45"/>
     <use xlink:href="#ArialMT-43" x="66.699219"/>
     <use xlink:href="#ArialMT-44" x="138.916016"/>
     <use xlink:href="#ArialMT-46" x="211.132812"/>
     <use xlink:href="#ArialMT-20" x="272.216797"/>
     <use xlink:href="#ArialMT-6f" x="300"/>
     <use xlink:href="#ArialMT-66" x="355.615234"/>
     <use xlink:href="#ArialMT-20" x="383.398438"/>
     <use xlink:href="#ArialMT-41" x="405.681641"/>
     <use xlink:href="#ArialMT-73" x="472.380859"/>
     <use xlink:href="#ArialMT-73" x="522.380859"/>
     <use xlink:href="#ArialMT-65" x="572.380859"/>
     <use xlink:href="#ArialMT-74" x="627.996094"/>
     <use xlink:href="#ArialMT-73" x="655.779297"/>
     <use xlink:href="#ArialMT-20" x="705.779297"/>
     <use xlink:href="#ArialMT-62" x="733.5625"/>
     <use xlink:href="#ArialMT-79" x="789.177734"/>
     <use xlink:href="#ArialMT-20" x="839.177734"/>
     <use xlink:href="#ArialMT-46" x="866.960938"/>
     <use xlink:href="#ArialMT-75" x="928.044922"/>
     <use xlink:href="#ArialMT-6e" x="983.660156"/>
     <use xlink:href="#ArialMT-64" x="1039.275391"/>
     <use xlink:href="#ArialMT-20" x="1094.890625"/>
     <use xlink:href="#ArialMT-54" x="1120.923828"/>
     <use xlink:href="#ArialMT-79" x="1176.507812"/>
     <use xlink:href="#ArialMT-70" x="1226.507812"/>
     <use xlink:href="#ArialMT-65" x="1282.123047"/>
    </g>
   </g>
   <g id="legend_1">
    <g id="patch_12">
     <path d="M 683.422344 379.10375 
L 843.34 379.10375 
Q 845.54 379.10375 845.54 376.90375 
L 845.54 330.135 
Q 845.54 327.935 843.34 327.935 
L 683.422344 327.935 
Q 681.222344 327.935 681.222344 330.135 
L 681.222344 376.90375 
Q 681.222344 379.10375 683.422344 379.10375 
z
" style="fill: #ffffff; opacity: 0.8; stroke: #cccccc; stroke-linejoin: miter"/>
    </g>
    <g id="text_35">
     <!-- Type -->
     <g style="fill: #262626" transform="translate(750.373359 340.924375) scale(0.12 -0.12)">
      <use xlink:href="#ArialMT-54"/>
      <use xlink:href="#ArialMT-79" x="55.583984"/>
      <use xlink:href="#ArialMT-70" x="105.583984"/>
      <use xlink:href="#ArialMT-65" x="161.199219"/>
     </g>
    </g>
    <g id="line2d_32">
     <path d="M 685.622344 352.973594 
L 696.622344 352.973594 
L 696.622344 352.973594 
L 707.622344 352.973594 
L 707.622344 352.973594 
" style="fill: none; stroke: #4c72b0; stroke-width: 1.5; stroke-linecap: round"/>
    </g>
    <g id="text_36">
     <!-- Intermediate Government -->
     <g style="fill: #262626" transform="translate(716.422344 356.823594) scale(0.11 -0.11)">
      <defs>
       <path id="ArialMT-49" d="M 597 0 
L 597 4581 
L 1203 4581 
L 1203 0 
L 597 0 
z
" transform="scale(0.015625)"/>
       <path id="ArialMT-47" d="M 2638 1797 
L 2638 2334 
L 4578 2338 
L 4578 638 
Q 4131 281 3656 101 
Q 3181 -78 2681 -78 
Q 2006 -78 1454 211 
Q 903 500 622 1047 
Q 341 1594 341 2269 
Q 341 2938 620 3517 
Q 900 4097 1425 4378 
Q 1950 4659 2634 4659 
Q 3131 4659 3532 4498 
Q 3934 4338 4162 4050 
Q 4391 3763 4509 3300 
L 3963 3150 
Q 3859 3500 3706 3700 
Q 3553 3900 3268 4020 
Q 2984 4141 2638 4141 
Q 2222 4141 1919 4014 
Q 1616 3888 1430 3681 
Q 1244 3475 1141 3228 
Q 966 2803 966 2306 
Q 966 1694 1177 1281 
Q 1388 869 1791 669 
Q 2194 469 2647 469 
Q 3041 469 3416 620 
Q 3791 772 3984 944 
L 3984 1797 
L 2638 1797 
z
" transform="scale(0.015625)"/>
      </defs>
      <use xlink:href="#ArialMT-49"/>
      <use xlink:href="#ArialMT-6e" x="27.783203"/>
      <use xlink:href="#ArialMT-74" x="83.398438"/>
      <use xlink:href="#ArialMT-65" x="111.181641"/>
      <use xlink:href="#ArialMT-72" x="166.796875"/>
      <use xlink:href="#ArialMT-6d" x="200.097656"/>
      <use xlink:href="#ArialMT-65" x="283.398438"/>
      <use xlink:href="#ArialMT-64" x="339.013672"/>
      <use xlink:href="#ArialMT-69" x="394.628906"/>
      <use xlink:href="#ArialMT-61" x="416.845703"/>
      <use xlink:href="#ArialMT-74" x="472.460938"/>
      <use xlink:href="#ArialMT-65" x="500.244141"/>
      <use xlink:href="#ArialMT-20" x="555.859375"/>
      <use xlink:href="#ArialMT-47" x="583.642578"/>
      <use xlink:href="#ArialMT-6f" x="661.425781"/>
      <use xlink:href="#ArialMT-76" x="717.041016"/>
      <use xlink:href="#ArialMT-65" x="767.041016"/>
      <use xlink:href="#ArialMT-72" x="822.65625"/>
      <use xlink:href="#ArialMT-6e" x="855.957031"/>
      <use xlink:href="#ArialMT-6d" x="911.572266"/>
      <use xlink:href="#ArialMT-65" x="994.873047"/>
      <use xlink:href="#ArialMT-6e" x="1050.488281"/>
      <use xlink:href="#ArialMT-74" x="1106.103516"/>
     </g>
    </g>
    <g id="line2d_33">
     <path d="M 685.622344 368.6675 
L 696.622344 368.6675 
L 696.622344 368.6675 
L 707.622344 368.6675 
L 707.622344 368.6675 
" style="fill: none; stroke: #dd8452; stroke-width: 1.5; stroke-linecap: round"/>
    </g>
    <g id="text_37">
     <!-- Short Term Corporate -->
     <g style="fill: #262626" transform="translate(716.422344 372.5175) scale(0.11 -0.11)">
      <defs>
       <path id="ArialMT-53" d="M 288 1472 
L 859 1522 
Q 900 1178 1048 958 
Q 1197 738 1509 602 
Q 1822 466 2213 466 
Q 2559 466 2825 569 
Q 3091 672 3220 851 
Q 3350 1031 3350 1244 
Q 3350 1459 3225 1620 
Q 3100 1781 2813 1891 
Q 2628 1963 1997 2114 
Q 1366 2266 1113 2400 
Q 784 2572 623 2826 
Q 463 3081 463 3397 
Q 463 3744 659 4045 
Q 856 4347 1234 4503 
Q 1613 4659 2075 4659 
Q 2584 4659 2973 4495 
Q 3363 4331 3572 4012 
Q 3781 3694 3797 3291 
L 3216 3247 
Q 3169 3681 2898 3903 
Q 2628 4125 2100 4125 
Q 1550 4125 1298 3923 
Q 1047 3722 1047 3438 
Q 1047 3191 1225 3031 
Q 1400 2872 2139 2705 
Q 2878 2538 3153 2413 
Q 3553 2228 3743 1945 
Q 3934 1663 3934 1294 
Q 3934 928 3725 604 
Q 3516 281 3123 101 
Q 2731 -78 2241 -78 
Q 1619 -78 1198 103 
Q 778 284 539 648 
Q 300 1013 288 1472 
z
" transform="scale(0.015625)"/>
       <path id="ArialMT-68" d="M 422 0 
L 422 4581 
L 984 4581 
L 984 2938 
Q 1378 3394 1978 3394 
Q 2347 3394 2619 3248 
Q 2891 3103 3008 2847 
Q 3125 2591 3125 2103 
L 3125 0 
L 2563 0 
L 2563 2103 
Q 2563 2525 2380 2717 
Q 2197 2909 1863 2909 
Q 1613 2909 1392 2779 
Q 1172 2650 1078 2428 
Q 984 2206 984 1816 
L 984 0 
L 422 0 
z
" transform="scale(0.015625)"/>
      </defs>
      <use xlink:href="#ArialMT-53"/>
      <use xlink:href="#ArialMT-68" x="66.699219"/>
      <use xlink:href="#ArialMT-6f" x="122.314453"/>
      <use xlink:href="#ArialMT-72" x="177.929688"/>
      <use xlink:href="#ArialMT-74" x="211.230469"/>
      <use xlink:href="#ArialMT-20" x="239.013672"/>
      <use xlink:href="#ArialMT-54" x="265.046875"/>
      <use xlink:href="#ArialMT-65" x="315.005859"/>
      <use xlink:href="#ArialMT-72" x="370.621094"/>
      <use xlink:href="#ArialMT-6d" x="403.921875"/>
      <use xlink:href="#ArialMT-20" x="487.222656"/>
      <use xlink:href="#ArialMT-43" x="515.005859"/>
      <use xlink:href="#ArialMT-6f" x="587.222656"/>
      <use xlink:href="#ArialMT-72" x="642.837891"/>
      <use xlink:href="#ArialMT-70" x="676.138672"/>
      <use xlink:href="#ArialMT-6f" x="731.753906"/>
      <use xlink:href="#ArialMT-72" x="787.369141"/>
      <use xlink:href="#ArialMT-61" x="820.669922"/>
      <use xlink:href="#ArialMT-74" x="876.285156"/>
      <use xlink:href="#ArialMT-65" x="904.068359"/>
     </g>
    </g>
   </g>
  </g>
 </g>
 <defs>
  <clipPath id="pe6f93a5fb6">
   <rect x="52.70625" y="27.65625" width="372.81375" height="356.9475"/>
  </clipPath>
  <clipPath id="p2ffdc8057a">
   <rect x="478.22625" y="27.65625" width="372.81375" height="356.9475"/>
  </clipPath>
 </defs>
</svg>
