<?xml version="1.0" encoding="utf-8" standalone="no"?>
<!DOCTYPE svg PUBLIC "-//W3C//DTD SVG 1.1//EN"
  "http://www.w3.org/Graphics/SVG/1.1/DTD/svg11.dtd">
<svg xmlns:xlink="http://www.w3.org/1999/xlink" width="648pt" height="360pt" viewBox="0 0 648 360" xmlns="http://www.w3.org/2000/svg" version="1.1">
 <metadata>
  <rdf:RDF xmlns:dc="http://purl.org/dc/elements/1.1/" xmlns:cc="http://creativecommons.org/ns#" xmlns:rdf="http://www.w3.org/1999/02/22-rdf-syntax-ns#">
   <cc:Work>
    <dc:type rdf:resource="http://purl.org/dc/dcmitype/StillImage"/>
    <dc:date>2026-01-29T14:33:21.073196</dc:date>
    <dc:format>image/svg+xml</dc:format>
    <dc:creator>
     <cc:Agent>
      <dc:title>Matplotlib v3.9.4, https://matplotlib.org/</dc:title>
     </cc:Agent>
    </dc:creator>
   </cc:Work>
  </rdf:RDF>
 </metadata>
 <defs>
  <style type="text/css">*{stroke-linejoin: round; stroke-linecap: butt}</style>
 </defs>
 <g id="figure_1">
  <g id="patch_1">
   <path d="M 0 360 
L 648 360 
L 648 0 
L 0 0 
z
" style="fill: #ffffff"/>
  </g>
  <g id="axes_1">
   <g id="patch_2">
    <path d="M 66.62 298.591221 
L 637.2 298.591221 
L 637.2 26.88 
L 66.62 26.88 
z
" style="fill: #ffffff"/>
   </g>
   <g id="patch_3">
    <path d="M 92.555455 298.591221 
L 95.3293 298.591221 
L 95.3293 46.130156 
L 92.555455 46.130156 
z
" clip-path="url(#pac07bd7755)" style="fill: #87ceeb; opacity: 0.5; stroke: #000000; stroke-linejoin: miter"/>
   </g>
   <g id="patch_4">
    <path d="M 95.3293 298.591221 
L 98.103145 298.591221 
L 98.103145 39.81863 
L 95.3293 39.81863 
z
" clip-path="url(#pac07bd7755)" style="fill: #87ceeb; opacity: 0.5; stroke: #000000; stroke-linejoin: miter"/>
   </g>
   <g id="patch_5">
    <path d="M 98.103145 298.591221 
L 100.876991 298.591221 
L 100.876991 178.672215 
L 98.103145 178.672215 
z
" clip-path="url(#pac07bd7755)" style="fill: #87ceeb; opacity: 0.5; stroke: #000000; stroke-linejoin: miter"/>
   </g>
   <g id="patch_6">
    <path d="M 100.876991 298.591221 
L 103.650836 298.591221 
L 103.650836 216.541375 
L 100.876991 216.541375 
z
" clip-path="url(#pac07bd7755)" style="fill: #87ceeb; opacity: 0.5; stroke: #000000; stroke-linejoin: miter"/>
   </g>
   <g id="patch_7">
    <path d="M 103.650836 298.591221 
L 106.424682 298.591221 
L 106.424682 235.475955 
L 103.650836 235.475955 
z
" clip-path="url(#pac07bd7755)" style="fill: #87ceeb; opacity: 0.5; stroke: #000000; stroke-linejoin: miter"/>
   </g>
   <g id="patch_8">
    <path d="M 106.424682 298.591221 
L 109.198527 298.591221 
L 109.198527 222.852901 
L 106.424682 222.852901 
z
" clip-path="url(#pac07bd7755)" style="fill: #87ceeb; opacity: 0.5; stroke: #000000; stroke-linejoin: miter"/>
   </g>
   <g id="patch_9">
    <path d="M 109.198527 298.591221 
L 111.972372 298.591221 
L 111.972372 229.164428 
L 109.198527 229.164428 
z
" clip-path="url(#pac07bd7755)" style="fill: #87ceeb; opacity: 0.5; stroke: #000000; stroke-linejoin: miter"/>
   </g>
   <g id="patch_10">
    <path d="M 111.972372 298.591221 
L 114.746218 298.591221 
L 114.746218 285.968168 
L 111.972372 285.968168 
z
" clip-path="url(#pac07bd7755)" style="fill: #87ceeb; opacity: 0.5; stroke: #000000; stroke-linejoin: miter"/>
   </g>
   <g id="patch_11">
    <path d="M 114.746218 298.591221 
L 117.520063 298.591221 
L 117.520063 292.279694 
L 114.746218 292.279694 
z
" clip-path="url(#pac07bd7755)" style="fill: #87ceeb; opacity: 0.5; stroke: #000000; stroke-linejoin: miter"/>
   </g>
   <g id="patch_12">
    <path d="M 117.520063 298.591221 
L 120.293909 298.591221 
L 120.293909 273.345114 
L 117.520063 273.345114 
z
" clip-path="url(#pac07bd7755)" style="fill: #87ceeb; opacity: 0.5; stroke: #000000; stroke-linejoin: miter"/>
   </g>
   <g id="patch_13">
    <path d="M 120.293909 298.591221 
L 123.067754 298.591221 
L 123.067754 285.968168 
L 120.293909 285.968168 
z
" clip-path="url(#pac07bd7755)" style="fill: #87ceeb; opacity: 0.5; stroke: #000000; stroke-linejoin: miter"/>
   </g>
   <g id="patch_14">
    <path d="M 123.067754 298.591221 
L 125.841599 298.591221 
L 125.841599 273.345114 
L 123.067754 273.345114 
z
" clip-path="url(#pac07bd7755)" style="fill: #87ceeb; opacity: 0.5; stroke: #000000; stroke-linejoin: miter"/>
   </g>
   <g id="patch_15">
    <path d="M 125.841599 298.591221 
L 128.615445 298.591221 
L 128.615445 292.279694 
L 125.841599 292.279694 
z
" clip-path="url(#pac07bd7755)" style="fill: #87ceeb; opacity: 0.5; stroke: #000000; stroke-linejoin: miter"/>
   </g>
   <g id="patch_16">
    <path d="M 128.615445 298.591221 
L 131.38929 298.591221 
L 131.38929 292.279694 
L 128.615445 292.279694 
z
" clip-path="url(#pac07bd7755)" style="fill: #87ceeb; opacity: 0.5; stroke: #000000; stroke-linejoin: miter"/>
   </g>
   <g id="patch_17">
    <path d="M 131.38929 298.591221 
L 134.163136 298.591221 
L 134.163136 279.656641 
L 131.38929 279.656641 
z
" clip-path="url(#pac07bd7755)" style="fill: #87ceeb; opacity: 0.5; stroke: #000000; stroke-linejoin: miter"/>
   </g>
   <g id="patch_18">
    <path d="M 134.163136 298.591221 
L 136.936981 298.591221 
L 136.936981 285.968168 
L 134.163136 285.968168 
z
" clip-path="url(#pac07bd7755)" style="fill: #87ceeb; opacity: 0.5; stroke: #000000; stroke-linejoin: miter"/>
   </g>
   <g id="patch_19">
    <path d="M 136.936981 298.591221 
L 139.710826 298.591221 
L 139.710826 298.591221 
L 136.936981 298.591221 
z
" clip-path="url(#pac07bd7755)" style="fill: #87ceeb; opacity: 0.5; stroke: #000000; stroke-linejoin: miter"/>
   </g>
   <g id="patch_20">
    <path d="M 139.710826 298.591221 
L 142.484672 298.591221 
L 142.484672 298.591221 
L 139.710826 298.591221 
z
" clip-path="url(#pac07bd7755)" style="fill: #87ceeb; opacity: 0.5; stroke: #000000; stroke-linejoin: miter"/>
   </g>
   <g id="patch_21">
    <path d="M 142.484672 298.591221 
L 145.258517 298.591221 
L 145.258517 285.968168 
L 142.484672 285.968168 
z
" clip-path="url(#pac07bd7755)" style="fill: #87ceeb; opacity: 0.5; stroke: #000000; stroke-linejoin: miter"/>
   </g>
   <g id="patch_22">
    <path d="M 145.258517 298.591221 
L 148.032363 298.591221 
L 148.032363 292.279694 
L 145.258517 292.279694 
z
" clip-path="url(#pac07bd7755)" style="fill: #87ceeb; opacity: 0.5; stroke: #000000; stroke-linejoin: miter"/>
   </g>
   <g id="patch_23">
    <path d="M 148.032363 298.591221 
L 150.806208 298.591221 
L 150.806208 298.591221 
L 148.032363 298.591221 
z
" clip-path="url(#pac07bd7755)" style="fill: #87ceeb; opacity: 0.5; stroke: #000000; stroke-linejoin: miter"/>
   </g>
   <g id="patch_24">
    <path d="M 150.806208 298.591221 
L 153.580053 298.591221 
L 153.580053 292.279694 
L 150.806208 292.279694 
z
" clip-path="url(#pac07bd7755)" style="fill: #87ceeb; opacity: 0.5; stroke: #000000; stroke-linejoin: miter"/>
   </g>
   <g id="patch_25">
    <path d="M 153.580053 298.591221 
L 156.353899 298.591221 
L 156.353899 298.591221 
L 153.580053 298.591221 
z
" clip-path="url(#pac07bd7755)" style="fill: #87ceeb; opacity: 0.5; stroke: #000000; stroke-linejoin: miter"/>
   </g>
   <g id="patch_26">
    <path d="M 156.353899 298.591221 
L 159.127744 298.591221 
L 159.127744 292.279694 
L 156.353899 292.279694 
z
" clip-path="url(#pac07bd7755)" style="fill: #87ceeb; opacity: 0.5; stroke: #000000; stroke-linejoin: miter"/>
   </g>
   <g id="patch_27">
    <path d="M 159.127744 298.591221 
L 161.90159 298.591221 
L 161.90159 298.591221 
L 159.127744 298.591221 
z
" clip-path="url(#pac07bd7755)" style="fill: #87ceeb; opacity: 0.5; stroke: #000000; stroke-linejoin: miter"/>
   </g>
   <g id="patch_28">
    <path d="M 161.90159 298.591221 
L 164.675435 298.591221 
L 164.675435 298.591221 
L 161.90159 298.591221 
z
" clip-path="url(#pac07bd7755)" style="fill: #87ceeb; opacity: 0.5; stroke: #000000; stroke-linejoin: miter"/>
   </g>
   <g id="patch_29">
    <path d="M 164.675435 298.591221 
L 167.449281 298.591221 
L 167.449281 298.591221 
L 164.675435 298.591221 
z
" clip-path="url(#pac07bd7755)" style="fill: #87ceeb; opacity: 0.5; stroke: #000000; stroke-linejoin: miter"/>
   </g>
   <g id="patch_30">
    <path d="M 167.449281 298.591221 
L 170.223126 298.591221 
L 170.223126 298.591221 
L 167.449281 298.591221 
z
" clip-path="url(#pac07bd7755)" style="fill: #87ceeb; opacity: 0.5; stroke: #000000; stroke-linejoin: miter"/>
   </g>
   <g id="patch_31">
    <path d="M 170.223126 298.591221 
L 172.996971 298.591221 
L 172.996971 298.591221 
L 170.223126 298.591221 
z
" clip-path="url(#pac07bd7755)" style="fill: #87ceeb; opacity: 0.5; stroke: #000000; stroke-linejoin: miter"/>
   </g>
   <g id="patch_32">
    <path d="M 172.996971 298.591221 
L 175.770817 298.591221 
L 175.770817 298.591221 
L 172.996971 298.591221 
z
" clip-path="url(#pac07bd7755)" style="fill: #87ceeb; opacity: 0.5; stroke: #000000; stroke-linejoin: miter"/>
   </g>
   <g id="patch_33">
    <path d="M 175.770817 298.591221 
L 178.544662 298.591221 
L 178.544662 298.591221 
L 175.770817 298.591221 
z
" clip-path="url(#pac07bd7755)" style="fill: #87ceeb; opacity: 0.5; stroke: #000000; stroke-linejoin: miter"/>
   </g>
   <g id="patch_34">
    <path d="M 178.544662 298.591221 
L 181.318508 298.591221 
L 181.318508 298.591221 
L 178.544662 298.591221 
z
" clip-path="url(#pac07bd7755)" style="fill: #87ceeb; opacity: 0.5; stroke: #000000; stroke-linejoin: miter"/>
   </g>
   <g id="patch_35">
    <path d="M 181.318508 298.591221 
L 184.092353 298.591221 
L 184.092353 298.591221 
L 181.318508 298.591221 
z
" clip-path="url(#pac07bd7755)" style="fill: #87ceeb; opacity: 0.5; stroke: #000000; stroke-linejoin: miter"/>
   </g>
   <g id="patch_36">
    <path d="M 184.092353 298.591221 
L 186.866198 298.591221 
L 186.866198 298.591221 
L 184.092353 298.591221 
z
" clip-path="url(#pac07bd7755)" style="fill: #87ceeb; opacity: 0.5; stroke: #000000; stroke-linejoin: miter"/>
   </g>
   <g id="patch_37">
    <path d="M 186.866198 298.591221 
L 189.640044 298.591221 
L 189.640044 298.591221 
L 186.866198 298.591221 
z
" clip-path="url(#pac07bd7755)" style="fill: #87ceeb; opacity: 0.5; stroke: #000000; stroke-linejoin: miter"/>
   </g>
   <g id="patch_38">
    <path d="M 189.640044 298.591221 
L 192.413889 298.591221 
L 192.413889 292.279694 
L 189.640044 292.279694 
z
" clip-path="url(#pac07bd7755)" style="fill: #87ceeb; opacity: 0.5; stroke: #000000; stroke-linejoin: miter"/>
   </g>
   <g id="patch_39">
    <path d="M 192.413889 298.591221 
L 195.187735 298.591221 
L 195.187735 292.279694 
L 192.413889 292.279694 
z
" clip-path="url(#pac07bd7755)" style="fill: #87ceeb; opacity: 0.5; stroke: #000000; stroke-linejoin: miter"/>
   </g>
   <g id="patch_40">
    <path d="M 195.187735 298.591221 
L 197.96158 298.591221 
L 197.96158 298.591221 
L 195.187735 298.591221 
z
" clip-path="url(#pac07bd7755)" style="fill: #87ceeb; opacity: 0.5; stroke: #000000; stroke-linejoin: miter"/>
   </g>
   <g id="patch_41">
    <path d="M 197.96158 298.591221 
L 200.735425 298.591221 
L 200.735425 298.591221 
L 197.96158 298.591221 
z
" clip-path="url(#pac07bd7755)" style="fill: #87ceeb; opacity: 0.5; stroke: #000000; stroke-linejoin: miter"/>
   </g>
   <g id="patch_42">
    <path d="M 200.735425 298.591221 
L 203.509271 298.591221 
L 203.509271 298.591221 
L 200.735425 298.591221 
z
" clip-path="url(#pac07bd7755)" style="fill: #87ceeb; opacity: 0.5; stroke: #000000; stroke-linejoin: miter"/>
   </g>
   <g id="patch_43">
    <path d="M 203.509271 298.591221 
L 206.283116 298.591221 
L 206.283116 298.591221 
L 203.509271 298.591221 
z
" clip-path="url(#pac07bd7755)" style="fill: #87ceeb; opacity: 0.5; stroke: #000000; stroke-linejoin: miter"/>
   </g>
   <g id="patch_44">
    <path d="M 206.283116 298.591221 
L 209.056962 298.591221 
L 209.056962 298.591221 
L 206.283116 298.591221 
z
" clip-path="url(#pac07bd7755)" style="fill: #87ceeb; opacity: 0.5; stroke: #000000; stroke-linejoin: miter"/>
   </g>
   <g id="patch_45">
    <path d="M 209.056962 298.591221 
L 211.830807 298.591221 
L 211.830807 298.591221 
L 209.056962 298.591221 
z
" clip-path="url(#pac07bd7755)" style="fill: #87ceeb; opacity: 0.5; stroke: #000000; stroke-linejoin: miter"/>
   </g>
   <g id="patch_46">
    <path d="M 211.830807 298.591221 
L 214.604652 298.591221 
L 214.604652 298.591221 
L 211.830807 298.591221 
z
" clip-path="url(#pac07bd7755)" style="fill: #87ceeb; opacity: 0.5; stroke: #000000; stroke-linejoin: miter"/>
   </g>
   <g id="patch_47">
    <path d="M 214.604652 298.591221 
L 217.378498 298.591221 
L 217.378498 292.279694 
L 214.604652 292.279694 
z
" clip-path="url(#pac07bd7755)" style="fill: #87ceeb; opacity: 0.5; stroke: #000000; stroke-linejoin: miter"/>
   </g>
   <g id="patch_48">
    <path d="M 217.378498 298.591221 
L 220.152343 298.591221 
L 220.152343 298.591221 
L 217.378498 298.591221 
z
" clip-path="url(#pac07bd7755)" style="fill: #87ceeb; opacity: 0.5; stroke: #000000; stroke-linejoin: miter"/>
   </g>
   <g id="patch_49">
    <path d="M 220.152343 298.591221 
L 222.926189 298.591221 
L 222.926189 292.279694 
L 220.152343 292.279694 
z
" clip-path="url(#pac07bd7755)" style="fill: #87ceeb; opacity: 0.5; stroke: #000000; stroke-linejoin: miter"/>
   </g>
   <g id="patch_50">
    <path d="M 222.926189 298.591221 
L 225.700034 298.591221 
L 225.700034 292.279694 
L 222.926189 292.279694 
z
" clip-path="url(#pac07bd7755)" style="fill: #87ceeb; opacity: 0.5; stroke: #000000; stroke-linejoin: miter"/>
   </g>
   <g id="patch_51">
    <path d="M 225.700034 298.591221 
L 228.473879 298.591221 
L 228.473879 298.591221 
L 225.700034 298.591221 
z
" clip-path="url(#pac07bd7755)" style="fill: #87ceeb; opacity: 0.5; stroke: #000000; stroke-linejoin: miter"/>
   </g>
   <g id="patch_52">
    <path d="M 228.473879 298.591221 
L 231.247725 298.591221 
L 231.247725 298.591221 
L 228.473879 298.591221 
z
" clip-path="url(#pac07bd7755)" style="fill: #87ceeb; opacity: 0.5; stroke: #000000; stroke-linejoin: miter"/>
   </g>
   <g id="patch_53">
    <path d="M 231.247725 298.591221 
L 234.02157 298.591221 
L 234.02157 298.591221 
L 231.247725 298.591221 
z
" clip-path="url(#pac07bd7755)" style="fill: #87ceeb; opacity: 0.5; stroke: #000000; stroke-linejoin: miter"/>
   </g>
   <g id="patch_54">
    <path d="M 234.02157 298.591221 
L 236.795416 298.591221 
L 236.795416 298.591221 
L 234.02157 298.591221 
z
" clip-path="url(#pac07bd7755)" style="fill: #87ceeb; opacity: 0.5; stroke: #000000; stroke-linejoin: miter"/>
   </g>
   <g id="patch_55">
    <path d="M 236.795416 298.591221 
L 239.569261 298.591221 
L 239.569261 292.279694 
L 236.795416 292.279694 
z
" clip-path="url(#pac07bd7755)" style="fill: #87ceeb; opacity: 0.5; stroke: #000000; stroke-linejoin: miter"/>
   </g>
   <g id="patch_56">
    <path d="M 239.569261 298.591221 
L 242.343106 298.591221 
L 242.343106 298.591221 
L 239.569261 298.591221 
z
" clip-path="url(#pac07bd7755)" style="fill: #87ceeb; opacity: 0.5; stroke: #000000; stroke-linejoin: miter"/>
   </g>
   <g id="patch_57">
    <path d="M 242.343106 298.591221 
L 245.116952 298.591221 
L 245.116952 298.591221 
L 242.343106 298.591221 
z
" clip-path="url(#pac07bd7755)" style="fill: #87ceeb; opacity: 0.5; stroke: #000000; stroke-linejoin: miter"/>
   </g>
   <g id="patch_58">
    <path d="M 245.116952 298.591221 
L 247.890797 298.591221 
L 247.890797 298.591221 
L 245.116952 298.591221 
z
" clip-path="url(#pac07bd7755)" style="fill: #87ceeb; opacity: 0.5; stroke: #000000; stroke-linejoin: miter"/>
   </g>
   <g id="patch_59">
    <path d="M 247.890797 298.591221 
L 250.664643 298.591221 
L 250.664643 298.591221 
L 247.890797 298.591221 
z
" clip-path="url(#pac07bd7755)" style="fill: #87ceeb; opacity: 0.5; stroke: #000000; stroke-linejoin: miter"/>
   </g>
   <g id="patch_60">
    <path d="M 250.664643 298.591221 
L 253.438488 298.591221 
L 253.438488 292.279694 
L 250.664643 292.279694 
z
" clip-path="url(#pac07bd7755)" style="fill: #87ceeb; opacity: 0.5; stroke: #000000; stroke-linejoin: miter"/>
   </g>
   <g id="patch_61">
    <path d="M 253.438488 298.591221 
L 256.212333 298.591221 
L 256.212333 298.591221 
L 253.438488 298.591221 
z
" clip-path="url(#pac07bd7755)" style="fill: #87ceeb; opacity: 0.5; stroke: #000000; stroke-linejoin: miter"/>
   </g>
   <g id="patch_62">
    <path d="M 256.212333 298.591221 
L 258.986179 298.591221 
L 258.986179 298.591221 
L 256.212333 298.591221 
z
" clip-path="url(#pac07bd7755)" style="fill: #87ceeb; opacity: 0.5; stroke: #000000; stroke-linejoin: miter"/>
   </g>
   <g id="patch_63">
    <path d="M 258.986179 298.591221 
L 261.760024 298.591221 
L 261.760024 298.591221 
L 258.986179 298.591221 
z
" clip-path="url(#pac07bd7755)" style="fill: #87ceeb; opacity: 0.5; stroke: #000000; stroke-linejoin: miter"/>
   </g>
   <g id="patch_64">
    <path d="M 261.760024 298.591221 
L 264.53387 298.591221 
L 264.53387 298.591221 
L 261.760024 298.591221 
z
" clip-path="url(#pac07bd7755)" style="fill: #87ceeb; opacity: 0.5; stroke: #000000; stroke-linejoin: miter"/>
   </g>
   <g id="patch_65">
    <path d="M 264.53387 298.591221 
L 267.307715 298.591221 
L 267.307715 298.591221 
L 264.53387 298.591221 
z
" clip-path="url(#pac07bd7755)" style="fill: #87ceeb; opacity: 0.5; stroke: #000000; stroke-linejoin: miter"/>
   </g>
   <g id="patch_66">
    <path d="M 267.307715 298.591221 
L 270.081561 298.591221 
L 270.081561 292.279694 
L 267.307715 292.279694 
z
" clip-path="url(#pac07bd7755)" style="fill: #87ceeb; opacity: 0.5; stroke: #000000; stroke-linejoin: miter"/>
   </g>
   <g id="patch_67">
    <path d="M 270.081561 298.591221 
L 272.855406 298.591221 
L 272.855406 298.591221 
L 270.081561 298.591221 
z
" clip-path="url(#pac07bd7755)" style="fill: #87ceeb; opacity: 0.5; stroke: #000000; stroke-linejoin: miter"/>
   </g>
   <g id="patch_68">
    <path d="M 272.855406 298.591221 
L 275.629251 298.591221 
L 275.629251 298.591221 
L 272.855406 298.591221 
z
" clip-path="url(#pac07bd7755)" style="fill: #87ceeb; opacity: 0.5; stroke: #000000; stroke-linejoin: miter"/>
   </g>
   <g id="patch_69">
    <path d="M 275.629251 298.591221 
L 278.403097 298.591221 
L 278.403097 298.591221 
L 275.629251 298.591221 
z
" clip-path="url(#pac07bd7755)" style="fill: #87ceeb; opacity: 0.5; stroke: #000000; stroke-linejoin: miter"/>
   </g>
   <g id="patch_70">
    <path d="M 278.403097 298.591221 
L 281.176942 298.591221 
L 281.176942 298.591221 
L 278.403097 298.591221 
z
" clip-path="url(#pac07bd7755)" style="fill: #87ceeb; opacity: 0.5; stroke: #000000; stroke-linejoin: miter"/>
   </g>
   <g id="patch_71">
    <path d="M 281.176942 298.591221 
L 283.950788 298.591221 
L 283.950788 298.591221 
L 281.176942 298.591221 
z
" clip-path="url(#pac07bd7755)" style="fill: #87ceeb; opacity: 0.5; stroke: #000000; stroke-linejoin: miter"/>
   </g>
   <g id="patch_72">
    <path d="M 283.950788 298.591221 
L 286.724633 298.591221 
L 286.724633 292.279694 
L 283.950788 292.279694 
z
" clip-path="url(#pac07bd7755)" style="fill: #87ceeb; opacity: 0.5; stroke: #000000; stroke-linejoin: miter"/>
   </g>
   <g id="patch_73">
    <path d="M 286.724633 298.591221 
L 289.498478 298.591221 
L 289.498478 298.591221 
L 286.724633 298.591221 
z
" clip-path="url(#pac07bd7755)" style="fill: #87ceeb; opacity: 0.5; stroke: #000000; stroke-linejoin: miter"/>
   </g>
   <g id="patch_74">
    <path d="M 289.498478 298.591221 
L 292.272324 298.591221 
L 292.272324 298.591221 
L 289.498478 298.591221 
z
" clip-path="url(#pac07bd7755)" style="fill: #87ceeb; opacity: 0.5; stroke: #000000; stroke-linejoin: miter"/>
   </g>
   <g id="patch_75">
    <path d="M 292.272324 298.591221 
L 295.046169 298.591221 
L 295.046169 292.279694 
L 292.272324 292.279694 
z
" clip-path="url(#pac07bd7755)" style="fill: #87ceeb; opacity: 0.5; stroke: #000000; stroke-linejoin: miter"/>
   </g>
   <g id="patch_76">
    <path d="M 295.046169 298.591221 
L 297.820015 298.591221 
L 297.820015 298.591221 
L 295.046169 298.591221 
z
" clip-path="url(#pac07bd7755)" style="fill: #87ceeb; opacity: 0.5; stroke: #000000; stroke-linejoin: miter"/>
   </g>
   <g id="patch_77">
    <path d="M 297.820015 298.591221 
L 300.59386 298.591221 
L 300.59386 298.591221 
L 297.820015 298.591221 
z
" clip-path="url(#pac07bd7755)" style="fill: #87ceeb; opacity: 0.5; stroke: #000000; stroke-linejoin: miter"/>
   </g>
   <g id="patch_78">
    <path d="M 300.59386 298.591221 
L 303.367705 298.591221 
L 303.367705 298.591221 
L 300.59386 298.591221 
z
" clip-path="url(#pac07bd7755)" style="fill: #87ceeb; opacity: 0.5; stroke: #000000; stroke-linejoin: miter"/>
   </g>
   <g id="patch_79">
    <path d="M 303.367705 298.591221 
L 306.141551 298.591221 
L 306.141551 298.591221 
L 303.367705 298.591221 
z
" clip-path="url(#pac07bd7755)" style="fill: #87ceeb; opacity: 0.5; stroke: #000000; stroke-linejoin: miter"/>
   </g>
   <g id="patch_80">
    <path d="M 306.141551 298.591221 
L 308.915396 298.591221 
L 308.915396 298.591221 
L 306.141551 298.591221 
z
" clip-path="url(#pac07bd7755)" style="fill: #87ceeb; opacity: 0.5; stroke: #000000; stroke-linejoin: miter"/>
   </g>
   <g id="patch_81">
    <path d="M 308.915396 298.591221 
L 311.689242 298.591221 
L 311.689242 298.591221 
L 308.915396 298.591221 
z
" clip-path="url(#pac07bd7755)" style="fill: #87ceeb; opacity: 0.5; stroke: #000000; stroke-linejoin: miter"/>
   </g>
   <g id="patch_82">
    <path d="M 311.689242 298.591221 
L 314.463087 298.591221 
L 314.463087 298.591221 
L 311.689242 298.591221 
z
" clip-path="url(#pac07bd7755)" style="fill: #87ceeb; opacity: 0.5; stroke: #000000; stroke-linejoin: miter"/>
   </g>
   <g id="patch_83">
    <path d="M 314.463087 298.591221 
L 317.236932 298.591221 
L 317.236932 298.591221 
L 314.463087 298.591221 
z
" clip-path="url(#pac07bd7755)" style="fill: #87ceeb; opacity: 0.5; stroke: #000000; stroke-linejoin: miter"/>
   </g>
   <g id="patch_84">
    <path d="M 317.236932 298.591221 
L 320.010778 298.591221 
L 320.010778 298.591221 
L 317.236932 298.591221 
z
" clip-path="url(#pac07bd7755)" style="fill: #87ceeb; opacity: 0.5; stroke: #000000; stroke-linejoin: miter"/>
   </g>
   <g id="patch_85">
    <path d="M 320.010778 298.591221 
L 322.784623 298.591221 
L 322.784623 298.591221 
L 320.010778 298.591221 
z
" clip-path="url(#pac07bd7755)" style="fill: #87ceeb; opacity: 0.5; stroke: #000000; stroke-linejoin: miter"/>
   </g>
   <g id="patch_86">
    <path d="M 322.784623 298.591221 
L 325.558469 298.591221 
L 325.558469 298.591221 
L 322.784623 298.591221 
z
" clip-path="url(#pac07bd7755)" style="fill: #87ceeb; opacity: 0.5; stroke: #000000; stroke-linejoin: miter"/>
   </g>
   <g id="patch_87">
    <path d="M 325.558469 298.591221 
L 328.332314 298.591221 
L 328.332314 298.591221 
L 325.558469 298.591221 
z
" clip-path="url(#pac07bd7755)" style="fill: #87ceeb; opacity: 0.5; stroke: #000000; stroke-linejoin: miter"/>
   </g>
   <g id="patch_88">
    <path d="M 328.332314 298.591221 
L 331.106159 298.591221 
L 331.106159 298.591221 
L 328.332314 298.591221 
z
" clip-path="url(#pac07bd7755)" style="fill: #87ceeb; opacity: 0.5; stroke: #000000; stroke-linejoin: miter"/>
   </g>
   <g id="patch_89">
    <path d="M 331.106159 298.591221 
L 333.880005 298.591221 
L 333.880005 298.591221 
L 331.106159 298.591221 
z
" clip-path="url(#pac07bd7755)" style="fill: #87ceeb; opacity: 0.5; stroke: #000000; stroke-linejoin: miter"/>
   </g>
   <g id="patch_90">
    <path d="M 333.880005 298.591221 
L 336.65385 298.591221 
L 336.65385 298.591221 
L 333.880005 298.591221 
z
" clip-path="url(#pac07bd7755)" style="fill: #87ceeb; opacity: 0.5; stroke: #000000; stroke-linejoin: miter"/>
   </g>
   <g id="patch_91">
    <path d="M 336.65385 298.591221 
L 339.427696 298.591221 
L 339.427696 298.591221 
L 336.65385 298.591221 
z
" clip-path="url(#pac07bd7755)" style="fill: #87ceeb; opacity: 0.5; stroke: #000000; stroke-linejoin: miter"/>
   </g>
   <g id="patch_92">
    <path d="M 339.427696 298.591221 
L 342.201541 298.591221 
L 342.201541 298.591221 
L 339.427696 298.591221 
z
" clip-path="url(#pac07bd7755)" style="fill: #87ceeb; opacity: 0.5; stroke: #000000; stroke-linejoin: miter"/>
   </g>
   <g id="patch_93">
    <path d="M 342.201541 298.591221 
L 344.975386 298.591221 
L 344.975386 298.591221 
L 342.201541 298.591221 
z
" clip-path="url(#pac07bd7755)" style="fill: #87ceeb; opacity: 0.5; stroke: #000000; stroke-linejoin: miter"/>
   </g>
   <g id="patch_94">
    <path d="M 344.975386 298.591221 
L 347.749232 298.591221 
L 347.749232 298.591221 
L 344.975386 298.591221 
z
" clip-path="url(#pac07bd7755)" style="fill: #87ceeb; opacity: 0.5; stroke: #000000; stroke-linejoin: miter"/>
   </g>
   <g id="patch_95">
    <path d="M 347.749232 298.591221 
L 350.523077 298.591221 
L 350.523077 298.591221 
L 347.749232 298.591221 
z
" clip-path="url(#pac07bd7755)" style="fill: #87ceeb; opacity: 0.5; stroke: #000000; stroke-linejoin: miter"/>
   </g>
   <g id="patch_96">
    <path d="M 350.523077 298.591221 
L 353.296923 298.591221 
L 353.296923 298.591221 
L 350.523077 298.591221 
z
" clip-path="url(#pac07bd7755)" style="fill: #87ceeb; opacity: 0.5; stroke: #000000; stroke-linejoin: miter"/>
   </g>
   <g id="patch_97">
    <path d="M 353.296923 298.591221 
L 356.070768 298.591221 
L 356.070768 298.591221 
L 353.296923 298.591221 
z
" clip-path="url(#pac07bd7755)" style="fill: #87ceeb; opacity: 0.5; stroke: #000000; stroke-linejoin: miter"/>
   </g>
   <g id="patch_98">
    <path d="M 356.070768 298.591221 
L 358.844614 298.591221 
L 358.844614 298.591221 
L 356.070768 298.591221 
z
" clip-path="url(#pac07bd7755)" style="fill: #87ceeb; opacity: 0.5; stroke: #000000; stroke-linejoin: miter"/>
   </g>
   <g id="patch_99">
    <path d="M 358.844614 298.591221 
L 361.618459 298.591221 
L 361.618459 298.591221 
L 358.844614 298.591221 
z
" clip-path="url(#pac07bd7755)" style="fill: #87ceeb; opacity: 0.5; stroke: #000000; stroke-linejoin: miter"/>
   </g>
   <g id="patch_100">
    <path d="M 361.618459 298.591221 
L 364.392304 298.591221 
L 364.392304 298.591221 
L 361.618459 298.591221 
z
" clip-path="url(#pac07bd7755)" style="fill: #87ceeb; opacity: 0.5; stroke: #000000; stroke-linejoin: miter"/>
   </g>
   <g id="patch_101">
    <path d="M 364.392304 298.591221 
L 367.16615 298.591221 
L 367.16615 298.591221 
L 364.392304 298.591221 
z
" clip-path="url(#pac07bd7755)" style="fill: #87ceeb; opacity: 0.5; stroke: #000000; stroke-linejoin: miter"/>
   </g>
   <g id="patch_102">
    <path d="M 367.16615 298.591221 
L 369.939995 298.591221 
L 369.939995 298.591221 
L 367.16615 298.591221 
z
" clip-path="url(#pac07bd7755)" style="fill: #87ceeb; opacity: 0.5; stroke: #000000; stroke-linejoin: miter"/>
   </g>
   <g id="patch_103">
    <path d="M 369.939995 298.591221 
L 372.713841 298.591221 
L 372.713841 298.591221 
L 369.939995 298.591221 
z
" clip-path="url(#pac07bd7755)" style="fill: #87ceeb; opacity: 0.5; stroke: #000000; stroke-linejoin: miter"/>
   </g>
   <g id="patch_104">
    <path d="M 372.713841 298.591221 
L 375.487686 298.591221 
L 375.487686 298.591221 
L 372.713841 298.591221 
z
" clip-path="url(#pac07bd7755)" style="fill: #87ceeb; opacity: 0.5; stroke: #000000; stroke-linejoin: miter"/>
   </g>
   <g id="patch_105">
    <path d="M 375.487686 298.591221 
L 378.261531 298.591221 
L 378.261531 298.591221 
L 375.487686 298.591221 
z
" clip-path="url(#pac07bd7755)" style="fill: #87ceeb; opacity: 0.5; stroke: #000000; stroke-linejoin: miter"/>
   </g>
   <g id="patch_106">
    <path d="M 378.261531 298.591221 
L 381.035377 298.591221 
L 381.035377 298.591221 
L 378.261531 298.591221 
z
" clip-path="url(#pac07bd7755)" style="fill: #87ceeb; opacity: 0.5; stroke: #000000; stroke-linejoin: miter"/>
   </g>
   <g id="patch_107">
    <path d="M 381.035377 298.591221 
L 383.809222 298.591221 
L 383.809222 298.591221 
L 381.035377 298.591221 
z
" clip-path="url(#pac07bd7755)" style="fill: #87ceeb; opacity: 0.5; stroke: #000000; stroke-linejoin: miter"/>
   </g>
   <g id="patch_108">
    <path d="M 383.809222 298.591221 
L 386.583068 298.591221 
L 386.583068 298.591221 
L 383.809222 298.591221 
z
" clip-path="url(#pac07bd7755)" style="fill: #87ceeb; opacity: 0.5; stroke: #000000; stroke-linejoin: miter"/>
   </g>
   <g id="patch_109">
    <path d="M 386.583068 298.591221 
L 389.356913 298.591221 
L 389.356913 298.591221 
L 386.583068 298.591221 
z
" clip-path="url(#pac07bd7755)" style="fill: #87ceeb; opacity: 0.5; stroke: #000000; stroke-linejoin: miter"/>
   </g>
   <g id="patch_110">
    <path d="M 389.356913 298.591221 
L 392.130758 298.591221 
L 392.130758 292.279694 
L 389.356913 292.279694 
z
" clip-path="url(#pac07bd7755)" style="fill: #87ceeb; opacity: 0.5; stroke: #000000; stroke-linejoin: miter"/>
   </g>
   <g id="patch_111">
    <path d="M 392.130758 298.591221 
L 394.904604 298.591221 
L 394.904604 298.591221 
L 392.130758 298.591221 
z
" clip-path="url(#pac07bd7755)" style="fill: #87ceeb; opacity: 0.5; stroke: #000000; stroke-linejoin: miter"/>
   </g>
   <g id="patch_112">
    <path d="M 394.904604 298.591221 
L 397.678449 298.591221 
L 397.678449 298.591221 
L 394.904604 298.591221 
z
" clip-path="url(#pac07bd7755)" style="fill: #87ceeb; opacity: 0.5; stroke: #000000; stroke-linejoin: miter"/>
   </g>
   <g id="patch_113">
    <path d="M 397.678449 298.591221 
L 400.452295 298.591221 
L 400.452295 298.591221 
L 397.678449 298.591221 
z
" clip-path="url(#pac07bd7755)" style="fill: #87ceeb; opacity: 0.5; stroke: #000000; stroke-linejoin: miter"/>
   </g>
   <g id="patch_114">
    <path d="M 400.452295 298.591221 
L 403.22614 298.591221 
L 403.22614 298.591221 
L 400.452295 298.591221 
z
" clip-path="url(#pac07bd7755)" style="fill: #87ceeb; opacity: 0.5; stroke: #000000; stroke-linejoin: miter"/>
   </g>
   <g id="patch_115">
    <path d="M 403.22614 298.591221 
L 405.999985 298.591221 
L 405.999985 298.591221 
L 403.22614 298.591221 
z
" clip-path="url(#pac07bd7755)" style="fill: #87ceeb; opacity: 0.5; stroke: #000000; stroke-linejoin: miter"/>
   </g>
   <g id="patch_116">
    <path d="M 405.999985 298.591221 
L 408.773831 298.591221 
L 408.773831 298.591221 
L 405.999985 298.591221 
z
" clip-path="url(#pac07bd7755)" style="fill: #87ceeb; opacity: 0.5; stroke: #000000; stroke-linejoin: miter"/>
   </g>
   <g id="patch_117">
    <path d="M 408.773831 298.591221 
L 411.547676 298.591221 
L 411.547676 298.591221 
L 408.773831 298.591221 
z
" clip-path="url(#pac07bd7755)" style="fill: #87ceeb; opacity: 0.5; stroke: #000000; stroke-linejoin: miter"/>
   </g>
   <g id="patch_118">
    <path d="M 411.547676 298.591221 
L 414.321522 298.591221 
L 414.321522 298.591221 
L 411.547676 298.591221 
z
" clip-path="url(#pac07bd7755)" style="fill: #87ceeb; opacity: 0.5; stroke: #000000; stroke-linejoin: miter"/>
   </g>
   <g id="patch_119">
    <path d="M 414.321522 298.591221 
L 417.095367 298.591221 
L 417.095367 298.591221 
L 414.321522 298.591221 
z
" clip-path="url(#pac07bd7755)" style="fill: #87ceeb; opacity: 0.5; stroke: #000000; stroke-linejoin: miter"/>
   </g>
   <g id="patch_120">
    <path d="M 417.095367 298.591221 
L 419.869212 298.591221 
L 419.869212 298.591221 
L 417.095367 298.591221 
z
" clip-path="url(#pac07bd7755)" style="fill: #87ceeb; opacity: 0.5; stroke: #000000; stroke-linejoin: miter"/>
   </g>
   <g id="patch_121">
    <path d="M 419.869212 298.591221 
L 422.643058 298.591221 
L 422.643058 298.591221 
L 419.869212 298.591221 
z
" clip-path="url(#pac07bd7755)" style="fill: #87ceeb; opacity: 0.5; stroke: #000000; stroke-linejoin: miter"/>
   </g>
   <g id="patch_122">
    <path d="M 422.643058 298.591221 
L 425.416903 298.591221 
L 425.416903 298.591221 
L 422.643058 298.591221 
z
" clip-path="url(#pac07bd7755)" style="fill: #87ceeb; opacity: 0.5; stroke: #000000; stroke-linejoin: miter"/>
   </g>
   <g id="patch_123">
    <path d="M 425.416903 298.591221 
L 428.190749 298.591221 
L 428.190749 298.591221 
L 425.416903 298.591221 
z
" clip-path="url(#pac07bd7755)" style="fill: #87ceeb; opacity: 0.5; stroke: #000000; stroke-linejoin: miter"/>
   </g>
   <g id="patch_124">
    <path d="M 428.190749 298.591221 
L 430.964594 298.591221 
L 430.964594 298.591221 
L 428.190749 298.591221 
z
" clip-path="url(#pac07bd7755)" style="fill: #87ceeb; opacity: 0.5; stroke: #000000; stroke-linejoin: miter"/>
   </g>
   <g id="patch_125">
    <path d="M 430.964594 298.591221 
L 433.738439 298.591221 
L 433.738439 298.591221 
L 430.964594 298.591221 
z
" clip-path="url(#pac07bd7755)" style="fill: #87ceeb; opacity: 0.5; stroke: #000000; stroke-linejoin: miter"/>
   </g>
   <g id="patch_126">
    <path d="M 433.738439 298.591221 
L 436.512285 298.591221 
L 436.512285 298.591221 
L 433.738439 298.591221 
z
" clip-path="url(#pac07bd7755)" style="fill: #87ceeb; opacity: 0.5; stroke: #000000; stroke-linejoin: miter"/>
   </g>
   <g id="patch_127">
    <path d="M 436.512285 298.591221 
L 439.28613 298.591221 
L 439.28613 298.591221 
L 436.512285 298.591221 
z
" clip-path="url(#pac07bd7755)" style="fill: #87ceeb; opacity: 0.5; stroke: #000000; stroke-linejoin: miter"/>
   </g>
   <g id="patch_128">
    <path d="M 439.28613 298.591221 
L 442.059976 298.591221 
L 442.059976 298.591221 
L 439.28613 298.591221 
z
" clip-path="url(#pac07bd7755)" style="fill: #87ceeb; opacity: 0.5; stroke: #000000; stroke-linejoin: miter"/>
   </g>
   <g id="patch_129">
    <path d="M 442.059976 298.591221 
L 444.833821 298.591221 
L 444.833821 298.591221 
L 442.059976 298.591221 
z
" clip-path="url(#pac07bd7755)" style="fill: #87ceeb; opacity: 0.5; stroke: #000000; stroke-linejoin: miter"/>
   </g>
   <g id="patch_130">
    <path d="M 444.833821 298.591221 
L 447.607667 298.591221 
L 447.607667 298.591221 
L 444.833821 298.591221 
z
" clip-path="url(#pac07bd7755)" style="fill: #87ceeb; opacity: 0.5; stroke: #000000; stroke-linejoin: miter"/>
   </g>
   <g id="patch_131">
    <path d="M 447.607667 298.591221 
L 450.381512 298.591221 
L 450.381512 298.591221 
L 447.607667 298.591221 
z
" clip-path="url(#pac07bd7755)" style="fill: #87ceeb; opacity: 0.5; stroke: #000000; stroke-linejoin: miter"/>
   </g>
   <g id="patch_132">
    <path d="M 450.381512 298.591221 
L 453.155357 298.591221 
L 453.155357 298.591221 
L 450.381512 298.591221 
z
" clip-path="url(#pac07bd7755)" style="fill: #87ceeb; opacity: 0.5; stroke: #000000; stroke-linejoin: miter"/>
   </g>
   <g id="patch_133">
    <path d="M 453.155357 298.591221 
L 455.929203 298.591221 
L 455.929203 298.591221 
L 453.155357 298.591221 
z
" clip-path="url(#pac07bd7755)" style="fill: #87ceeb; opacity: 0.5; stroke: #000000; stroke-linejoin: miter"/>
   </g>
   <g id="patch_134">
    <path d="M 455.929203 298.591221 
L 458.703048 298.591221 
L 458.703048 298.591221 
L 455.929203 298.591221 
z
" clip-path="url(#pac07bd7755)" style="fill: #87ceeb; opacity: 0.5; stroke: #000000; stroke-linejoin: miter"/>
   </g>
   <g id="patch_135">
    <path d="M 458.703048 298.591221 
L 461.476894 298.591221 
L 461.476894 298.591221 
L 458.703048 298.591221 
z
" clip-path="url(#pac07bd7755)" style="fill: #87ceeb; opacity: 0.5; stroke: #000000; stroke-linejoin: miter"/>
   </g>
   <g id="patch_136">
    <path d="M 461.476894 298.591221 
L 464.250739 298.591221 
L 464.250739 298.591221 
L 461.476894 298.591221 
z
" clip-path="url(#pac07bd7755)" style="fill: #87ceeb; opacity: 0.5; stroke: #000000; stroke-linejoin: miter"/>
   </g>
   <g id="patch_137">
    <path d="M 464.250739 298.591221 
L 467.024584 298.591221 
L 467.024584 298.591221 
L 464.250739 298.591221 
z
" clip-path="url(#pac07bd7755)" style="fill: #87ceeb; opacity: 0.5; stroke: #000000; stroke-linejoin: miter"/>
   </g>
   <g id="patch_138">
    <path d="M 467.024584 298.591221 
L 469.79843 298.591221 
L 469.79843 298.591221 
L 467.024584 298.591221 
z
" clip-path="url(#pac07bd7755)" style="fill: #87ceeb; opacity: 0.5; stroke: #000000; stroke-linejoin: miter"/>
   </g>
   <g id="patch_139">
    <path d="M 469.79843 298.591221 
L 472.572275 298.591221 
L 472.572275 298.591221 
L 469.79843 298.591221 
z
" clip-path="url(#pac07bd7755)" style="fill: #87ceeb; opacity: 0.5; stroke: #000000; stroke-linejoin: miter"/>
   </g>
   <g id="patch_140">
    <path d="M 472.572275 298.591221 
L 475.346121 298.591221 
L 475.346121 298.591221 
L 472.572275 298.591221 
z
" clip-path="url(#pac07bd7755)" style="fill: #87ceeb; opacity: 0.5; stroke: #000000; stroke-linejoin: miter"/>
   </g>
   <g id="patch_141">
    <path d="M 475.346121 298.591221 
L 478.119966 298.591221 
L 478.119966 298.591221 
L 475.346121 298.591221 
z
" clip-path="url(#pac07bd7755)" style="fill: #87ceeb; opacity: 0.5; stroke: #000000; stroke-linejoin: miter"/>
   </g>
   <g id="patch_142">
    <path d="M 478.119966 298.591221 
L 480.893811 298.591221 
L 480.893811 298.591221 
L 478.119966 298.591221 
z
" clip-path="url(#pac07bd7755)" style="fill: #87ceeb; opacity: 0.5; stroke: #000000; stroke-linejoin: miter"/>
   </g>
   <g id="patch_143">
    <path d="M 480.893811 298.591221 
L 483.667657 298.591221 
L 483.667657 298.591221 
L 480.893811 298.591221 
z
" clip-path="url(#pac07bd7755)" style="fill: #87ceeb; opacity: 0.5; stroke: #000000; stroke-linejoin: miter"/>
   </g>
   <g id="patch_144">
    <path d="M 483.667657 298.591221 
L 486.441502 298.591221 
L 486.441502 298.591221 
L 483.667657 298.591221 
z
" clip-path="url(#pac07bd7755)" style="fill: #87ceeb; opacity: 0.5; stroke: #000000; stroke-linejoin: miter"/>
   </g>
   <g id="patch_145">
    <path d="M 486.441502 298.591221 
L 489.215348 298.591221 
L 489.215348 298.591221 
L 486.441502 298.591221 
z
" clip-path="url(#pac07bd7755)" style="fill: #87ceeb; opacity: 0.5; stroke: #000000; stroke-linejoin: miter"/>
   </g>
   <g id="patch_146">
    <path d="M 489.215348 298.591221 
L 491.989193 298.591221 
L 491.989193 298.591221 
L 489.215348 298.591221 
z
" clip-path="url(#pac07bd7755)" style="fill: #87ceeb; opacity: 0.5; stroke: #000000; stroke-linejoin: miter"/>
   </g>
   <g id="patch_147">
    <path d="M 491.989193 298.591221 
L 494.763038 298.591221 
L 494.763038 298.591221 
L 491.989193 298.591221 
z
" clip-path="url(#pac07bd7755)" style="fill: #87ceeb; opacity: 0.5; stroke: #000000; stroke-linejoin: miter"/>
   </g>
   <g id="patch_148">
    <path d="M 494.763038 298.591221 
L 497.536884 298.591221 
L 497.536884 298.591221 
L 494.763038 298.591221 
z
" clip-path="url(#pac07bd7755)" style="fill: #87ceeb; opacity: 0.5; stroke: #000000; stroke-linejoin: miter"/>
   </g>
   <g id="patch_149">
    <path d="M 497.536884 298.591221 
L 500.310729 298.591221 
L 500.310729 298.591221 
L 497.536884 298.591221 
z
" clip-path="url(#pac07bd7755)" style="fill: #87ceeb; opacity: 0.5; stroke: #000000; stroke-linejoin: miter"/>
   </g>
   <g id="patch_150">
    <path d="M 500.310729 298.591221 
L 503.084575 298.591221 
L 503.084575 298.591221 
L 500.310729 298.591221 
z
" clip-path="url(#pac07bd7755)" style="fill: #87ceeb; opacity: 0.5; stroke: #000000; stroke-linejoin: miter"/>
   </g>
   <g id="patch_151">
    <path d="M 503.084575 298.591221 
L 505.85842 298.591221 
L 505.85842 298.591221 
L 503.084575 298.591221 
z
" clip-path="url(#pac07bd7755)" style="fill: #87ceeb; opacity: 0.5; stroke: #000000; stroke-linejoin: miter"/>
   </g>
   <g id="patch_152">
    <path d="M 505.85842 298.591221 
L 508.632265 298.591221 
L 508.632265 298.591221 
L 505.85842 298.591221 
z
" clip-path="url(#pac07bd7755)" style="fill: #87ceeb; opacity: 0.5; stroke: #000000; stroke-linejoin: miter"/>
   </g>
   <g id="patch_153">
    <path d="M 508.632265 298.591221 
L 511.406111 298.591221 
L 511.406111 298.591221 
L 508.632265 298.591221 
z
" clip-path="url(#pac07bd7755)" style="fill: #87ceeb; opacity: 0.5; stroke: #000000; stroke-linejoin: miter"/>
   </g>
   <g id="patch_154">
    <path d="M 511.406111 298.591221 
L 514.179956 298.591221 
L 514.179956 298.591221 
L 511.406111 298.591221 
z
" clip-path="url(#pac07bd7755)" style="fill: #87ceeb; opacity: 0.5; stroke: #000000; stroke-linejoin: miter"/>
   </g>
   <g id="patch_155">
    <path d="M 514.179956 298.591221 
L 516.953802 298.591221 
L 516.953802 298.591221 
L 514.179956 298.591221 
z
" clip-path="url(#pac07bd7755)" style="fill: #87ceeb; opacity: 0.5; stroke: #000000; stroke-linejoin: miter"/>
   </g>
   <g id="patch_156">
    <path d="M 516.953802 298.591221 
L 519.727647 298.591221 
L 519.727647 298.591221 
L 516.953802 298.591221 
z
" clip-path="url(#pac07bd7755)" style="fill: #87ceeb; opacity: 0.5; stroke: #000000; stroke-linejoin: miter"/>
   </g>
   <g id="patch_157">
    <path d="M 519.727647 298.591221 
L 522.501492 298.591221 
L 522.501492 298.591221 
L 519.727647 298.591221 
z
" clip-path="url(#pac07bd7755)" style="fill: #87ceeb; opacity: 0.5; stroke: #000000; stroke-linejoin: miter"/>
   </g>
   <g id="patch_158">
    <path d="M 522.501492 298.591221 
L 525.275338 298.591221 
L 525.275338 298.591221 
L 522.501492 298.591221 
z
" clip-path="url(#pac07bd7755)" style="fill: #87ceeb; opacity: 0.5; stroke: #000000; stroke-linejoin: miter"/>
   </g>
   <g id="patch_159">
    <path d="M 525.275338 298.591221 
L 528.049183 298.591221 
L 528.049183 298.591221 
L 525.275338 298.591221 
z
" clip-path="url(#pac07bd7755)" style="fill: #87ceeb; opacity: 0.5; stroke: #000000; stroke-linejoin: miter"/>
   </g>
   <g id="patch_160">
    <path d="M 528.049183 298.591221 
L 530.823029 298.591221 
L 530.823029 298.591221 
L 528.049183 298.591221 
z
" clip-path="url(#pac07bd7755)" style="fill: #87ceeb; opacity: 0.5; stroke: #000000; stroke-linejoin: miter"/>
   </g>
   <g id="patch_161">
    <path d="M 530.823029 298.591221 
L 533.596874 298.591221 
L 533.596874 298.591221 
L 530.823029 298.591221 
z
" clip-path="url(#pac07bd7755)" style="fill: #87ceeb; opacity: 0.5; stroke: #000000; stroke-linejoin: miter"/>
   </g>
   <g id="patch_162">
    <path d="M 533.596874 298.591221 
L 536.370719 298.591221 
L 536.370719 298.591221 
L 533.596874 298.591221 
z
" clip-path="url(#pac07bd7755)" style="fill: #87ceeb; opacity: 0.5; stroke: #000000; stroke-linejoin: miter"/>
   </g>
   <g id="patch_163">
    <path d="M 536.370719 298.591221 
L 539.144565 298.591221 
L 539.144565 298.591221 
L 536.370719 298.591221 
z
" clip-path="url(#pac07bd7755)" style="fill: #87ceeb; opacity: 0.5; stroke: #000000; stroke-linejoin: miter"/>
   </g>
   <g id="patch_164">
    <path d="M 539.144565 298.591221 
L 541.91841 298.591221 
L 541.91841 298.591221 
L 539.144565 298.591221 
z
" clip-path="url(#pac07bd7755)" style="fill: #87ceeb; opacity: 0.5; stroke: #000000; stroke-linejoin: miter"/>
   </g>
   <g id="patch_165">
    <path d="M 541.91841 298.591221 
L 544.692256 298.591221 
L 544.692256 292.279694 
L 541.91841 292.279694 
z
" clip-path="url(#pac07bd7755)" style="fill: #87ceeb; opacity: 0.5; stroke: #000000; stroke-linejoin: miter"/>
   </g>
   <g id="patch_166">
    <path d="M 544.692256 298.591221 
L 547.466101 298.591221 
L 547.466101 298.591221 
L 544.692256 298.591221 
z
" clip-path="url(#pac07bd7755)" style="fill: #87ceeb; opacity: 0.5; stroke: #000000; stroke-linejoin: miter"/>
   </g>
   <g id="patch_167">
    <path d="M 547.466101 298.591221 
L 550.239947 298.591221 
L 550.239947 298.591221 
L 547.466101 298.591221 
z
" clip-path="url(#pac07bd7755)" style="fill: #87ceeb; opacity: 0.5; stroke: #000000; stroke-linejoin: miter"/>
   </g>
   <g id="patch_168">
    <path d="M 550.239947 298.591221 
L 553.013792 298.591221 
L 553.013792 298.591221 
L 550.239947 298.591221 
z
" clip-path="url(#pac07bd7755)" style="fill: #87ceeb; opacity: 0.5; stroke: #000000; stroke-linejoin: miter"/>
   </g>
   <g id="patch_169">
    <path d="M 553.013792 298.591221 
L 555.787637 298.591221 
L 555.787637 298.591221 
L 553.013792 298.591221 
z
" clip-path="url(#pac07bd7755)" style="fill: #87ceeb; opacity: 0.5; stroke: #000000; stroke-linejoin: miter"/>
   </g>
   <g id="patch_170">
    <path d="M 555.787637 298.591221 
L 558.561483 298.591221 
L 558.561483 298.591221 
L 555.787637 298.591221 
z
" clip-path="url(#pac07bd7755)" style="fill: #87ceeb; opacity: 0.5; stroke: #000000; stroke-linejoin: miter"/>
   </g>
   <g id="patch_171">
    <path d="M 558.561483 298.591221 
L 561.335328 298.591221 
L 561.335328 298.591221 
L 558.561483 298.591221 
z
" clip-path="url(#pac07bd7755)" style="fill: #87ceeb; opacity: 0.5; stroke: #000000; stroke-linejoin: miter"/>
   </g>
   <g id="patch_172">
    <path d="M 561.335328 298.591221 
L 564.109174 298.591221 
L 564.109174 298.591221 
L 561.335328 298.591221 
z
" clip-path="url(#pac07bd7755)" style="fill: #87ceeb; opacity: 0.5; stroke: #000000; stroke-linejoin: miter"/>
   </g>
   <g id="patch_173">
    <path d="M 564.109174 298.591221 
L 566.883019 298.591221 
L 566.883019 298.591221 
L 564.109174 298.591221 
z
" clip-path="url(#pac07bd7755)" style="fill: #87ceeb; opacity: 0.5; stroke: #000000; stroke-linejoin: miter"/>
   </g>
   <g id="patch_174">
    <path d="M 566.883019 298.591221 
L 569.656864 298.591221 
L 569.656864 298.591221 
L 566.883019 298.591221 
z
" clip-path="url(#pac07bd7755)" style="fill: #87ceeb; opacity: 0.5; stroke: #000000; stroke-linejoin: miter"/>
   </g>
   <g id="patch_175">
    <path d="M 569.656864 298.591221 
L 572.43071 298.591221 
L 572.43071 298.591221 
L 569.656864 298.591221 
z
" clip-path="url(#pac07bd7755)" style="fill: #87ceeb; opacity: 0.5; stroke: #000000; stroke-linejoin: miter"/>
   </g>
   <g id="patch_176">
    <path d="M 572.43071 298.591221 
L 575.204555 298.591221 
L 575.204555 298.591221 
L 572.43071 298.591221 
z
" clip-path="url(#pac07bd7755)" style="fill: #87ceeb; opacity: 0.5; stroke: #000000; stroke-linejoin: miter"/>
   </g>
   <g id="patch_177">
    <path d="M 575.204555 298.591221 
L 577.978401 298.591221 
L 577.978401 298.591221 
L 575.204555 298.591221 
z
" clip-path="url(#pac07bd7755)" style="fill: #87ceeb; opacity: 0.5; stroke: #000000; stroke-linejoin: miter"/>
   </g>
   <g id="patch_178">
    <path d="M 577.978401 298.591221 
L 580.752246 298.591221 
L 580.752246 298.591221 
L 577.978401 298.591221 
z
" clip-path="url(#pac07bd7755)" style="fill: #87ceeb; opacity: 0.5; stroke: #000000; stroke-linejoin: miter"/>
   </g>
   <g id="patch_179">
    <path d="M 580.752246 298.591221 
L 583.526091 298.591221 
L 583.526091 298.591221 
L 580.752246 298.591221 
z
" clip-path="url(#pac07bd7755)" style="fill: #87ceeb; opacity: 0.5; stroke: #000000; stroke-linejoin: miter"/>
   </g>
   <g id="patch_180">
    <path d="M 583.526091 298.591221 
L 586.299937 298.591221 
L 586.299937 298.591221 
L 583.526091 298.591221 
z
" clip-path="url(#pac07bd7755)" style="fill: #87ceeb; opacity: 0.5; stroke: #000000; stroke-linejoin: miter"/>
   </g>
   <g id="patch_181">
    <path d="M 586.299937 298.591221 
L 589.073782 298.591221 
L 589.073782 298.591221 
L 586.299937 298.591221 
z
" clip-path="url(#pac07bd7755)" style="fill: #87ceeb; opacity: 0.5; stroke: #000000; stroke-linejoin: miter"/>
   </g>
   <g id="patch_182">
    <path d="M 589.073782 298.591221 
L 591.847628 298.591221 
L 591.847628 298.591221 
L 589.073782 298.591221 
z
" clip-path="url(#pac07bd7755)" style="fill: #87ceeb; opacity: 0.5; stroke: #000000; stroke-linejoin: miter"/>
   </g>
   <g id="patch_183">
    <path d="M 591.847628 298.591221 
L 594.621473 298.591221 
L 594.621473 298.591221 
L 591.847628 298.591221 
z
" clip-path="url(#pac07bd7755)" style="fill: #87ceeb; opacity: 0.5; stroke: #000000; stroke-linejoin: miter"/>
   </g>
   <g id="patch_184">
    <path d="M 594.621473 298.591221 
L 597.395318 298.591221 
L 597.395318 298.591221 
L 594.621473 298.591221 
z
" clip-path="url(#pac07bd7755)" style="fill: #87ceeb; opacity: 0.5; stroke: #000000; stroke-linejoin: miter"/>
   </g>
   <g id="patch_185">
    <path d="M 597.395318 298.591221 
L 600.169164 298.591221 
L 600.169164 298.591221 
L 597.395318 298.591221 
z
" clip-path="url(#pac07bd7755)" style="fill: #87ceeb; opacity: 0.5; stroke: #000000; stroke-linejoin: miter"/>
   </g>
   <g id="patch_186">
    <path d="M 600.169164 298.591221 
L 602.943009 298.591221 
L 602.943009 298.591221 
L 600.169164 298.591221 
z
" clip-path="url(#pac07bd7755)" style="fill: #87ceeb; opacity: 0.5; stroke: #000000; stroke-linejoin: miter"/>
   </g>
   <g id="patch_187">
    <path d="M 602.943009 298.591221 
L 605.716855 298.591221 
L 605.716855 298.591221 
L 602.943009 298.591221 
z
" clip-path="url(#pac07bd7755)" style="fill: #87ceeb; opacity: 0.5; stroke: #000000; stroke-linejoin: miter"/>
   </g>
   <g id="patch_188">
    <path d="M 605.716855 298.591221 
L 608.4907 298.591221 
L 608.4907 298.591221 
L 605.716855 298.591221 
z
" clip-path="url(#pac07bd7755)" style="fill: #87ceeb; opacity: 0.5; stroke: #000000; stroke-linejoin: miter"/>
   </g>
   <g id="patch_189">
    <path d="M 608.4907 298.591221 
L 611.264545 298.591221 
L 611.264545 292.279694 
L 608.4907 292.279694 
z
" clip-path="url(#pac07bd7755)" style="fill: #87ceeb; opacity: 0.5; stroke: #000000; stroke-linejoin: miter"/>
   </g>
   <g id="matplotlib.axis_1">
    <g id="xtick_1">
     <g id="line2d_1">
      <defs>
       <path id="m501a28fbdb" d="M 0 0 
L 0 3.5 
" style="stroke: #000000; stroke-width: 0.8"/>
      </defs>
      <g>
       <use xlink:href="#m501a28fbdb" x="92.555455" y="298.591221" style="stroke: #000000; stroke-width: 0.8"/>
      </g>
     </g>
     <g id="text_1">
      <!-- 0 -->
      <g transform="translate(92.257144 315.463094) rotate(-45) scale(0.1 -0.1)">
       <defs>
        <path id="DejaVuSans-30" d="M 2034 4250 
Q 1547 4250 1301 3770 
Q 1056 3291 1056 2328 
Q 1056 1369 1301 889 
Q 1547 409 2034 409 
Q 2525 409 2770 889 
Q 3016 1369 3016 2328 
Q 3016 3291 2770 3770 
Q 2525 4250 2034 4250 
z
M 2034 4750 
Q 2819 4750 3233 4129 
Q 3647 3509 3647 2328 
Q 3647 1150 3233 529 
Q 2819 -91 2034 -91 
Q 1250 -91 836 529 
Q 422 1150 422 2328 
Q 422 3509 836 4129 
Q 1250 4750 2034 4750 
z
" transform="scale(0.015625)"/>
       </defs>
       <use xlink:href="#DejaVuSans-30"/>
      </g>
     </g>
    </g>
    <g id="xtick_2">
     <g id="line2d_2">
      <g>
       <use xlink:href="#m501a28fbdb" x="120.293909" y="298.591221" style="stroke: #000000; stroke-width: 0.8"/>
      </g>
     </g>
     <g id="text_2">
      <!-- 1000 -->
      <g transform="translate(113.247148 328.959995) rotate(-45) scale(0.1 -0.1)">
       <defs>
        <path id="DejaVuSans-31" d="M 794 531 
L 1825 531 
L 1825 4091 
L 703 3866 
L 703 4441 
L 1819 4666 
L 2450 4666 
L 2450 531 
L 3481 531 
L 3481 0 
L 794 0 
L 794 531 
z
" transform="scale(0.015625)"/>
       </defs>
       <use xlink:href="#DejaVuSans-31"/>
       <use xlink:href="#DejaVuSans-30" x="63.623047"/>
       <use xlink:href="#DejaVuSans-30" x="127.246094"/>
       <use xlink:href="#DejaVuSans-30" x="190.869141"/>
      </g>
     </g>
    </g>
    <g id="xtick_3">
     <g id="line2d_3">
      <g>
       <use xlink:href="#m501a28fbdb" x="148.032363" y="298.591221" style="stroke: #000000; stroke-width: 0.8"/>
      </g>
     </g>
     <g id="text_3">
      <!-- 2000 -->
      <g transform="translate(140.985602 328.959995) rotate(-45) scale(0.1 -0.1)">
       <defs>
        <path id="DejaVuSans-32" d="M 1228 531 
L 3431 531 
L 3431 0 
L 469 0 
L 469 531 
Q 828 903 1448 1529 
Q 2069 2156 2228 2338 
Q 2531 2678 2651 2914 
Q 2772 3150 2772 3378 
Q 2772 3750 2511 3984 
Q 2250 4219 1831 4219 
Q 1534 4219 1204 4116 
Q 875 4013 500 3803 
L 500 4441 
Q 881 4594 1212 4672 
Q 1544 4750 1819 4750 
Q 2544 4750 2975 4387 
Q 3406 4025 3406 3419 
Q 3406 3131 3298 2873 
Q 3191 2616 2906 2266 
Q 2828 2175 2409 1742 
Q 1991 1309 1228 531 
z
" transform="scale(0.015625)"/>
       </defs>
       <use xlink:href="#DejaVuSans-32"/>
       <use xlink:href="#DejaVuSans-30" x="63.623047"/>
       <use xlink:href="#DejaVuSans-30" x="127.246094"/>
       <use xlink:href="#DejaVuSans-30" x="190.869141"/>
      </g>
     </g>
    </g>
    <g id="xtick_4">
     <g id="line2d_4">
      <g>
       <use xlink:href="#m501a28fbdb" x="175.770817" y="298.591221" style="stroke: #000000; stroke-width: 0.8"/>
      </g>
     </g>
     <g id="text_4">
      <!-- 3000 -->
      <g transform="translate(168.724056 328.959995) rotate(-45) scale(0.1 -0.1)">
       <defs>
        <path id="DejaVuSans-33" d="M 2597 2516 
Q 3050 2419 3304 2112 
Q 3559 1806 3559 1356 
Q 3559 666 3084 287 
Q 2609 -91 1734 -91 
Q 1441 -91 1130 -33 
Q 819 25 488 141 
L 488 750 
Q 750 597 1062 519 
Q 1375 441 1716 441 
Q 2309 441 2620 675 
Q 2931 909 2931 1356 
Q 2931 1769 2642 2001 
Q 2353 2234 1838 2234 
L 1294 2234 
L 1294 2753 
L 1863 2753 
Q 2328 2753 2575 2939 
Q 2822 3125 2822 3475 
Q 2822 3834 2567 4026 
Q 2313 4219 1838 4219 
Q 1578 4219 1281 4162 
Q 984 4106 628 3988 
L 628 4550 
Q 988 4650 1302 4700 
Q 1616 4750 1894 4750 
Q 2613 4750 3031 4423 
Q 3450 4097 3450 3541 
Q 3450 3153 3228 2886 
Q 3006 2619 2597 2516 
z
" transform="scale(0.015625)"/>
       </defs>
       <use xlink:href="#DejaVuSans-33"/>
       <use xlink:href="#DejaVuSans-30" x="63.623047"/>
       <use xlink:href="#DejaVuSans-30" x="127.246094"/>
       <use xlink:href="#DejaVuSans-30" x="190.869141"/>
      </g>
     </g>
    </g>
    <g id="xtick_5">
     <g id="line2d_5">
      <g>
       <use xlink:href="#m501a28fbdb" x="203.509271" y="298.591221" style="stroke: #000000; stroke-width: 0.8"/>
      </g>
     </g>
     <g id="text_5">
      <!-- 4000 -->
      <g transform="translate(196.46251 328.959995) rotate(-45) scale(0.1 -0.1)">
       <defs>
        <path id="DejaVuSans-34" d="M 2419 4116 
L 825 1625 
L 2419 1625 
L 2419 4116 
z
M 2253 4666 
L 3047 4666 
L 3047 1625 
L 3713 1625 
L 3713 1100 
L 3047 1100 
L 3047 0 
L 2419 0 
L 2419 1100 
L 313 1100 
L 313 1709 
L 2253 4666 
z
" transform="scale(0.015625)"/>
       </defs>
       <use xlink:href="#DejaVuSans-34"/>
       <use xlink:href="#DejaVuSans-30" x="63.623047"/>
       <use xlink:href="#DejaVuSans-30" x="127.246094"/>
       <use xlink:href="#DejaVuSans-30" x="190.869141"/>
      </g>
     </g>
    </g>
    <g id="xtick_6">
     <g id="line2d_6">
      <g>
       <use xlink:href="#m501a28fbdb" x="231.247725" y="298.591221" style="stroke: #000000; stroke-width: 0.8"/>
      </g>
     </g>
     <g id="text_6">
      <!-- 5000 -->
      <g transform="translate(224.200964 328.959995) rotate(-45) scale(0.1 -0.1)">
       <defs>
        <path id="DejaVuSans-35" d="M 691 4666 
L 3169 4666 
L 3169 4134 
L 1269 4134 
L 1269 2991 
Q 1406 3038 1543 3061 
Q 1681 3084 1819 3084 
Q 2600 3084 3056 2656 
Q 3513 2228 3513 1497 
Q 3513 744 3044 326 
Q 2575 -91 1722 -91 
Q 1428 -91 1123 -41 
Q 819 9 494 109 
L 494 744 
Q 775 591 1075 516 
Q 1375 441 1709 441 
Q 2250 441 2565 725 
Q 2881 1009 2881 1497 
Q 2881 1984 2565 2268 
Q 2250 2553 1709 2553 
Q 1456 2553 1204 2497 
Q 953 2441 691 2322 
L 691 4666 
z
" transform="scale(0.015625)"/>
       </defs>
       <use xlink:href="#DejaVuSans-35"/>
       <use xlink:href="#DejaVuSans-30" x="63.623047"/>
       <use xlink:href="#DejaVuSans-30" x="127.246094"/>
       <use xlink:href="#DejaVuSans-30" x="190.869141"/>
      </g>
     </g>
    </g>
    <g id="xtick_7">
     <g id="line2d_7">
      <g>
       <use xlink:href="#m501a28fbdb" x="258.986179" y="298.591221" style="stroke: #000000; stroke-width: 0.8"/>
      </g>
     </g>
     <g id="text_7">
      <!-- 6000 -->
      <g transform="translate(251.939418 328.959995) rotate(-45) scale(0.1 -0.1)">
       <defs>
        <path id="DejaVuSans-36" d="M 2113 2584 
Q 1688 2584 1439 2293 
Q 1191 2003 1191 1497 
Q 1191 994 1439 701 
Q 1688 409 2113 409 
Q 2538 409 2786 701 
Q 3034 994 3034 1497 
Q 3034 2003 2786 2293 
Q 2538 2584 2113 2584 
z
M 3366 4563 
L 3366 3988 
Q 3128 4100 2886 4159 
Q 2644 4219 2406 4219 
Q 1781 4219 1451 3797 
Q 1122 3375 1075 2522 
Q 1259 2794 1537 2939 
Q 1816 3084 2150 3084 
Q 2853 3084 3261 2657 
Q 3669 2231 3669 1497 
Q 3669 778 3244 343 
Q 2819 -91 2113 -91 
Q 1303 -91 875 529 
Q 447 1150 447 2328 
Q 447 3434 972 4092 
Q 1497 4750 2381 4750 
Q 2619 4750 2861 4703 
Q 3103 4656 3366 4563 
z
" transform="scale(0.015625)"/>
       </defs>
       <use xlink:href="#DejaVuSans-36"/>
       <use xlink:href="#DejaVuSans-30" x="63.623047"/>
       <use xlink:href="#DejaVuSans-30" x="127.246094"/>
       <use xlink:href="#DejaVuSans-30" x="190.869141"/>
      </g>
     </g>
    </g>
    <g id="xtick_8">
     <g id="line2d_8">
      <g>
       <use xlink:href="#m501a28fbdb" x="286.724633" y="298.591221" style="stroke: #000000; stroke-width: 0.8"/>
      </g>
     </g>
     <g id="text_8">
      <!-- 7000 -->
      <g transform="translate(279.677872 328.959995) rotate(-45) scale(0.1 -0.1)">
       <defs>
        <path id="DejaVuSans-37" d="M 525 4666 
L 3525 4666 
L 3525 4397 
L 1831 0 
L 1172 0 
L 2766 4134 
L 525 4134 
L 525 4666 
z
" transform="scale(0.015625)"/>
       </defs>
       <use xlink:href="#DejaVuSans-37"/>
       <use xlink:href="#DejaVuSans-30" x="63.623047"/>
       <use xlink:href="#DejaVuSans-30" x="127.246094"/>
       <use xlink:href="#DejaVuSans-30" x="190.869141"/>
      </g>
     </g>
    </g>
    <g id="xtick_9">
     <g id="line2d_9">
      <g>
       <use xlink:href="#m501a28fbdb" x="314.463087" y="298.591221" style="stroke: #000000; stroke-width: 0.8"/>
      </g>
     </g>
     <g id="text_9">
      <!-- 8000 -->
      <g transform="translate(307.416326 328.959995) rotate(-45) scale(0.1 -0.1)">
       <defs>
        <path id="DejaVuSans-38" d="M 2034 2216 
Q 1584 2216 1326 1975 
Q 1069 1734 1069 1313 
Q 1069 891 1326 650 
Q 1584 409 2034 409 
Q 2484 409 2743 651 
Q 3003 894 3003 1313 
Q 3003 1734 2745 1975 
Q 2488 2216 2034 2216 
z
M 1403 2484 
Q 997 2584 770 2862 
Q 544 3141 544 3541 
Q 544 4100 942 4425 
Q 1341 4750 2034 4750 
Q 2731 4750 3128 4425 
Q 3525 4100 3525 3541 
Q 3525 3141 3298 2862 
Q 3072 2584 2669 2484 
Q 3125 2378 3379 2068 
Q 3634 1759 3634 1313 
Q 3634 634 3220 271 
Q 2806 -91 2034 -91 
Q 1263 -91 848 271 
Q 434 634 434 1313 
Q 434 1759 690 2068 
Q 947 2378 1403 2484 
z
M 1172 3481 
Q 1172 3119 1398 2916 
Q 1625 2713 2034 2713 
Q 2441 2713 2670 2916 
Q 2900 3119 2900 3481 
Q 2900 3844 2670 4047 
Q 2441 4250 2034 4250 
Q 1625 4250 1398 4047 
Q 1172 3844 1172 3481 
z
" transform="scale(0.015625)"/>
       </defs>
       <use xlink:href="#DejaVuSans-38"/>
       <use xlink:href="#DejaVuSans-30" x="63.623047"/>
       <use xlink:href="#DejaVuSans-30" x="127.246094"/>
       <use xlink:href="#DejaVuSans-30" x="190.869141"/>
      </g>
     </g>
    </g>
    <g id="xtick_10">
     <g id="line2d_10">
      <g>
       <use xlink:href="#m501a28fbdb" x="342.201541" y="298.591221" style="stroke: #000000; stroke-width: 0.8"/>
      </g>
     </g>
     <g id="text_10">
      <!-- 9000 -->
      <g transform="translate(335.15478 328.959995) rotate(-45) scale(0.1 -0.1)">
       <defs>
        <path id="DejaVuSans-39" d="M 703 97 
L 703 672 
Q 941 559 1184 500 
Q 1428 441 1663 441 
Q 2288 441 2617 861 
Q 2947 1281 2994 2138 
Q 2813 1869 2534 1725 
Q 2256 1581 1919 1581 
Q 1219 1581 811 2004 
Q 403 2428 403 3163 
Q 403 3881 828 4315 
Q 1253 4750 1959 4750 
Q 2769 4750 3195 4129 
Q 3622 3509 3622 2328 
Q 3622 1225 3098 567 
Q 2575 -91 1691 -91 
Q 1453 -91 1209 -44 
Q 966 3 703 97 
z
M 1959 2075 
Q 2384 2075 2632 2365 
Q 2881 2656 2881 3163 
Q 2881 3666 2632 3958 
Q 2384 4250 1959 4250 
Q 1534 4250 1286 3958 
Q 1038 3666 1038 3163 
Q 1038 2656 1286 2365 
Q 1534 2075 1959 2075 
z
" transform="scale(0.015625)"/>
       </defs>
       <use xlink:href="#DejaVuSans-39"/>
       <use xlink:href="#DejaVuSans-30" x="63.623047"/>
       <use xlink:href="#DejaVuSans-30" x="127.246094"/>
       <use xlink:href="#DejaVuSans-30" x="190.869141"/>
      </g>
     </g>
    </g>
    <g id="xtick_11">
     <g id="line2d_11">
      <g>
       <use xlink:href="#m501a28fbdb" x="369.939995" y="298.591221" style="stroke: #000000; stroke-width: 0.8"/>
      </g>
     </g>
     <g id="text_11">
      <!-- 10000 -->
      <g transform="translate(360.643751 333.458962) rotate(-45) scale(0.1 -0.1)">
       <use xlink:href="#DejaVuSans-31"/>
       <use xlink:href="#DejaVuSans-30" x="63.623047"/>
       <use xlink:href="#DejaVuSans-30" x="127.246094"/>
       <use xlink:href="#DejaVuSans-30" x="190.869141"/>
       <use xlink:href="#DejaVuSans-30" x="254.492188"/>
      </g>
     </g>
    </g>
    <g id="xtick_12">
     <g id="line2d_12">
      <g>
       <use xlink:href="#m501a28fbdb" x="397.678449" y="298.591221" style="stroke: #000000; stroke-width: 0.8"/>
      </g>
     </g>
     <g id="text_12">
      <!-- 11000 -->
      <g transform="translate(388.382205 333.458962) rotate(-45) scale(0.1 -0.1)">
       <use xlink:href="#DejaVuSans-31"/>
       <use xlink:href="#DejaVuSans-31" x="63.623047"/>
       <use xlink:href="#DejaVuSans-30" x="127.246094"/>
       <use xlink:href="#DejaVuSans-30" x="190.869141"/>
       <use xlink:href="#DejaVuSans-30" x="254.492188"/>
      </g>
     </g>
    </g>
    <g id="xtick_13">
     <g id="line2d_13">
      <g>
       <use xlink:href="#m501a28fbdb" x="425.416903" y="298.591221" style="stroke: #000000; stroke-width: 0.8"/>
      </g>
     </g>
     <g id="text_13">
      <!-- 12000 -->
      <g transform="translate(416.120659 333.458962) rotate(-45) scale(0.1 -0.1)">
       <use xlink:href="#DejaVuSans-31"/>
       <use xlink:href="#DejaVuSans-32" x="63.623047"/>
       <use xlink:href="#DejaVuSans-30" x="127.246094"/>
       <use xlink:href="#DejaVuSans-30" x="190.869141"/>
       <use xlink:href="#DejaVuSans-30" x="254.492188"/>
      </g>
     </g>
    </g>
    <g id="xtick_14">
     <g id="line2d_14">
      <g>
       <use xlink:href="#m501a28fbdb" x="453.155357" y="298.591221" style="stroke: #000000; stroke-width: 0.8"/>
      </g>
     </g>
     <g id="text_14">
      <!-- 13000 -->
      <g transform="translate(443.859113 333.458962) rotate(-45) scale(0.1 -0.1)">
       <use xlink:href="#DejaVuSans-31"/>
       <use xlink:href="#DejaVuSans-33" x="63.623047"/>
       <use xlink:href="#DejaVuSans-30" x="127.246094"/>
       <use xlink:href="#DejaVuSans-30" x="190.869141"/>
       <use xlink:href="#DejaVuSans-30" x="254.492188"/>
      </g>
     </g>
    </g>
    <g id="xtick_15">
     <g id="line2d_15">
      <g>
       <use xlink:href="#m501a28fbdb" x="480.893811" y="298.591221" style="stroke: #000000; stroke-width: 0.8"/>
      </g>
     </g>
     <g id="text_15">
      <!-- 14000 -->
      <g transform="translate(471.597567 333.458962) rotate(-45) scale(0.1 -0.1)">
       <use xlink:href="#DejaVuSans-31"/>
       <use xlink:href="#DejaVuSans-34" x="63.623047"/>
       <use xlink:href="#DejaVuSans-30" x="127.246094"/>
       <use xlink:href="#DejaVuSans-30" x="190.869141"/>
       <use xlink:href="#DejaVuSans-30" x="254.492188"/>
      </g>
     </g>
    </g>
    <g id="xtick_16">
     <g id="line2d_16">
      <g>
       <use xlink:href="#m501a28fbdb" x="508.632265" y="298.591221" style="stroke: #000000; stroke-width: 0.8"/>
      </g>
     </g>
     <g id="text_16">
      <!-- 15000 -->
      <g transform="translate(499.336021 333.458962) rotate(-45) scale(0.1 -0.1)">
       <use xlink:href="#DejaVuSans-31"/>
       <use xlink:href="#DejaVuSans-35" x="63.623047"/>
       <use xlink:href="#DejaVuSans-30" x="127.246094"/>
       <use xlink:href="#DejaVuSans-30" x="190.869141"/>
       <use xlink:href="#DejaVuSans-30" x="254.492188"/>
      </g>
     </g>
    </g>
    <g id="xtick_17">
     <g id="line2d_17">
      <g>
       <use xlink:href="#m501a28fbdb" x="536.370719" y="298.591221" style="stroke: #000000; stroke-width: 0.8"/>
      </g>
     </g>
     <g id="text_17">
      <!-- 16000 -->
      <g transform="translate(527.074475 333.458962) rotate(-45) scale(0.1 -0.1)">
       <use xlink:href="#DejaVuSans-31"/>
       <use xlink:href="#DejaVuSans-36" x="63.623047"/>
       <use xlink:href="#DejaVuSans-30" x="127.246094"/>
       <use xlink:href="#DejaVuSans-30" x="190.869141"/>
       <use xlink:href="#DejaVuSans-30" x="254.492188"/>
      </g>
     </g>
    </g>
    <g id="xtick_18">
     <g id="line2d_18">
      <g>
       <use xlink:href="#m501a28fbdb" x="564.109174" y="298.591221" style="stroke: #000000; stroke-width: 0.8"/>
      </g>
     </g>
     <g id="text_18">
      <!-- 17000 -->
      <g transform="translate(554.812929 333.458962) rotate(-45) scale(0.1 -0.1)">
       <use xlink:href="#DejaVuSans-31"/>
       <use xlink:href="#DejaVuSans-37" x="63.623047"/>
       <use xlink:href="#DejaVuSans-30" x="127.246094"/>
       <use xlink:href="#DejaVuSans-30" x="190.869141"/>
       <use xlink:href="#DejaVuSans-30" x="254.492188"/>
      </g>
     </g>
    </g>
    <g id="xtick_19">
     <g id="line2d_19">
      <g>
       <use xlink:href="#m501a28fbdb" x="591.847628" y="298.591221" style="stroke: #000000; stroke-width: 0.8"/>
      </g>
     </g>
     <g id="text_19">
      <!-- 18000 -->
      <g transform="translate(582.551383 333.458962) rotate(-45) scale(0.1 -0.1)">
       <use xlink:href="#DejaVuSans-31"/>
       <use xlink:href="#DejaVuSans-38" x="63.623047"/>
       <use xlink:href="#DejaVuSans-30" x="127.246094"/>
       <use xlink:href="#DejaVuSans-30" x="190.869141"/>
       <use xlink:href="#DejaVuSans-30" x="254.492188"/>
      </g>
     </g>
    </g>
    <g id="xtick_20">
     <g id="line2d_20">
      <g>
       <use xlink:href="#m501a28fbdb" x="619.586082" y="298.591221" style="stroke: #000000; stroke-width: 0.8"/>
      </g>
     </g>
     <g id="text_20">
      <!-- 19000 -->
      <g transform="translate(610.289837 333.458962) rotate(-45) scale(0.1 -0.1)">
       <use xlink:href="#DejaVuSans-31"/>
       <use xlink:href="#DejaVuSans-39" x="63.623047"/>
       <use xlink:href="#DejaVuSans-30" x="127.246094"/>
       <use xlink:href="#DejaVuSans-30" x="190.869141"/>
       <use xlink:href="#DejaVuSans-30" x="254.492188"/>
      </g>
     </g>
    </g>
    <g id="text_21">
     <!-- Assets (in millions) -->
     <g transform="translate(304.742031 346.527961) scale(0.1 -0.1)">
      <defs>
       <path id="DejaVuSans-41" d="M 2188 4044 
L 1331 1722 
L 3047 1722 
L 2188 4044 
z
M 1831 4666 
L 2547 4666 
L 4325 0 
L 3669 0 
L 3244 1197 
L 1141 1197 
L 716 0 
L 50 0 
L 1831 4666 
z
" transform="scale(0.015625)"/>
       <path id="DejaVuSans-73" d="M 2834 3397 
L 2834 2853 
Q 2591 2978 2328 3040 
Q 2066 3103 1784 3103 
Q 1356 3103 1142 2972 
Q 928 2841 928 2578 
Q 928 2378 1081 2264 
Q 1234 2150 1697 2047 
L 1894 2003 
Q 2506 1872 2764 1633 
Q 3022 1394 3022 966 
Q 3022 478 2636 193 
Q 2250 -91 1575 -91 
Q 1294 -91 989 -36 
Q 684 19 347 128 
L 347 722 
Q 666 556 975 473 
Q 1284 391 1588 391 
Q 1994 391 2212 530 
Q 2431 669 2431 922 
Q 2431 1156 2273 1281 
Q 2116 1406 1581 1522 
L 1381 1569 
Q 847 1681 609 1914 
Q 372 2147 372 2553 
Q 372 3047 722 3315 
Q 1072 3584 1716 3584 
Q 2034 3584 2315 3537 
Q 2597 3491 2834 3397 
z
" transform="scale(0.015625)"/>
       <path id="DejaVuSans-65" d="M 3597 1894 
L 3597 1613 
L 953 1613 
Q 991 1019 1311 708 
Q 1631 397 2203 397 
Q 2534 397 2845 478 
Q 3156 559 3463 722 
L 3463 178 
Q 3153 47 2828 -22 
Q 2503 -91 2169 -91 
Q 1331 -91 842 396 
Q 353 884 353 1716 
Q 353 2575 817 3079 
Q 1281 3584 2069 3584 
Q 2775 3584 3186 3129 
Q 3597 2675 3597 1894 
z
M 3022 2063 
Q 3016 2534 2758 2815 
Q 2500 3097 2075 3097 
Q 1594 3097 1305 2825 
Q 1016 2553 972 2059 
L 3022 2063 
z
" transform="scale(0.015625)"/>
       <path id="DejaVuSans-74" d="M 1172 4494 
L 1172 3500 
L 2356 3500 
L 2356 3053 
L 1172 3053 
L 1172 1153 
Q 1172 725 1289 603 
Q 1406 481 1766 481 
L 2356 481 
L 2356 0 
L 1766 0 
Q 1100 0 847 248 
Q 594 497 594 1153 
L 594 3053 
L 172 3053 
L 172 3500 
L 594 3500 
L 594 4494 
L 1172 4494 
z
" transform="scale(0.015625)"/>
       <path id="DejaVuSans-20" transform="scale(0.015625)"/>
       <path id="DejaVuSans-28" d="M 1984 4856 
Q 1566 4138 1362 3434 
Q 1159 2731 1159 2009 
Q 1159 1288 1364 580 
Q 1569 -128 1984 -844 
L 1484 -844 
Q 1016 -109 783 600 
Q 550 1309 550 2009 
Q 550 2706 781 3412 
Q 1013 4119 1484 4856 
L 1984 4856 
z
" transform="scale(0.015625)"/>
       <path id="DejaVuSans-69" d="M 603 3500 
L 1178 3500 
L 1178 0 
L 603 0 
L 603 3500 
z
M 603 4863 
L 1178 4863 
L 1178 4134 
L 603 4134 
L 603 4863 
z
" transform="scale(0.015625)"/>
       <path id="DejaVuSans-6e" d="M 3513 2113 
L 3513 0 
L 2938 0 
L 2938 2094 
Q 2938 2591 2744 2837 
Q 2550 3084 2163 3084 
Q 1697 3084 1428 2787 
Q 1159 2491 1159 1978 
L 1159 0 
L 581 0 
L 581 3500 
L 1159 3500 
L 1159 2956 
Q 1366 3272 1645 3428 
Q 1925 3584 2291 3584 
Q 2894 3584 3203 3211 
Q 3513 2838 3513 2113 
z
" transform="scale(0.015625)"/>
       <path id="DejaVuSans-6d" d="M 3328 2828 
Q 3544 3216 3844 3400 
Q 4144 3584 4550 3584 
Q 5097 3584 5394 3201 
Q 5691 2819 5691 2113 
L 5691 0 
L 5113 0 
L 5113 2094 
Q 5113 2597 4934 2840 
Q 4756 3084 4391 3084 
Q 3944 3084 3684 2787 
Q 3425 2491 3425 1978 
L 3425 0 
L 2847 0 
L 2847 2094 
Q 2847 2600 2669 2842 
Q 2491 3084 2119 3084 
Q 1678 3084 1418 2786 
Q 1159 2488 1159 1978 
L 1159 0 
L 581 0 
L 581 3500 
L 1159 3500 
L 1159 2956 
Q 1356 3278 1631 3431 
Q 1906 3584 2284 3584 
Q 2666 3584 2933 3390 
Q 3200 3197 3328 2828 
z
" transform="scale(0.015625)"/>
       <path id="DejaVuSans-6c" d="M 603 4863 
L 1178 4863 
L 1178 0 
L 603 0 
L 603 4863 
z
" transform="scale(0.015625)"/>
       <path id="DejaVuSans-6f" d="M 1959 3097 
Q 1497 3097 1228 2736 
Q 959 2375 959 1747 
Q 959 1119 1226 758 
Q 1494 397 1959 397 
Q 2419 397 2687 759 
Q 2956 1122 2956 1747 
Q 2956 2369 2687 2733 
Q 2419 3097 1959 3097 
z
M 1959 3584 
Q 2709 3584 3137 3096 
Q 3566 2609 3566 1747 
Q 3566 888 3137 398 
Q 2709 -91 1959 -91 
Q 1206 -91 779 398 
Q 353 888 353 1747 
Q 353 2609 779 3096 
Q 1206 3584 1959 3584 
z
" transform="scale(0.015625)"/>
       <path id="DejaVuSans-29" d="M 513 4856 
L 1013 4856 
Q 1481 4119 1714 3412 
Q 1947 2706 1947 2009 
Q 1947 1309 1714 600 
Q 1481 -109 1013 -844 
L 513 -844 
Q 928 -128 1133 580 
Q 1338 1288 1338 2009 
Q 1338 2731 1133 3434 
Q 928 4138 513 4856 
z
" transform="scale(0.015625)"/>
      </defs>
      <use xlink:href="#DejaVuSans-41"/>
      <use xlink:href="#DejaVuSans-73" x="68.408203"/>
      <use xlink:href="#DejaVuSans-73" x="120.507812"/>
      <use xlink:href="#DejaVuSans-65" x="172.607422"/>
      <use xlink:href="#DejaVuSans-74" x="234.130859"/>
      <use xlink:href="#DejaVuSans-73" x="273.339844"/>
      <use xlink:href="#DejaVuSans-20" x="325.439453"/>
      <use xlink:href="#DejaVuSans-28" x="357.226562"/>
      <use xlink:href="#DejaVuSans-69" x="396.240234"/>
      <use xlink:href="#DejaVuSans-6e" x="424.023438"/>
      <use xlink:href="#DejaVuSans-20" x="487.402344"/>
      <use xlink:href="#DejaVuSans-6d" x="519.189453"/>
      <use xlink:href="#DejaVuSans-69" x="616.601562"/>
      <use xlink:href="#DejaVuSans-6c" x="644.384766"/>
      <use xlink:href="#DejaVuSans-6c" x="672.167969"/>
      <use xlink:href="#DejaVuSans-69" x="699.951172"/>
      <use xlink:href="#DejaVuSans-6f" x="727.734375"/>
      <use xlink:href="#DejaVuSans-6e" x="788.916016"/>
      <use xlink:href="#DejaVuSans-73" x="852.294922"/>
      <use xlink:href="#DejaVuSans-29" x="904.394531"/>
     </g>
    </g>
   </g>
   <g id="matplotlib.axis_2">
    <g id="ytick_1">
     <g id="line2d_21">
      <path d="M 66.62 298.591221 
L 637.2 298.591221 
" clip-path="url(#pac07bd7755)" style="fill: none; stroke-dasharray: 2.96,1.28; stroke-dashoffset: 0; stroke: #b0b0b0; stroke-opacity: 0.3; stroke-width: 0.8"/>
     </g>
     <g id="line2d_22">
      <defs>
       <path id="m46df1e4273" d="M 0 0 
L -3.5 0 
" style="stroke: #000000; stroke-width: 0.8"/>
      </defs>
      <g>
       <use xlink:href="#m46df1e4273" x="66.62" y="298.591221" style="stroke: #000000; stroke-width: 0.8"/>
      </g>
     </g>
     <g id="text_22">
      <!-- 0.0000 -->
      <g transform="translate(24.629375 302.39044) scale(0.1 -0.1)">
       <defs>
        <path id="DejaVuSans-2e" d="M 684 794 
L 1344 794 
L 1344 0 
L 684 0 
L 684 794 
z
" transform="scale(0.015625)"/>
       </defs>
       <use xlink:href="#DejaVuSans-30"/>
       <use xlink:href="#DejaVuSans-2e" x="63.623047"/>
       <use xlink:href="#DejaVuSans-30" x="95.410156"/>
       <use xlink:href="#DejaVuSans-30" x="159.033203"/>
       <use xlink:href="#DejaVuSans-30" x="222.65625"/>
       <use xlink:href="#DejaVuSans-30" x="286.279297"/>
      </g>
     </g>
    </g>
    <g id="ytick_2">
     <g id="line2d_23">
      <path d="M 66.62 240.525176 
L 637.2 240.525176 
" clip-path="url(#pac07bd7755)" style="fill: none; stroke-dasharray: 2.96,1.28; stroke-dashoffset: 0; stroke: #b0b0b0; stroke-opacity: 0.3; stroke-width: 0.8"/>
     </g>
     <g id="line2d_24">
      <g>
       <use xlink:href="#m46df1e4273" x="66.62" y="240.525176" style="stroke: #000000; stroke-width: 0.8"/>
      </g>
     </g>
     <g id="text_23">
      <!-- 0.0005 -->
      <g transform="translate(24.629375 244.324395) scale(0.1 -0.1)">
       <use xlink:href="#DejaVuSans-30"/>
       <use xlink:href="#DejaVuSans-2e" x="63.623047"/>
       <use xlink:href="#DejaVuSans-30" x="95.410156"/>
       <use xlink:href="#DejaVuSans-30" x="159.033203"/>
       <use xlink:href="#DejaVuSans-30" x="222.65625"/>
       <use xlink:href="#DejaVuSans-35" x="286.279297"/>
      </g>
     </g>
    </g>
    <g id="ytick_3">
     <g id="line2d_25">
      <path d="M 66.62 182.459131 
L 637.2 182.459131 
" clip-path="url(#pac07bd7755)" style="fill: none; stroke-dasharray: 2.96,1.28; stroke-dashoffset: 0; stroke: #b0b0b0; stroke-opacity: 0.3; stroke-width: 0.8"/>
     </g>
     <g id="line2d_26">
      <g>
       <use xlink:href="#m46df1e4273" x="66.62" y="182.459131" style="stroke: #000000; stroke-width: 0.8"/>
      </g>
     </g>
     <g id="text_24">
      <!-- 0.0010 -->
      <g transform="translate(24.629375 186.25835) scale(0.1 -0.1)">
       <use xlink:href="#DejaVuSans-30"/>
       <use xlink:href="#DejaVuSans-2e" x="63.623047"/>
       <use xlink:href="#DejaVuSans-30" x="95.410156"/>
       <use xlink:href="#DejaVuSans-30" x="159.033203"/>
       <use xlink:href="#DejaVuSans-31" x="222.65625"/>
       <use xlink:href="#DejaVuSans-30" x="286.279297"/>
      </g>
     </g>
    </g>
    <g id="ytick_4">
     <g id="line2d_27">
      <path d="M 66.62 124.393086 
L 637.2 124.393086 
" clip-path="url(#pac07bd7755)" style="fill: none; stroke-dasharray: 2.96,1.28; stroke-dashoffset: 0; stroke: #b0b0b0; stroke-opacity: 0.3; stroke-width: 0.8"/>
     </g>
     <g id="line2d_28">
      <g>
       <use xlink:href="#m46df1e4273" x="66.62" y="124.393086" style="stroke: #000000; stroke-width: 0.8"/>
      </g>
     </g>
     <g id="text_25">
      <!-- 0.0015 -->
      <g transform="translate(24.629375 128.192305) scale(0.1 -0.1)">
       <use xlink:href="#DejaVuSans-30"/>
       <use xlink:href="#DejaVuSans-2e" x="63.623047"/>
       <use xlink:href="#DejaVuSans-30" x="95.410156"/>
       <use xlink:href="#DejaVuSans-30" x="159.033203"/>
       <use xlink:href="#DejaVuSans-31" x="222.65625"/>
       <use xlink:href="#DejaVuSans-35" x="286.279297"/>
      </g>
     </g>
    </g>
    <g id="ytick_5">
     <g id="line2d_29">
      <path d="M 66.62 66.327041 
L 637.2 66.327041 
" clip-path="url(#pac07bd7755)" style="fill: none; stroke-dasharray: 2.96,1.28; stroke-dashoffset: 0; stroke: #b0b0b0; stroke-opacity: 0.3; stroke-width: 0.8"/>
     </g>
     <g id="line2d_30">
      <g>
       <use xlink:href="#m46df1e4273" x="66.62" y="66.327041" style="stroke: #000000; stroke-width: 0.8"/>
      </g>
     </g>
     <g id="text_26">
      <!-- 0.0020 -->
      <g transform="translate(24.629375 70.12626) scale(0.1 -0.1)">
       <use xlink:href="#DejaVuSans-30"/>
       <use xlink:href="#DejaVuSans-2e" x="63.623047"/>
       <use xlink:href="#DejaVuSans-30" x="95.410156"/>
       <use xlink:href="#DejaVuSans-30" x="159.033203"/>
       <use xlink:href="#DejaVuSans-32" x="222.65625"/>
       <use xlink:href="#DejaVuSans-30" x="286.279297"/>
      </g>
     </g>
    </g>
    <g id="text_27">
     <!-- Density -->
     <g transform="translate(18.549688 181.744204) rotate(-90) scale(0.1 -0.1)">
      <defs>
       <path id="DejaVuSans-44" d="M 1259 4147 
L 1259 519 
L 2022 519 
Q 2988 519 3436 956 
Q 3884 1394 3884 2338 
Q 3884 3275 3436 3711 
Q 2988 4147 2022 4147 
L 1259 4147 
z
M 628 4666 
L 1925 4666 
Q 3281 4666 3915 4102 
Q 4550 3538 4550 2338 
Q 4550 1131 3912 565 
Q 3275 0 1925 0 
L 628 0 
L 628 4666 
z
" transform="scale(0.015625)"/>
       <path id="DejaVuSans-79" d="M 2059 -325 
Q 1816 -950 1584 -1140 
Q 1353 -1331 966 -1331 
L 506 -1331 
L 506 -850 
L 844 -850 
Q 1081 -850 1212 -737 
Q 1344 -625 1503 -206 
L 1606 56 
L 191 3500 
L 800 3500 
L 1894 763 
L 2988 3500 
L 3597 3500 
L 2059 -325 
z
" transform="scale(0.015625)"/>
      </defs>
      <use xlink:href="#DejaVuSans-44"/>
      <use xlink:href="#DejaVuSans-65" x="77.001953"/>
      <use xlink:href="#DejaVuSans-6e" x="138.525391"/>
      <use xlink:href="#DejaVuSans-73" x="201.904297"/>
      <use xlink:href="#DejaVuSans-69" x="254.003906"/>
      <use xlink:href="#DejaVuSans-74" x="281.787109"/>
      <use xlink:href="#DejaVuSans-79" x="320.996094"/>
     </g>
    </g>
   </g>
   <g id="line2d_31">
    <path d="M 92.555455 253.152983 
L 94.62165 251.831208 
L 96.171297 251.05682 
L 97.720943 250.477992 
L 99.27059 250.100585 
L 100.820237 249.927768 
L 102.369883 249.959977 
L 103.91953 250.194929 
L 105.469177 250.627705 
L 107.018823 251.250883 
L 109.085019 252.360845 
L 111.151214 253.763089 
L 113.21741 255.423588 
L 115.800154 257.804148 
L 118.899447 261.002392 
L 123.548387 266.206172 
L 130.780072 274.355586 
L 134.395914 278.11548 
L 137.495207 281.063754 
L 140.5945 283.721664 
L 143.693794 286.074616 
L 146.793087 288.123912 
L 149.89238 289.882762 
L 152.991673 291.372417 
L 156.090967 292.618759 
L 159.19026 293.649552 
L 162.806102 294.616476 
L 166.938493 295.460839 
L 171.070884 296.07916 
L 175.719824 296.562064 
L 181.401862 296.921997 
L 188.116997 297.120278 
L 197.414877 297.157121 
L 237.189141 297.06044 
L 300.208104 297.882518 
L 330.684488 298.455716 
L 348.763699 298.518269 
L 373.558045 298.355497 
L 395.769647 298.282747 
L 423.663286 298.488488 
L 453.623121 298.585874 
L 507.860753 298.51239 
L 558.999092 298.309892 
L 587.409281 298.343483 
L 608.587785 298.269453 
L 608.587785 298.269453 
" clip-path="url(#pac07bd7755)" style="fill: none; stroke: #0000ff; stroke-width: 2; stroke-linecap: square"/>
   </g>
   <g id="line2d_32">
    <path d="M 92.555455 288.83091 
L 111.667763 288.763481 
L 131.29662 288.92046 
L 151.442027 289.306558 
L 173.653629 289.960678 
L 199.997621 290.969729 
L 243.387727 292.897005 
L 287.810931 294.791683 
L 318.803864 295.887594 
L 348.24715 296.707567 
L 379.240082 297.343016 
L 413.332308 297.812728 
L 454.13967 298.142403 
L 509.4104 298.348119 
L 608.587785 298.461917 
L 608.587785 298.461917 
" clip-path="url(#pac07bd7755)" style="fill: none; stroke-dasharray: 7.4,3.2; stroke-dashoffset: 0; stroke: #ff0000; stroke-width: 2"/>
   </g>
   <g id="patch_190">
    <path d="M 66.62 298.591221 
L 66.62 26.88 
" style="fill: none; stroke: #000000; stroke-width: 0.8; stroke-linejoin: miter; stroke-linecap: square"/>
   </g>
   <g id="patch_191">
    <path d="M 637.2 298.591221 
L 637.2 26.88 
" style="fill: none; stroke: #000000; stroke-width: 0.8; stroke-linejoin: miter; stroke-linecap: square"/>
   </g>
   <g id="patch_192">
    <path d="M 66.62 298.591221 
L 637.2 298.591221 
" style="fill: none; stroke: #000000; stroke-width: 0.8; stroke-linejoin: miter; stroke-linecap: square"/>
   </g>
   <g id="patch_193">
    <path d="M 66.62 26.88 
L 637.2 26.88 
" style="fill: none; stroke: #000000; stroke-width: 0.8; stroke-linejoin: miter; stroke-linecap: square"/>
   </g>
   <g id="text_28">
    <!-- Histogram of Assets with Density Overlays -->
    <g transform="translate(223.949688 20.88) scale(0.12 -0.12)">
     <defs>
      <path id="DejaVuSans-48" d="M 628 4666 
L 1259 4666 
L 1259 2753 
L 3553 2753 
L 3553 4666 
L 4184 4666 
L 4184 0 
L 3553 0 
L 3553 2222 
L 1259 2222 
L 1259 0 
L 628 0 
L 628 4666 
z
" transform="scale(0.015625)"/>
      <path id="DejaVuSans-67" d="M 2906 1791 
Q 2906 2416 2648 2759 
Q 2391 3103 1925 3103 
Q 1463 3103 1205 2759 
Q 947 2416 947 1791 
Q 947 1169 1205 825 
Q 1463 481 1925 481 
Q 2391 481 2648 825 
Q 2906 1169 2906 1791 
z
M 3481 434 
Q 3481 -459 3084 -895 
Q 2688 -1331 1869 -1331 
Q 1566 -1331 1297 -1286 
Q 1028 -1241 775 -1147 
L 775 -588 
Q 1028 -725 1275 -790 
Q 1522 -856 1778 -856 
Q 2344 -856 2625 -561 
Q 2906 -266 2906 331 
L 2906 616 
Q 2728 306 2450 153 
Q 2172 0 1784 0 
Q 1141 0 747 490 
Q 353 981 353 1791 
Q 353 2603 747 3093 
Q 1141 3584 1784 3584 
Q 2172 3584 2450 3431 
Q 2728 3278 2906 2969 
L 2906 3500 
L 3481 3500 
L 3481 434 
z
" transform="scale(0.015625)"/>
      <path id="DejaVuSans-72" d="M 2631 2963 
Q 2534 3019 2420 3045 
Q 2306 3072 2169 3072 
Q 1681 3072 1420 2755 
Q 1159 2438 1159 1844 
L 1159 0 
L 581 0 
L 581 3500 
L 1159 3500 
L 1159 2956 
Q 1341 3275 1631 3429 
Q 1922 3584 2338 3584 
Q 2397 3584 2469 3576 
Q 2541 3569 2628 3553 
L 2631 2963 
z
" transform="scale(0.015625)"/>
      <path id="DejaVuSans-61" d="M 2194 1759 
Q 1497 1759 1228 1600 
Q 959 1441 959 1056 
Q 959 750 1161 570 
Q 1363 391 1709 391 
Q 2188 391 2477 730 
Q 2766 1069 2766 1631 
L 2766 1759 
L 2194 1759 
z
M 3341 1997 
L 3341 0 
L 2766 0 
L 2766 531 
Q 2569 213 2275 61 
Q 1981 -91 1556 -91 
Q 1019 -91 701 211 
Q 384 513 384 1019 
Q 384 1609 779 1909 
Q 1175 2209 1959 2209 
L 2766 2209 
L 2766 2266 
Q 2766 2663 2505 2880 
Q 2244 3097 1772 3097 
Q 1472 3097 1187 3025 
Q 903 2953 641 2809 
L 641 3341 
Q 956 3463 1253 3523 
Q 1550 3584 1831 3584 
Q 2591 3584 2966 3190 
Q 3341 2797 3341 1997 
z
" transform="scale(0.015625)"/>
      <path id="DejaVuSans-66" d="M 2375 4863 
L 2375 4384 
L 1825 4384 
Q 1516 4384 1395 4259 
Q 1275 4134 1275 3809 
L 1275 3500 
L 2222 3500 
L 2222 3053 
L 1275 3053 
L 1275 0 
L 697 0 
L 697 3053 
L 147 3053 
L 147 3500 
L 697 3500 
L 697 3744 
Q 697 4328 969 4595 
Q 1241 4863 1831 4863 
L 2375 4863 
z
" transform="scale(0.015625)"/>
      <path id="DejaVuSans-77" d="M 269 3500 
L 844 3500 
L 1563 769 
L 2278 3500 
L 2956 3500 
L 3675 769 
L 4391 3500 
L 4966 3500 
L 4050 0 
L 3372 0 
L 2619 2869 
L 1863 0 
L 1184 0 
L 269 3500 
z
" transform="scale(0.015625)"/>
      <path id="DejaVuSans-68" d="M 3513 2113 
L 3513 0 
L 2938 0 
L 2938 2094 
Q 2938 2591 2744 2837 
Q 2550 3084 2163 3084 
Q 1697 3084 1428 2787 
Q 1159 2491 1159 1978 
L 1159 0 
L 581 0 
L 581 4863 
L 1159 4863 
L 1159 2956 
Q 1366 3272 1645 3428 
Q 1925 3584 2291 3584 
Q 2894 3584 3203 3211 
Q 3513 2838 3513 2113 
z
" transform="scale(0.015625)"/>
      <path id="DejaVuSans-4f" d="M 2522 4238 
Q 1834 4238 1429 3725 
Q 1025 3213 1025 2328 
Q 1025 1447 1429 934 
Q 1834 422 2522 422 
Q 3209 422 3611 934 
Q 4013 1447 4013 2328 
Q 4013 3213 3611 3725 
Q 3209 4238 2522 4238 
z
M 2522 4750 
Q 3503 4750 4090 4092 
Q 4678 3434 4678 2328 
Q 4678 1225 4090 567 
Q 3503 -91 2522 -91 
Q 1538 -91 948 565 
Q 359 1222 359 2328 
Q 359 3434 948 4092 
Q 1538 4750 2522 4750 
z
" transform="scale(0.015625)"/>
      <path id="DejaVuSans-76" d="M 191 3500 
L 800 3500 
L 1894 563 
L 2988 3500 
L 3597 3500 
L 2284 0 
L 1503 0 
L 191 3500 
z
" transform="scale(0.015625)"/>
     </defs>
     <use xlink:href="#DejaVuSans-48"/>
     <use xlink:href="#DejaVuSans-69" x="75.195312"/>
     <use xlink:href="#DejaVuSans-73" x="102.978516"/>
     <use xlink:href="#DejaVuSans-74" x="155.078125"/>
     <use xlink:href="#DejaVuSans-6f" x="194.287109"/>
     <use xlink:href="#DejaVuSans-67" x="255.46875"/>
     <use xlink:href="#DejaVuSans-72" x="318.945312"/>
     <use xlink:href="#DejaVuSans-61" x="360.058594"/>
     <use xlink:href="#DejaVuSans-6d" x="421.337891"/>
     <use xlink:href="#DejaVuSans-20" x="518.75"/>
     <use xlink:href="#DejaVuSans-6f" x="550.537109"/>
     <use xlink:href="#DejaVuSans-66" x="611.71875"/>
     <use xlink:href="#DejaVuSans-20" x="646.923828"/>
     <use xlink:href="#DejaVuSans-41" x="678.710938"/>
     <use xlink:href="#DejaVuSans-73" x="747.119141"/>
     <use xlink:href="#DejaVuSans-73" x="799.21875"/>
     <use xlink:href="#DejaVuSans-65" x="851.318359"/>
     <use xlink:href="#DejaVuSans-74" x="912.841797"/>
     <use xlink:href="#DejaVuSans-73" x="952.050781"/>
     <use xlink:href="#DejaVuSans-20" x="1004.150391"/>
     <use xlink:href="#DejaVuSans-77" x="1035.9375"/>
     <use xlink:href="#DejaVuSans-69" x="1117.724609"/>
     <use xlink:href="#DejaVuSans-74" x="1145.507812"/>
     <use xlink:href="#DejaVuSans-68" x="1184.716797"/>
     <use xlink:href="#DejaVuSans-20" x="1248.095703"/>
     <use xlink:href="#DejaVuSans-44" x="1279.882812"/>
     <use xlink:href="#DejaVuSans-65" x="1356.884766"/>
     <use xlink:href="#DejaVuSans-6e" x="1418.408203"/>
     <use xlink:href="#DejaVuSans-73" x="1481.787109"/>
     <use xlink:href="#DejaVuSans-69" x="1533.886719"/>
     <use xlink:href="#DejaVuSans-74" x="1561.669922"/>
     <use xlink:href="#DejaVuSans-79" x="1600.878906"/>
     <use xlink:href="#DejaVuSans-20" x="1660.058594"/>
     <use xlink:href="#DejaVuSans-4f" x="1691.845703"/>
     <use xlink:href="#DejaVuSans-76" x="1770.556641"/>
     <use xlink:href="#DejaVuSans-65" x="1829.736328"/>
     <use xlink:href="#DejaVuSans-72" x="1891.259766"/>
     <use xlink:href="#DejaVuSans-6c" x="1932.373047"/>
     <use xlink:href="#DejaVuSans-61" x="1960.15625"/>
     <use xlink:href="#DejaVuSans-79" x="2021.435547"/>
     <use xlink:href="#DejaVuSans-73" x="2080.615234"/>
    </g>
   </g>
   <g id="legend_1">
    <g id="patch_194">
     <path d="M 477.923438 78.914375 
L 630.2 78.914375 
Q 632.2 78.914375 632.2 76.914375 
L 632.2 33.88 
Q 632.2 31.88 630.2 31.88 
L 477.923438 31.88 
Q 475.923438 31.88 475.923438 33.88 
L 475.923438 76.914375 
Q 475.923438 78.914375 477.923438 78.914375 
z
" style="fill: #ffffff; opacity: 0.8; stroke: #cccccc; stroke-linejoin: miter"/>
    </g>
    <g id="patch_195">
     <path d="M 479.923438 43.478437 
L 499.923438 43.478437 
L 499.923438 36.478437 
L 479.923438 36.478437 
z
" style="fill: #87ceeb; opacity: 0.5; stroke: #000000; stroke-linejoin: miter"/>
    </g>
    <g id="text_29">
     <!-- Histogram (100M bins) -->
     <g transform="translate(507.923438 43.478437) scale(0.1 -0.1)">
      <defs>
       <path id="DejaVuSans-4d" d="M 628 4666 
L 1569 4666 
L 2759 1491 
L 3956 4666 
L 4897 4666 
L 4897 0 
L 4281 0 
L 4281 4097 
L 3078 897 
L 2444 897 
L 1241 4097 
L 1241 0 
L 628 0 
L 628 4666 
z
" transform="scale(0.015625)"/>
       <path id="DejaVuSans-62" d="M 3116 1747 
Q 3116 2381 2855 2742 
Q 2594 3103 2138 3103 
Q 1681 3103 1420 2742 
Q 1159 2381 1159 1747 
Q 1159 1113 1420 752 
Q 1681 391 2138 391 
Q 2594 391 2855 752 
Q 3116 1113 3116 1747 
z
M 1159 2969 
Q 1341 3281 1617 3432 
Q 1894 3584 2278 3584 
Q 2916 3584 3314 3078 
Q 3713 2572 3713 1747 
Q 3713 922 3314 415 
Q 2916 -91 2278 -91 
Q 1894 -91 1617 61 
Q 1341 213 1159 525 
L 1159 0 
L 581 0 
L 581 4863 
L 1159 4863 
L 1159 2969 
z
" transform="scale(0.015625)"/>
      </defs>
      <use xlink:href="#DejaVuSans-48"/>
      <use xlink:href="#DejaVuSans-69" x="75.195312"/>
      <use xlink:href="#DejaVuSans-73" x="102.978516"/>
      <use xlink:href="#DejaVuSans-74" x="155.078125"/>
      <use xlink:href="#DejaVuSans-6f" x="194.287109"/>
      <use xlink:href="#DejaVuSans-67" x="255.46875"/>
      <use xlink:href="#DejaVuSans-72" x="318.945312"/>
      <use xlink:href="#DejaVuSans-61" x="360.058594"/>
      <use xlink:href="#DejaVuSans-6d" x="421.337891"/>
      <use xlink:href="#DejaVuSans-20" x="518.75"/>
      <use xlink:href="#DejaVuSans-28" x="550.537109"/>
      <use xlink:href="#DejaVuSans-31" x="589.550781"/>
      <use xlink:href="#DejaVuSans-30" x="653.173828"/>
      <use xlink:href="#DejaVuSans-30" x="716.796875"/>
      <use xlink:href="#DejaVuSans-4d" x="780.419922"/>
      <use xlink:href="#DejaVuSans-20" x="866.699219"/>
      <use xlink:href="#DejaVuSans-62" x="898.486328"/>
      <use xlink:href="#DejaVuSans-69" x="961.962891"/>
      <use xlink:href="#DejaVuSans-6e" x="989.746094"/>
      <use xlink:href="#DejaVuSans-73" x="1053.125"/>
      <use xlink:href="#DejaVuSans-29" x="1105.224609"/>
     </g>
    </g>
    <g id="line2d_33">
     <path d="M 479.923438 54.656563 
L 489.923438 54.656563 
L 499.923438 54.656563 
" style="fill: none; stroke: #0000ff; stroke-width: 2; stroke-linecap: square"/>
    </g>
    <g id="text_30">
     <!-- Density (Default BW) -->
     <g transform="translate(507.923438 58.156563) scale(0.1 -0.1)">
      <defs>
       <path id="DejaVuSans-75" d="M 544 1381 
L 544 3500 
L 1119 3500 
L 1119 1403 
Q 1119 906 1312 657 
Q 1506 409 1894 409 
Q 2359 409 2629 706 
Q 2900 1003 2900 1516 
L 2900 3500 
L 3475 3500 
L 3475 0 
L 2900 0 
L 2900 538 
Q 2691 219 2414 64 
Q 2138 -91 1772 -91 
Q 1169 -91 856 284 
Q 544 659 544 1381 
z
M 1991 3584 
L 1991 3584 
z
" transform="scale(0.015625)"/>
       <path id="DejaVuSans-42" d="M 1259 2228 
L 1259 519 
L 2272 519 
Q 2781 519 3026 730 
Q 3272 941 3272 1375 
Q 3272 1813 3026 2020 
Q 2781 2228 2272 2228 
L 1259 2228 
z
M 1259 4147 
L 1259 2741 
L 2194 2741 
Q 2656 2741 2882 2914 
Q 3109 3088 3109 3444 
Q 3109 3797 2882 3972 
Q 2656 4147 2194 4147 
L 1259 4147 
z
M 628 4666 
L 2241 4666 
Q 2963 4666 3353 4366 
Q 3744 4066 3744 3513 
Q 3744 3084 3544 2831 
Q 3344 2578 2956 2516 
Q 3422 2416 3680 2098 
Q 3938 1781 3938 1306 
Q 3938 681 3513 340 
Q 3088 0 2303 0 
L 628 0 
L 628 4666 
z
" transform="scale(0.015625)"/>
       <path id="DejaVuSans-57" d="M 213 4666 
L 850 4666 
L 1831 722 
L 2809 4666 
L 3519 4666 
L 4500 722 
L 5478 4666 
L 6119 4666 
L 4947 0 
L 4153 0 
L 3169 4050 
L 2175 0 
L 1381 0 
L 213 4666 
z
" transform="scale(0.015625)"/>
      </defs>
      <use xlink:href="#DejaVuSans-44"/>
      <use xlink:href="#DejaVuSans-65" x="77.001953"/>
      <use xlink:href="#DejaVuSans-6e" x="138.525391"/>
      <use xlink:href="#DejaVuSans-73" x="201.904297"/>
      <use xlink:href="#DejaVuSans-69" x="254.003906"/>
      <use xlink:href="#DejaVuSans-74" x="281.787109"/>
      <use xlink:href="#DejaVuSans-79" x="320.996094"/>
      <use xlink:href="#DejaVuSans-20" x="380.175781"/>
      <use xlink:href="#DejaVuSans-28" x="411.962891"/>
      <use xlink:href="#DejaVuSans-44" x="450.976562"/>
      <use xlink:href="#DejaVuSans-65" x="527.978516"/>
      <use xlink:href="#DejaVuSans-66" x="589.501953"/>
      <use xlink:href="#DejaVuSans-61" x="624.707031"/>
      <use xlink:href="#DejaVuSans-75" x="685.986328"/>
      <use xlink:href="#DejaVuSans-6c" x="749.365234"/>
      <use xlink:href="#DejaVuSans-74" x="777.148438"/>
      <use xlink:href="#DejaVuSans-20" x="816.357422"/>
      <use xlink:href="#DejaVuSans-42" x="848.144531"/>
      <use xlink:href="#DejaVuSans-57" x="913.123047"/>
      <use xlink:href="#DejaVuSans-29" x="1012"/>
     </g>
    </g>
    <g id="line2d_34">
     <path d="M 479.923438 69.334687 
L 489.923438 69.334687 
L 499.923438 69.334687 
" style="fill: none; stroke-dasharray: 7.4,3.2; stroke-dashoffset: 0; stroke: #ff0000; stroke-width: 2"/>
    </g>
    <g id="text_31">
     <!-- Density (BW Factor = 2) -->
     <g transform="translate(507.923438 72.834687) scale(0.1 -0.1)">
      <defs>
       <path id="DejaVuSans-46" d="M 628 4666 
L 3309 4666 
L 3309 4134 
L 1259 4134 
L 1259 2759 
L 3109 2759 
L 3109 2228 
L 1259 2228 
L 1259 0 
L 628 0 
L 628 4666 
z
" transform="scale(0.015625)"/>
       <path id="DejaVuSans-63" d="M 3122 3366 
L 3122 2828 
Q 2878 2963 2633 3030 
Q 2388 3097 2138 3097 
Q 1578 3097 1268 2742 
Q 959 2388 959 1747 
Q 959 1106 1268 751 
Q 1578 397 2138 397 
Q 2388 397 2633 464 
Q 2878 531 3122 666 
L 3122 134 
Q 2881 22 2623 -34 
Q 2366 -91 2075 -91 
Q 1284 -91 818 406 
Q 353 903 353 1747 
Q 353 2603 823 3093 
Q 1294 3584 2113 3584 
Q 2378 3584 2631 3529 
Q 2884 3475 3122 3366 
z
" transform="scale(0.015625)"/>
       <path id="DejaVuSans-3d" d="M 678 2906 
L 4684 2906 
L 4684 2381 
L 678 2381 
L 678 2906 
z
M 678 1631 
L 4684 1631 
L 4684 1100 
L 678 1100 
L 678 1631 
z
" transform="scale(0.015625)"/>
      </defs>
      <use xlink:href="#DejaVuSans-44"/>
      <use xlink:href="#DejaVuSans-65" x="77.001953"/>
      <use xlink:href="#DejaVuSans-6e" x="138.525391"/>
      <use xlink:href="#DejaVuSans-73" x="201.904297"/>
      <use xlink:href="#DejaVuSans-69" x="254.003906"/>
      <use xlink:href="#DejaVuSans-74" x="281.787109"/>
      <use xlink:href="#DejaVuSans-79" x="320.996094"/>
      <use xlink:href="#DejaVuSans-20" x="380.175781"/>
      <use xlink:href="#DejaVuSans-28" x="411.962891"/>
      <use xlink:href="#DejaVuSans-42" x="450.976562"/>
      <use xlink:href="#DejaVuSans-57" x="515.955078"/>
      <use xlink:href="#DejaVuSans-20" x="614.832031"/>
      <use xlink:href="#DejaVuSans-46" x="646.619141"/>
      <use xlink:href="#DejaVuSans-61" x="695.013672"/>
      <use xlink:href="#DejaVuSans-63" x="756.292969"/>
      <use xlink:href="#DejaVuSans-74" x="811.273438"/>
      <use xlink:href="#DejaVuSans-6f" x="850.482422"/>
      <use xlink:href="#DejaVuSans-72" x="911.664062"/>
      <use xlink:href="#DejaVuSans-20" x="952.777344"/>
      <use xlink:href="#DejaVuSans-3d" x="984.564453"/>
      <use xlink:href="#DejaVuSans-20" x="1068.353516"/>
      <use xlink:href="#DejaVuSans-32" x="1100.140625"/>
      <use xlink:href="#DejaVuSans-29" x="1163.763672"/>
     </g>
    </g>
   </g>
  </g>
 </g>
 <defs>
  <clipPath id="pac07bd7755">
   <rect x="66.62" y="26.88" width="570.58" height="271.711221"/>
  </clipPath>
 </defs>
</svg>
